<ttFont>
<head>
    <!-- Most of this table will be recalculated by the compiler -->
    <tableVersion value="1.0"/>
    <fontRevision value="1.29999"/>
    <checkSumAdjustment value="0x36c5cd69"/>
    <magicNumber value="0x5f0f3cf5"/>
    <flags value="00000000 00001001"/>
    <unitsPerEm value="1000"/>
    <created value="Mon Oct 19 13:12:01 2015"/>
    <modified value="Mon Aug  1 23:07:31 2016"/>
    <xMin value="-4"/>
    <yMin value="-319"/>
    <xMax value="707"/>
    <yMax value="1270"/>
    <macStyle value="00000000 00000000"/>
    <lowestRecPPEM value="9"/>
    <fontDirectionHint value="2"/>
    <indexToLocFormat value="0"/>
    <glyphDataFormat value="0"/>
  </head>
    <TTGlyph name=".notdef" xMin="5" yMin="-200" xMax="545" yMax="800">
      <contour>
        <pt x="5" y="800" on="1"/>
        <pt x="545" y="800" on="1"/>
        <pt x="545" y="-200" on="1"/>
        <pt x="5" y="-200" on="1"/>
      </contour>
      <contour>
        <pt x="275" y="360" on="1"/>
        <pt x="468" y="750" on="1"/>
        <pt x="82" y="750" on="1"/>
      </contour>
      <contour>
        <pt x="305" y="300" on="1"/>
        <pt x="491" y="-76" on="1"/>
        <pt x="491" y="676" on="1"/>
      </contour>
      <contour>
        <pt x="245" y="300" on="1"/>
        <pt x="59" y="676" on="1"/>
        <pt x="59" y="-76" on="1"/>
      </contour>
      <contour>
        <pt x="82" y="-150" on="1"/>
        <pt x="468" y="-150" on="1"/>
        <pt x="275" y="240" on="1"/>
      </contour>
    </TTGlyph>
    <TTGlyph name="A" xMin="47" yMin="-4" xMax="578" yMax="690">
      <contour>
        <pt x="484" y="-4" on="1"/>
        <pt x="470" y="50" on="0"/>
        <pt x="441" y="157" on="0"/>
        <pt x="427" y="211" on="1"/>
        <pt x="196" y="211" on="1"/>
        <pt x="182" y="158" on="0"/>
        <pt x="154" y="53" on="0"/>
        <pt x="140" y="0" on="1"/>
        <pt x="47" y="0" on="1"/>
        <pt x="95" y="173" on="0"/>
        <pt x="193" y="516" on="0"/>
        <pt x="247" y="690" on="1"/>
        <pt x="378" y="690" on="1"/>
        <pt x="432" y="516" on="0"/>
        <pt x="530" y="177" on="0"/>
        <pt x="578" y="4" on="1"/>
      </contour>
      <contour>
        <pt x="307" y="610" on="1"/>
        <pt x="284" y="527" on="0"/>
        <pt x="238" y="363" on="0"/>
        <pt x="215" y="280" on="1"/>
        <pt x="408" y="280" on="1"/>
        <pt x="385" y="363" on="0"/>
        <pt x="339" y="528" on="0"/>
        <pt x="315" y="610" on="1"/>
      </contour>
    </TTGlyph>
    <TTGlyph name="AE" xMin="11" yMin="0" xMax="576" yMax="688">
      <contour>
        <pt x="292" y="609" on="1"/>
        <pt x="266" y="525" on="0"/>
        <pt x="212" y="356" on="0"/>
        <pt x="185" y="271" on="1"/>
        <pt x="298" y="271" on="1"/>
        <pt x="298" y="609" on="1"/>
      </contour>
      <contour>
        <pt x="298" y="201" on="1"/>
        <pt x="164" y="201" on="1"/>
        <pt x="148" y="150" on="0"/>
        <pt x="117" y="50" on="0"/>
        <pt x="102" y="0" on="1"/>
        <pt x="11" y="0" on="1"/>
        <pt x="65" y="173" on="0"/>
        <pt x="179" y="516" on="0"/>
        <pt x="236" y="688" on="1"/>
        <pt x="571" y="688" on="1"/>
        <pt x="571" y="609" on="1"/>
        <pt x="379" y="609" on="1"/>
        <pt x="379" y="383" on="1"/>
        <pt x="541" y="383" on="1"/>
        <pt x="541" y="313" on="1"/>
        <pt x="379" y="313" on="1"/>
        <pt x="379" y="79" on="1"/>
        <pt x="576" y="79" on="1"/>
        <pt x="569" y="0" on="1"/>
        <pt x="298" y="0" on="1"/>
      </contour>
    </TTGlyph>
    <TTGlyph name="AEacute" xMin="11" yMin="0" xMax="576" yMax="1001">
      <component glyphName="acute.cap" x="58" y="144" flags="0x204"/>
      <component glyphName="AE" x="0" y="0" flags="0x4"/>
    </TTGlyph>
    <TTGlyph name="Aacute" xMin="47" yMin="-4" xMax="578" yMax="1001">
      <component glyphName="A" x="0" y="0" flags="0x204"/>
      <component glyphName="acute.cap" x="8" y="144" flags="0x4"/>
    </TTGlyph>
    <TTGlyph name="Abreve" xMin="47" yMin="-4" xMax="578" yMax="968">
      <component glyphName="A" x="0" y="0" flags="0x204"/>
      <component glyphName="breve.cap" x="1" y="144" flags="0x4"/>
    </TTGlyph>
    <TTGlyph name="Acircumflex" xMin="47" yMin="-4" xMax="578" yMax="980">
      <component glyphName="A" x="0" y="0" flags="0x204"/>
      <component glyphName="circumflex.cap" x="-1" y="144" flags="0x4"/>
    </TTGlyph>
    <TTGlyph name="Adieresis" xMin="47" yMin="-4" xMax="578" yMax="927">
      <component glyphName="A" x="0" y="0" flags="0x204"/>
      <component glyphName="dieresis.cap" x="-2" y="144" flags="0x4"/>
    </TTGlyph>
    <TTGlyph name="Agrave" xMin="47" yMin="-4" xMax="578" yMax="997">
      <component glyphName="A" x="0" y="0" flags="0x204"/>
      <component glyphName="grave.cap" x="-22" y="144" flags="0x4"/>
    </TTGlyph>
    <TTGlyph name="Amacron" xMin="47" yMin="-4" xMax="578" yMax="893">
      <component glyphName="A" x="0" y="0" flags="0x204"/>
      <component glyphName="macron.cap" x="-2" y="144" flags="0x4"/>
    </TTGlyph>
    <TTGlyph name="Aogonek" xMin="47" yMin="-236" xMax="578" yMax="690">
      <contour>
        <pt x="553" y="-236" on="1"/>
        <pt x="497" y="-232" on="0"/>
        <pt x="418" y="-214" on="0"/>
        <pt x="369" y="-187" on="0"/>
        <pt x="347" y="-152" on="0"/>
        <pt x="347" y="-132" on="1"/>
        <pt x="347" y="-100" on="0"/>
        <pt x="409" y="-34" on="0"/>
        <pt x="482" y="5" on="1"/>
        <pt x="468" y="57" on="0"/>
        <pt x="441" y="159" on="0"/>
        <pt x="427" y="211" on="1"/>
        <pt x="196" y="211" on="1"/>
        <pt x="182" y="158" on="0"/>
        <pt x="154" y="53" on="0"/>
        <pt x="140" y="0" on="1"/>
        <pt x="47" y="0" on="1"/>
        <pt x="95" y="173" on="0"/>
        <pt x="193" y="516" on="0"/>
        <pt x="247" y="690" on="1"/>
        <pt x="378" y="690" on="1"/>
        <pt x="432" y="516" on="0"/>
        <pt x="530" y="177" on="0"/>
        <pt x="578" y="4" on="1"/>
        <pt x="535" y="-16" on="0"/>
        <pt x="479" y="-49" on="0"/>
        <pt x="446" y="-76" on="0"/>
        <pt x="432" y="-99" on="0"/>
        <pt x="432" y="-109" on="1"/>
        <pt x="432" y="-129" on="0"/>
        <pt x="491" y="-155" on="0"/>
        <pt x="562" y="-163" on="1"/>
      </contour>
      <contour>
        <pt x="307" y="610" on="1"/>
        <pt x="284" y="527" on="0"/>
        <pt x="238" y="363" on="0"/>
        <pt x="215" y="280" on="1"/>
        <pt x="408" y="280" on="1"/>
        <pt x="385" y="363" on="0"/>
        <pt x="339" y="528" on="0"/>
        <pt x="315" y="610" on="1"/>
      </contour>
    </TTGlyph>
    <TTGlyph name="Aring" xMin="47" yMin="-4" xMax="578" yMax="987">
      <component glyphName="A" x="0" y="0" flags="0x204"/>
      <component glyphName="ring.cap" x="-12" y="144" flags="0x4"/>
    </TTGlyph>
    <TTGlyph name="Aringacute" xMin="47" yMin="-4" xMax="578" yMax="1270">
      <contour>
        <pt x="484" y="-4" on="1"/>
        <pt x="470" y="50" on="0"/>
        <pt x="441" y="157" on="0"/>
        <pt x="427" y="211" on="1"/>
        <pt x="196" y="211" on="1"/>
        <pt x="182" y="158" on="0"/>
        <pt x="154" y="53" on="0"/>
        <pt x="140" y="0" on="1"/>
        <pt x="47" y="0" on="1"/>
        <pt x="95" y="173" on="0"/>
        <pt x="193" y="516" on="0"/>
        <pt x="247" y="690" on="1"/>
        <pt x="378" y="690" on="1"/>
        <pt x="432" y="516" on="0"/>
        <pt x="530" y="177" on="0"/>
        <pt x="578" y="4" on="1"/>
      </contour>
      <contour>
        <pt x="307" y="610" on="1"/>
        <pt x="284" y="527" on="0"/>
        <pt x="238" y="363" on="0"/>
        <pt x="215" y="280" on="1"/>
        <pt x="408" y="280" on="1"/>
        <pt x="385" y="363" on="0"/>
        <pt x="339" y="528" on="0"/>
        <pt x="315" y="610" on="1"/>
      </contour>
      <contour>
        <pt x="195" y="1073" on="1"/>
        <pt x="219" y="1089" on="0"/>
        <pt x="276" y="1137" on="0"/>
        <pt x="335" y="1191" on="0"/>
        <pt x="389" y="1246" on="0"/>
        <pt x="409" y="1270" on="1"/>
        <pt x="481" y="1200" on="1"/>
        <pt x="456" y="1178" on="0"/>
        <pt x="390" y="1130" on="0"/>
        <pt x="319" y="1085" on="0"/>
        <pt x="248" y="1046" on="0"/>
        <pt x="220" y="1032" on="1"/>
        <pt x="195" y="1073" on="1"/>
      </contour>
      <contour>
        <pt x="309" y="987" on="1"/>
        <pt x="342" y="987" on="0"/>
        <pt x="396" y="969" on="0"/>
        <pt x="435" y="937" on="0"/>
        <pt x="456" y="896" on="0"/>
        <pt x="456" y="872" on="1"/>
        <pt x="456" y="820" on="0"/>
        <pt x="376" y="752" on="0"/>
        <pt x="309" y="752" on="1"/>
        <pt x="277" y="752" on="0"/>
        <pt x="223" y="770" on="0"/>
        <pt x="184" y="801" on="0"/>
        <pt x="163" y="843" on="0"/>
        <pt x="163" y="867" on="1"/>
        <pt x="163" y="919" on="0"/>
        <pt x="242" y="987" on="0"/>
      </contour>
    </TTGlyph>
    <TTGlyph name="Atilde" xMin="47" yMin="-4" xMax="578" yMax="959">
      <component glyphName="A" x="0" y="0" flags="0x204"/>
      <component glyphName="tilde.cap" x="6" y="144" flags="0x4"/>
    </TTGlyph>
    <TTGlyph name="B" xMin="112" yMin="-10" xMax="557" yMax="697">
      <contour>
        <pt x="112" y="688" on="1"/>
        <pt x="191" y="697" on="0"/>
        <pt x="259" y="697" on="1"/>
        <pt x="388" y="697" on="0"/>
        <pt x="534" y="619" on="0"/>
        <pt x="534" y="529" on="1"/>
        <pt x="534" y="463" on="0"/>
        <pt x="460" y="380" on="0"/>
        <pt x="403" y="360" on="1"/>
        <pt x="474" y="346" on="0"/>
        <pt x="557" y="267" on="0"/>
        <pt x="557" y="195" on="1"/>
        <pt x="557" y="141" on="0"/>
        <pt x="512" y="64" on="0"/>
        <pt x="430" y="14" on="0"/>
        <pt x="316" y="-10" on="0"/>
        <pt x="247" y="-10" on="1"/>
        <pt x="215" y="-10" on="0"/>
        <pt x="148" y="-5" on="0"/>
        <pt x="112" y="0" on="1"/>
      </contour>
      <contour>
        <pt x="204" y="379" on="1"/>
        <pt x="227" y="379" on="1"/>
        <pt x="287" y="379" on="0"/>
        <pt x="370" y="394" on="0"/>
        <pt x="421" y="426" on="0"/>
        <pt x="444" y="474" on="0"/>
        <pt x="444" y="507" on="1"/>
        <pt x="444" y="568" on="0"/>
        <pt x="354" y="622" on="0"/>
        <pt x="273" y="622" on="1"/>
        <pt x="257" y="622" on="0"/>
        <pt x="223" y="620" on="0"/>
        <pt x="204" y="618" on="1"/>
      </contour>
      <contour>
        <pt x="204" y="72" on="1"/>
        <pt x="228" y="69" on="0"/>
        <pt x="273" y="65" on="0"/>
        <pt x="293" y="65" on="1"/>
        <pt x="375" y="65" on="0"/>
        <pt x="465" y="124" on="0"/>
        <pt x="465" y="191" on="1"/>
        <pt x="465" y="261" on="0"/>
        <pt x="358" y="312" on="0"/>
        <pt x="252" y="312" on="1"/>
        <pt x="241" y="312" on="0"/>
        <pt x="217" y="312" on="0"/>
        <pt x="204" y="311" on="1"/>
      </contour>
    </TTGlyph>
    <TTGlyph name="C" xMin="80" yMin="-6" xMax="539" yMax="697">
      <contour>
        <pt x="532" y="607" on="1"/>
        <pt x="419" y="606" on="0"/>
        <pt x="280" y="568" on="0"/>
        <pt x="203" y="500" on="0"/>
        <pt x="176" y="404" on="0"/>
        <pt x="176" y="345" on="1"/>
        <pt x="176" y="280" on="0"/>
        <pt x="205" y="179" on="0"/>
        <pt x="276" y="111" on="0"/>
        <pt x="397" y="76" on="0"/>
        <pt x="490" y="76" on="1"/>
        <pt x="501" y="76" on="0"/>
        <pt x="526" y="76" on="0"/>
        <pt x="539" y="77" on="1"/>
        <pt x="531" y="-4" on="1"/>
        <pt x="513" y="-6" on="0"/>
        <pt x="479" y="-6" on="0"/>
        <pt x="462" y="-6" on="1"/>
        <pt x="351" y="-6" on="0"/>
        <pt x="204" y="46" on="0"/>
        <pt x="116" y="137" on="0"/>
        <pt x="80" y="260" on="0"/>
        <pt x="80" y="332" on="1"/>
        <pt x="80" y="403" on="0"/>
        <pt x="125" y="532" on="0"/>
        <pt x="229" y="631" on="0"/>
        <pt x="400" y="693" on="0"/>
        <pt x="527" y="697" on="1"/>
        <pt x="532" y="607" on="1"/>
      </contour>
    </TTGlyph>
    <TTGlyph name="Cacute" xMin="80" yMin="-6" xMax="539" yMax="1001">
      <component glyphName="C" x="0" y="0" flags="0x204"/>
      <component glyphName="acute.cap" x="50" y="144" flags="0x4"/>
    </TTGlyph>
    <TTGlyph name="Ccaron" xMin="80" yMin="-6" xMax="558" yMax="973">
      <component glyphName="C" x="0" y="0" flags="0x204"/>
      <component glyphName="caron.cap" x="48" y="144" flags="0x4"/>
    </TTGlyph>
    <TTGlyph name="Ccedilla" xMin="80" yMin="-240" xMax="539" yMax="697">
      <contour>
        <pt x="532" y="607" on="1"/>
        <pt x="419" y="606" on="0"/>
        <pt x="280" y="568" on="0"/>
        <pt x="203" y="500" on="0"/>
        <pt x="176" y="404" on="0"/>
        <pt x="176" y="345" on="1"/>
        <pt x="176" y="280" on="0"/>
        <pt x="205" y="179" on="0"/>
        <pt x="276" y="111" on="0"/>
        <pt x="397" y="76" on="0"/>
        <pt x="490" y="76" on="1"/>
        <pt x="501" y="76" on="0"/>
        <pt x="526" y="76" on="0"/>
        <pt x="539" y="77" on="1"/>
        <pt x="531" y="-4" on="1"/>
        <pt x="495" y="-7" on="0"/>
        <pt x="464" y="-7" on="1"/>
        <pt x="387" y="-7" on="0"/>
        <pt x="325" y="7" on="1"/>
        <pt x="387" y="-28" on="0"/>
        <pt x="442" y="-95" on="0"/>
        <pt x="442" y="-125" on="1"/>
        <pt x="442" y="-167" on="0"/>
        <pt x="341" y="-228" on="0"/>
        <pt x="238" y="-240" on="1"/>
        <pt x="231" y="-169" on="1"/>
        <pt x="301" y="-158" on="0"/>
        <pt x="361" y="-134" on="0"/>
        <pt x="361" y="-116" on="1"/>
        <pt x="361" y="-98" on="0"/>
        <pt x="312" y="-49" on="0"/>
        <pt x="257" y="-17" on="1"/>
        <pt x="275" y="20" on="1"/>
        <pt x="220" y="39" on="0"/>
        <pt x="145" y="101" on="0"/>
        <pt x="100" y="182" on="0"/>
        <pt x="80" y="279" on="0"/>
        <pt x="80" y="332" on="1"/>
        <pt x="80" y="403" on="0"/>
        <pt x="125" y="532" on="0"/>
        <pt x="229" y="631" on="0"/>
        <pt x="400" y="693" on="0"/>
        <pt x="527" y="697" on="1"/>
      </contour>
    </TTGlyph>
    <TTGlyph name="Cdotaccent" xMin="80" yMin="-6" xMax="539" yMax="927">
      <component glyphName="dotaccent.cap" x="44" y="144" flags="0x204"/>
      <component glyphName="C" x="0" y="0" flags="0x4"/>
    </TTGlyph>
    <TTGlyph name="D" xMin="101" yMin="-10" xMax="563" yMax="699">
      <contour>
        <pt x="563" y="358" on="1"/>
        <pt x="563" y="182" on="0"/>
        <pt x="388" y="-10" on="0"/>
        <pt x="213" y="-10" on="1"/>
        <pt x="161" y="-10" on="0"/>
        <pt x="101" y="-1" on="1"/>
        <pt x="101" y="689" on="1"/>
        <pt x="139" y="694" on="0"/>
        <pt x="206" y="699" on="0"/>
        <pt x="236" y="699" on="1"/>
        <pt x="324" y="699" on="0"/>
        <pt x="448" y="656" on="0"/>
        <pt x="527" y="571" on="0"/>
        <pt x="563" y="443" on="0"/>
      </contour>
      <contour>
        <pt x="469" y="343" on="1"/>
        <pt x="469" y="482" on="0"/>
        <pt x="368" y="620" on="0"/>
        <pt x="252" y="620" on="1"/>
        <pt x="238" y="620" on="0"/>
        <pt x="209" y="618" on="0"/>
        <pt x="193" y="616" on="1"/>
        <pt x="193" y="74" on="1"/>
        <pt x="210" y="72" on="0"/>
        <pt x="241" y="69" on="0"/>
        <pt x="255" y="69" on="1"/>
        <pt x="367" y="69" on="0"/>
        <pt x="469" y="207" on="0"/>
      </contour>
    </TTGlyph>
    <TTGlyph name="Dcaron" xMin="101" yMin="-10" xMax="563" yMax="980">
      <component glyphName="caron.cap" x="-4" y="151" flags="0x204"/>
      <component glyphName="D" x="0" y="0" flags="0x4"/>
    </TTGlyph>
    <TTGlyph name="Dcroat" xMin="24" yMin="-10" xMax="563" yMax="699">
      <contour>
        <pt x="563" y="358" on="1"/>
        <pt x="563" y="182" on="0"/>
        <pt x="388" y="-10" on="0"/>
        <pt x="213" y="-10" on="1"/>
        <pt x="161" y="-10" on="0"/>
        <pt x="101" y="-1" on="1"/>
        <pt x="101" y="316" on="1"/>
        <pt x="24" y="316" on="1"/>
        <pt x="24" y="382" on="1"/>
        <pt x="101" y="382" on="1"/>
        <pt x="101" y="689" on="1"/>
        <pt x="139" y="694" on="0"/>
        <pt x="206" y="699" on="0"/>
        <pt x="236" y="699" on="1"/>
        <pt x="324" y="699" on="0"/>
        <pt x="448" y="656" on="0"/>
        <pt x="527" y="571" on="0"/>
        <pt x="563" y="443" on="0"/>
      </contour>
      <contour>
        <pt x="193" y="74" on="1"/>
        <pt x="210" y="72" on="0"/>
        <pt x="241" y="69" on="0"/>
        <pt x="255" y="69" on="1"/>
        <pt x="367" y="69" on="0"/>
        <pt x="469" y="207" on="0"/>
        <pt x="469" y="343" on="1"/>
        <pt x="469" y="482" on="0"/>
        <pt x="368" y="620" on="0"/>
        <pt x="252" y="620" on="1"/>
        <pt x="238" y="620" on="0"/>
        <pt x="209" y="618" on="0"/>
        <pt x="193" y="616" on="1"/>
        <pt x="193" y="382" on="1"/>
        <pt x="338" y="382" on="1"/>
        <pt x="334" y="316" on="1"/>
        <pt x="193" y="316" on="1"/>
      </contour>
    </TTGlyph>
    <TTGlyph name="E" xMin="123" yMin="0" xMax="546" yMax="688">
      <contour>
        <pt x="538" y="0" on="1"/>
        <pt x="123" y="0" on="1"/>
        <pt x="123" y="688" on="1"/>
        <pt x="541" y="688" on="1"/>
        <pt x="541" y="609" on="1"/>
        <pt x="217" y="609" on="1"/>
        <pt x="217" y="383" on="1"/>
        <pt x="497" y="383" on="1"/>
        <pt x="497" y="313" on="1"/>
        <pt x="217" y="313" on="1"/>
        <pt x="217" y="79" on="1"/>
        <pt x="546" y="79" on="1"/>
      </contour>
    </TTGlyph>
    <TTGlyph name="Eacute" xMin="123" yMin="0" xMax="546" yMax="1001">
      <component glyphName="acute.cap" x="30" y="144" flags="0x204"/>
      <component glyphName="E" x="0" y="0" flags="0x4"/>
    </TTGlyph>
    <TTGlyph name="Ebreve" xMin="123" yMin="0" xMax="547" yMax="968">
      <component glyphName="breve.cap" x="24" y="144" flags="0x204"/>
      <component glyphName="E" x="0" y="0" flags="0x4"/>
    </TTGlyph>
    <TTGlyph name="Ecaron" xMin="123" yMin="0" xMax="546" yMax="973">
      <component glyphName="caron.cap" x="28" y="144" flags="0x204"/>
      <component glyphName="E" x="0" y="0" flags="0x4"/>
    </TTGlyph>
    <TTGlyph name="Ecircumflex" xMin="123" yMin="0" xMax="546" yMax="980">
      <component glyphName="E" x="0" y="0" flags="0x204"/>
      <component glyphName="circumflex.cap" x="21" y="144" flags="0x4"/>
    </TTGlyph>
    <TTGlyph name="Edieresis" xMin="123" yMin="0" xMax="546" yMax="927">
      <component glyphName="dieresis.cap" x="21" y="144" flags="0x204"/>
      <component glyphName="E" x="0" y="0" flags="0x4"/>
    </TTGlyph>
    <TTGlyph name="Edotaccent" xMin="123" yMin="0" xMax="546" yMax="927">
      <component glyphName="dotaccent.cap" x="24" y="144" flags="0x204"/>
      <component glyphName="E" x="0" y="0" flags="0x4"/>
    </TTGlyph>
    <TTGlyph name="Egrave" xMin="123" yMin="0" xMax="546" yMax="997">
      <component glyphName="grave.cap" x="1" y="144" flags="0x204"/>
      <component glyphName="E" x="0" y="0" flags="0x4"/>
    </TTGlyph>
    <TTGlyph name="Emacron" xMin="123" yMin="0" xMax="546" yMax="893">
      <component glyphName="macron.cap" x="21" y="144" flags="0x204"/>
      <component glyphName="E" x="0" y="0" flags="0x4"/>
    </TTGlyph>
    <TTGlyph name="Eogonek" xMin="123" yMin="-240" xMax="546" yMax="688">
      <contour>
        <pt x="514" y="-240" on="1"/>
        <pt x="401" y="-231" on="0"/>
        <pt x="308" y="-177" on="0"/>
        <pt x="308" y="-136" on="1"/>
        <pt x="308" y="-104" on="0"/>
        <pt x="367" y="-39" on="0"/>
        <pt x="438" y="0" on="1"/>
        <pt x="123" y="0" on="1"/>
        <pt x="123" y="688" on="1"/>
        <pt x="541" y="688" on="1"/>
        <pt x="541" y="609" on="1"/>
        <pt x="217" y="609" on="1"/>
        <pt x="217" y="383" on="1"/>
        <pt x="497" y="383" on="1"/>
        <pt x="497" y="313" on="1"/>
        <pt x="217" y="313" on="1"/>
        <pt x="217" y="79" on="1"/>
        <pt x="546" y="79" on="1"/>
        <pt x="538" y="0" on="1"/>
        <pt x="496" y="-20" on="0"/>
        <pt x="440" y="-53" on="0"/>
        <pt x="407" y="-80" on="0"/>
        <pt x="393" y="-103" on="0"/>
        <pt x="393" y="-113" on="1"/>
        <pt x="393" y="-133" on="0"/>
        <pt x="451" y="-159" on="0"/>
        <pt x="522" y="-167" on="1"/>
      </contour>
    </TTGlyph>
    <TTGlyph name="Eth" xMin="24" yMin="-10" xMax="563" yMax="699">
      <component glyphName="Dcroat" x="0" y="0" flags="0x204"/>
    </TTGlyph>
    <TTGlyph name="Euro" xMin="75" yMin="-23" xMax="546" yMax="713">
      <contour>
        <pt x="533" y="-23" on="1"/>
        <pt x="446" y="-13" on="0"/>
        <pt x="317" y="27" on="0"/>
        <pt x="227" y="87" on="0"/>
        <pt x="172" y="166" on="0"/>
        <pt x="159" y="215" on="1"/>
        <pt x="75" y="215" on="1"/>
        <pt x="75" y="283" on="1"/>
        <pt x="147" y="283" on="1"/>
        <pt x="144" y="311" on="0"/>
        <pt x="144" y="342" on="1"/>
        <pt x="144" y="355" on="0"/>
        <pt x="145" y="380" on="0"/>
        <pt x="146" y="392" on="1"/>
        <pt x="75" y="392" on="1"/>
        <pt x="75" y="460" on="1"/>
        <pt x="157" y="460" on="1"/>
        <pt x="169" y="506" on="0"/>
        <pt x="220" y="584" on="0"/>
        <pt x="307" y="647" on="0"/>
        <pt x="434" y="696" on="0"/>
        <pt x="523" y="713" on="1"/>
        <pt x="538" y="625" on="1"/>
        <pt x="464" y="614" on="0"/>
        <pt x="359" y="584" on="0"/>
        <pt x="288" y="543" on="0"/>
        <pt x="248" y="489" on="0"/>
        <pt x="239" y="454" on="1"/>
        <pt x="487" y="454" on="1"/>
        <pt x="483" y="392" on="1"/>
        <pt x="229" y="392" on="1"/>
        <pt x="228" y="381" on="0"/>
        <pt x="228" y="358" on="0"/>
        <pt x="228" y="346" on="1"/>
        <pt x="228" y="313" on="0"/>
        <pt x="231" y="285" on="1"/>
        <pt x="482" y="285" on="1"/>
        <pt x="478" y="224" on="1"/>
        <pt x="244" y="224" on="1"/>
        <pt x="256" y="190" on="0"/>
        <pt x="299" y="136" on="0"/>
        <pt x="371" y="94" on="0"/>
        <pt x="475" y="63" on="0"/>
        <pt x="546" y="53" on="1"/>
      </contour>
    </TTGlyph>
    <TTGlyph name="F" xMin="130" yMin="0" xMax="553" yMax="688">
      <contour>
        <pt x="224" y="299" on="1"/>
        <pt x="224" y="0" on="1"/>
        <pt x="130" y="0" on="1"/>
        <pt x="130" y="688" on="1"/>
        <pt x="553" y="688" on="1"/>
        <pt x="553" y="609" on="1"/>
        <pt x="224" y="609" on="1"/>
        <pt x="224" y="372" on="1"/>
        <pt x="508" y="372" on="1"/>
        <pt x="508" y="299" on="1"/>
      </contour>
    </TTGlyph>
    <TTGlyph name="G" xMin="67" yMin="-10" xMax="536" yMax="697">
      <contour>
        <pt x="512" y="607" on="1"/>
        <pt x="401" y="608" on="0"/>
        <pt x="264" y="569" on="0"/>
        <pt x="188" y="498" on="0"/>
        <pt x="162" y="401" on="0"/>
        <pt x="162" y="343" on="1"/>
        <pt x="162" y="278" on="0"/>
        <pt x="188" y="176" on="0"/>
        <pt x="246" y="104" on="0"/>
        <pt x="342" y="66" on="0"/>
        <pt x="413" y="66" on="1"/>
        <pt x="423" y="66" on="0"/>
        <pt x="441" y="66" on="0"/>
        <pt x="452" y="67" on="1"/>
        <pt x="450" y="123" on="0"/>
        <pt x="448" y="269" on="0"/>
        <pt x="448" y="345" on="1"/>
        <pt x="535" y="345" on="1"/>
        <pt x="535" y="239" on="0"/>
        <pt x="534" y="76" on="0"/>
        <pt x="536" y="7" on="1"/>
        <pt x="494" y="-2" on="0"/>
        <pt x="420" y="-10" on="0"/>
        <pt x="386" y="-10" on="1"/>
        <pt x="303" y="-10" on="0"/>
        <pt x="183" y="39" on="0"/>
        <pt x="105" y="127" on="0"/>
        <pt x="67" y="251" on="0"/>
        <pt x="67" y="326" on="1"/>
        <pt x="67" y="400" on="0"/>
        <pt x="109" y="531" on="0"/>
        <pt x="211" y="631" on="0"/>
        <pt x="380" y="692" on="0"/>
        <pt x="506" y="697" on="1"/>
        <pt x="512" y="607" on="1"/>
      </contour>
    </TTGlyph>
    <TTGlyph name="Gbreve" xMin="67" yMin="-10" xMax="544" yMax="968">
      <component glyphName="breve.cap" x="21" y="144" flags="0x204"/>
      <component glyphName="G" x="0" y="0" flags="0x4"/>
    </TTGlyph>
    <TTGlyph name="Gcommaaccent" xMin="67" yMin="-317" xMax="536" yMax="697">
      <component glyphName="G" x="0" y="0" flags="0x204"/>
      <component glyphName="commaaccent.cap" x="24" y="-10" flags="0x4"/>
    </TTGlyph>
    <TTGlyph name="Gdotaccent" xMin="67" yMin="-10" xMax="536" yMax="927">
      <component glyphName="dotaccent.cap" x="22" y="144" flags="0x204"/>
      <component glyphName="G" x="0" y="0" flags="0x4"/>
    </TTGlyph>
    <TTGlyph name="H" xMin="95" yMin="0" xMax="530" yMax="688">
      <contour>
        <pt x="435" y="312" on="1"/>
        <pt x="189" y="312" on="1"/>
        <pt x="189" y="0" on="1"/>
        <pt x="95" y="0" on="1"/>
        <pt x="95" y="688" on="1"/>
        <pt x="189" y="688" on="1"/>
        <pt x="189" y="385" on="1"/>
        <pt x="435" y="385" on="1"/>
        <pt x="435" y="688" on="1"/>
        <pt x="530" y="688" on="1"/>
        <pt x="530" y="0" on="1"/>
        <pt x="435" y="0" on="1"/>
      </contour>
    </TTGlyph>
    <TTGlyph name="Hbar" xMin="17" yMin="0" xMax="608" yMax="688">
      <contour>
        <pt x="435" y="495" on="1"/>
        <pt x="189" y="495" on="1"/>
        <pt x="189" y="369" on="1"/>
        <pt x="435" y="369" on="1"/>
      </contour>
      <contour>
        <pt x="435" y="297" on="1"/>
        <pt x="189" y="297" on="1"/>
        <pt x="189" y="0" on="1"/>
        <pt x="95" y="0" on="1"/>
        <pt x="95" y="492" on="1"/>
        <pt x="17" y="492" on="1"/>
        <pt x="17" y="558" on="1"/>
        <pt x="95" y="558" on="1"/>
        <pt x="95" y="688" on="1"/>
        <pt x="189" y="688" on="1"/>
        <pt x="189" y="555" on="1"/>
        <pt x="435" y="555" on="1"/>
        <pt x="435" y="688" on="1"/>
        <pt x="530" y="688" on="1"/>
        <pt x="530" y="558" on="1"/>
        <pt x="608" y="558" on="1"/>
        <pt x="608" y="492" on="1"/>
        <pt x="530" y="492" on="1"/>
        <pt x="530" y="0" on="1"/>
        <pt x="435" y="0" on="1"/>
      </contour>
    </TTGlyph>
    <TTGlyph name="I" xMin="95" yMin="0" xMax="534" yMax="688">
      <contour>
        <pt x="359" y="74" on="1"/>
        <pt x="534" y="74" on="1"/>
        <pt x="527" y="0" on="1"/>
        <pt x="95" y="0" on="1"/>
        <pt x="95" y="74" on="1"/>
        <pt x="265" y="74" on="1"/>
        <pt x="265" y="615" on="1"/>
        <pt x="95" y="615" on="1"/>
        <pt x="95" y="688" on="1"/>
        <pt x="528" y="688" on="1"/>
        <pt x="528" y="615" on="1"/>
        <pt x="359" y="615" on="1"/>
      </contour>
    </TTGlyph>
    <TTGlyph name="Iacute" xMin="95" yMin="0" xMax="534" yMax="1001">
      <component glyphName="I" x="0" y="0" flags="0x204"/>
      <component glyphName="acute.cap" x="11" y="144" flags="0x4"/>
    </TTGlyph>
    <TTGlyph name="Ibreve" xMin="95" yMin="0" xMax="534" yMax="968">
      <component glyphName="I" x="0" y="0" flags="0x204"/>
      <component glyphName="breve.cap" x="5" y="144" flags="0x4"/>
    </TTGlyph>
    <TTGlyph name="Icircumflex" xMin="95" yMin="0" xMax="534" yMax="980">
      <component glyphName="I" x="0" y="0" flags="0x204"/>
      <component glyphName="circumflex.cap" x="2" y="144" flags="0x4"/>
    </TTGlyph>
    <TTGlyph name="Idieresis" xMin="95" yMin="0" xMax="534" yMax="927">
      <component glyphName="I" x="0" y="0" flags="0x204"/>
      <component glyphName="dieresis.cap" x="2" y="144" flags="0x4"/>
    </TTGlyph>
    <TTGlyph name="Idotaccent" xMin="95" yMin="0" xMax="534" yMax="927">
      <component glyphName="I" x="0" y="0" flags="0x204"/>
      <component glyphName="dotaccent.cap" x="6" y="144" flags="0x4"/>
    </TTGlyph>
    <TTGlyph name="Igrave" xMin="95" yMin="0" xMax="534" yMax="997">
      <component glyphName="I" x="0" y="0" flags="0x204"/>
      <component glyphName="grave.cap" x="-18" y="144" flags="0x4"/>
    </TTGlyph>
    <TTGlyph name="Imacron" xMin="95" yMin="0" xMax="534" yMax="893">
      <component glyphName="I" x="0" y="0" flags="0x204"/>
      <component glyphName="macron.cap" x="2" y="144" flags="0x4"/>
    </TTGlyph>
    <TTGlyph name="Iogonek" xMin="95" yMin="-237" xMax="534" yMax="688">
      <contour>
        <pt x="391" y="-237" on="1"/>
        <pt x="278" y="-229" on="0"/>
        <pt x="185" y="-173" on="0"/>
        <pt x="185" y="-129" on="1"/>
        <pt x="185" y="-99" on="0"/>
        <pt x="227" y="-38" on="0"/>
        <pt x="275" y="0" on="1"/>
        <pt x="95" y="0" on="1"/>
        <pt x="95" y="74" on="1"/>
        <pt x="265" y="74" on="1"/>
        <pt x="265" y="615" on="1"/>
        <pt x="95" y="615" on="1"/>
        <pt x="95" y="688" on="1"/>
        <pt x="528" y="688" on="1"/>
        <pt x="528" y="615" on="1"/>
        <pt x="359" y="615" on="1"/>
        <pt x="359" y="74" on="1"/>
        <pt x="534" y="74" on="1"/>
        <pt x="527" y="0" on="1"/>
        <pt x="354" y="0" on="1"/>
        <pt x="306" y="-39" on="0"/>
        <pt x="270" y="-88" on="0"/>
        <pt x="270" y="-108" on="1"/>
        <pt x="270" y="-130" on="0"/>
        <pt x="328" y="-157" on="0"/>
        <pt x="399" y="-164" on="1"/>
      </contour>
    </TTGlyph>
    <TTGlyph name="J" xMin="104" yMin="-11" xMax="477" yMax="688">
      <contour>
        <pt x="477" y="688" on="1"/>
        <pt x="477" y="224" on="1"/>
        <pt x="477" y="164" on="0"/>
        <pt x="443" y="75" on="0"/>
        <pt x="365" y="17" on="0"/>
        <pt x="235" y="-11" on="0"/>
        <pt x="139" y="-11" on="1"/>
        <pt x="104" y="-11" on="1"/>
        <pt x="104" y="72" on="1"/>
        <pt x="125" y="71" on="0"/>
        <pt x="163" y="70" on="0"/>
        <pt x="180" y="70" on="1"/>
        <pt x="246" y="70" on="0"/>
        <pt x="326" y="85" on="0"/>
        <pt x="369" y="121" on="0"/>
        <pt x="383" y="180" on="0"/>
        <pt x="383" y="224" on="1"/>
        <pt x="383" y="613" on="1"/>
        <pt x="146" y="613" on="1"/>
        <pt x="146" y="688" on="1"/>
      </contour>
    </TTGlyph>
    <TTGlyph name="K" xMin="107" yMin="-7" xMax="583" yMax="688">
      <contour>
        <pt x="271" y="310" on="1"/>
        <pt x="201" y="310" on="1"/>
        <pt x="201" y="0" on="1"/>
        <pt x="107" y="0" on="1"/>
        <pt x="107" y="688" on="1"/>
        <pt x="201" y="688" on="1"/>
        <pt x="201" y="386" on="1"/>
        <pt x="276" y="386" on="1"/>
        <pt x="467" y="688" on="1"/>
        <pt x="567" y="688" on="1"/>
        <pt x="348" y="352" on="1"/>
        <pt x="583" y="6" on="1"/>
        <pt x="481" y="-7" on="1"/>
      </contour>
    </TTGlyph>
    <TTGlyph name="Kcommaaccent" xMin="107" yMin="-314" xMax="583" yMax="688">
      <component glyphName="K" x="0" y="0" flags="0x204"/>
      <component glyphName="commaaccent.cap" x="6" y="-7" flags="0x4"/>
    </TTGlyph>
    <TTGlyph name="L" xMin="133" yMin="0" xMax="559" yMax="688">
      <contour>
        <pt x="133" y="0" on="1"/>
        <pt x="133" y="688" on="1"/>
        <pt x="226" y="688" on="1"/>
        <pt x="226" y="79" on="1"/>
        <pt x="559" y="79" on="1"/>
        <pt x="551" y="0" on="1"/>
      </contour>
    </TTGlyph>
    <TTGlyph name="Lacute" xMin="133" yMin="0" xMax="559" yMax="1001">
      <component glyphName="acute.cap" x="39" y="144" flags="0x204"/>
      <component glyphName="L" x="0" y="0" flags="0x4"/>
    </TTGlyph>
    <TTGlyph name="Lcaron" xMin="133" yMin="0" xMax="559" yMax="778">
      <component glyphName="L" x="0" y="0" flags="0x204"/>
      <component glyphName="caron.alt" x="183" y="-114" flags="0x4"/>
    </TTGlyph>
    <TTGlyph name="Lcommaaccent" xMin="133" yMin="-307" xMax="559" yMax="688">
      <component glyphName="L" x="0" y="0" flags="0x204"/>
      <component glyphName="commaaccent.cap" x="36" y="0" flags="0x4"/>
    </TTGlyph>
    <TTGlyph name="Ldot" xMin="133" yMin="0" xMax="559" yMax="688">
      <contour>
        <pt x="429" y="295" on="1"/>
        <pt x="436" y="416" on="1"/>
        <pt x="539" y="416" on="1"/>
        <pt x="533" y="295" on="1"/>
      </contour>
      <contour>
        <pt x="133" y="0" on="1"/>
        <pt x="133" y="688" on="1"/>
        <pt x="226" y="688" on="1"/>
        <pt x="226" y="79" on="1"/>
        <pt x="559" y="79" on="1"/>
        <pt x="551" y="0" on="1"/>
      </contour>
    </TTGlyph>
    <TTGlyph name="Lslash" xMin="42" yMin="0" xMax="559" yMax="688">
      <contour>
        <pt x="133" y="0" on="1"/>
        <pt x="133" y="326" on="1"/>
        <pt x="57" y="287" on="1"/>
        <pt x="42" y="351" on="1"/>
        <pt x="133" y="398" on="1"/>
        <pt x="133" y="688" on="1"/>
        <pt x="226" y="688" on="1"/>
        <pt x="226" y="446" on="1"/>
        <pt x="378" y="524" on="1"/>
        <pt x="393" y="461" on="1"/>
        <pt x="226" y="375" on="1"/>
        <pt x="226" y="79" on="1"/>
        <pt x="559" y="79" on="1"/>
        <pt x="551" y="0" on="1"/>
      </contour>
    </TTGlyph>
    <TTGlyph name="M" xMin="80" yMin="0" xMax="543" yMax="688">
      <contour>
        <pt x="543" y="688" on="1"/>
        <pt x="543" y="0" on="1"/>
        <pt x="455" y="0" on="1"/>
        <pt x="459" y="532" on="1"/>
        <pt x="455" y="532" on="1"/>
        <pt x="343" y="120" on="1"/>
        <pt x="280" y="120" on="1"/>
        <pt x="166" y="532" on="1"/>
        <pt x="161" y="532" on="1"/>
        <pt x="165" y="0" on="1"/>
        <pt x="80" y="0" on="1"/>
        <pt x="80" y="688" on="1"/>
        <pt x="185" y="688" on="1"/>
        <pt x="216" y="576" on="0"/>
        <pt x="242" y="482" on="1"/>
        <pt x="253" y="442" on="0"/>
        <pt x="275" y="362" on="0"/>
        <pt x="294" y="294" on="0"/>
        <pt x="308" y="243" on="0"/>
        <pt x="311" y="232" on="1"/>
        <pt x="316" y="232" on="1"/>
        <pt x="319" y="243" on="0"/>
        <pt x="332" y="294" on="0"/>
        <pt x="351" y="362" on="0"/>
        <pt x="373" y="442" on="0"/>
        <pt x="384" y="482" on="1"/>
        <pt x="410" y="576" on="0"/>
        <pt x="440" y="688" on="1"/>
      </contour>
    </TTGlyph>
    <TTGlyph name="N" xMin="95" yMin="0" xMax="530" yMax="688">
      <contour>
        <pt x="184" y="532" on="1"/>
        <pt x="179" y="532" on="1"/>
        <pt x="182" y="0" on="1"/>
        <pt x="95" y="0" on="1"/>
        <pt x="95" y="688" on="1"/>
        <pt x="193" y="688" on="1"/>
        <pt x="442" y="166" on="1"/>
        <pt x="446" y="166" on="1"/>
        <pt x="443" y="688" on="1"/>
        <pt x="530" y="688" on="1"/>
        <pt x="530" y="0" on="1"/>
        <pt x="442" y="0" on="1"/>
      </contour>
    </TTGlyph>
    <TTGlyph name="Nacute" xMin="95" yMin="0" xMax="530" yMax="1001">
      <component glyphName="acute.cap" x="8" y="144" flags="0x204"/>
      <component glyphName="N" x="0" y="0" flags="0x4"/>
    </TTGlyph>
    <TTGlyph name="Ncaron" xMin="95" yMin="0" xMax="530" yMax="973">
      <component glyphName="caron.cap" x="6" y="144" flags="0x204"/>
      <component glyphName="N" x="0" y="0" flags="0x4"/>
    </TTGlyph>
    <TTGlyph name="Ncommaaccent" xMin="95" yMin="-307" xMax="530" yMax="688">
      <component glyphName="commaaccent.cap" x="5" y="0" flags="0x204"/>
      <component glyphName="N" x="0" y="0" flags="0x4"/>
    </TTGlyph>
    <TTGlyph name="Ntilde" xMin="95" yMin="0" xMax="542" yMax="959">
      <component glyphName="tilde.cap" x="6" y="144" flags="0x204"/>
      <component glyphName="N" x="0" y="0" flags="0x4"/>
    </TTGlyph>
    <TTGlyph name="O" xMin="57" yMin="-17" xMax="567" yMax="705">
      <contour>
        <pt x="300" y="-17" on="1"/>
        <pt x="185" y="-17" on="0"/>
        <pt x="57" y="161" on="0"/>
        <pt x="57" y="329" on="1"/>
        <pt x="57" y="420" on="0"/>
        <pt x="95" y="560" on="0"/>
        <pt x="165" y="656" on="0"/>
        <pt x="264" y="705" on="0"/>
        <pt x="325" y="705" on="1"/>
        <pt x="441" y="705" on="0"/>
        <pt x="567" y="528" on="0"/>
        <pt x="567" y="360" on="1"/>
        <pt x="567" y="269" on="0"/>
        <pt x="530" y="128" on="0"/>
        <pt x="460" y="32" on="0"/>
        <pt x="361" y="-17" on="0"/>
      </contour>
      <contour>
        <pt x="309" y="627" on="1"/>
        <pt x="232" y="627" on="0"/>
        <pt x="153" y="487" on="0"/>
        <pt x="153" y="349" on="1"/>
        <pt x="153" y="206" on="0"/>
        <pt x="236" y="61" on="0"/>
        <pt x="315" y="61" on="1"/>
        <pt x="392" y="61" on="0"/>
        <pt x="471" y="201" on="0"/>
        <pt x="471" y="339" on="1"/>
        <pt x="471" y="482" on="0"/>
        <pt x="388" y="627" on="0"/>
      </contour>
    </TTGlyph>
    <TTGlyph name="OE" xMin="48" yMin="0" xMax="573" yMax="688">
      <contour>
        <pt x="141" y="346" on="1"/>
        <pt x="141" y="205" on="0"/>
        <pt x="220" y="80" on="0"/>
        <pt x="306" y="80" on="1"/>
        <pt x="306" y="608" on="1"/>
        <pt x="221" y="607" on="0"/>
        <pt x="141" y="484" on="0"/>
      </contour>
      <contour>
        <pt x="567" y="0" on="1"/>
        <pt x="331" y="0" on="1"/>
        <pt x="186" y="0" on="0"/>
        <pt x="48" y="159" on="0"/>
        <pt x="48" y="331" on="1"/>
        <pt x="48" y="502" on="0"/>
        <pt x="189" y="688" on="0"/>
        <pt x="333" y="688" on="1"/>
        <pt x="569" y="688" on="1"/>
        <pt x="569" y="609" on="1"/>
        <pt x="388" y="609" on="1"/>
        <pt x="388" y="383" on="1"/>
        <pt x="539" y="383" on="1"/>
        <pt x="539" y="313" on="1"/>
        <pt x="388" y="313" on="1"/>
        <pt x="388" y="79" on="1"/>
        <pt x="573" y="79" on="1"/>
      </contour>
    </TTGlyph>
    <TTGlyph name="Oacute" xMin="57" yMin="-17" xMax="567" yMax="1009">
      <component glyphName="acute.cap" x="13" y="152" flags="0x204"/>
      <component glyphName="O" x="0" y="0" flags="0x4"/>
    </TTGlyph>
    <TTGlyph name="Obreve" xMin="57" yMin="-17" xMax="567" yMax="976">
      <component glyphName="breve.cap" x="6" y="152" flags="0x204"/>
      <component glyphName="O" x="0" y="0" flags="0x4"/>
    </TTGlyph>
    <TTGlyph name="Ocircumflex" xMin="57" yMin="-17" xMax="567" yMax="988">
      <component glyphName="O" x="0" y="0" flags="0x204"/>
      <component glyphName="circumflex.cap" x="4" y="152" flags="0x4"/>
    </TTGlyph>
    <TTGlyph name="Odieresis" xMin="57" yMin="-17" xMax="567" yMax="935">
      <component glyphName="dieresis.cap" x="4" y="152" flags="0x204"/>
      <component glyphName="O" x="0" y="0" flags="0x4"/>
    </TTGlyph>
    <TTGlyph name="Ograve" xMin="57" yMin="-17" xMax="567" yMax="1005">
      <component glyphName="grave.cap" x="-17" y="152" flags="0x204"/>
      <component glyphName="O" x="0" y="0" flags="0x4"/>
    </TTGlyph>
    <TTGlyph name="Ohungarumlaut" xMin="57" yMin="-17" xMax="591" yMax="1023">
      <component glyphName="O" x="0" y="0" flags="0x204"/>
      <component glyphName="hungarumlaut.cap" x="3" y="152" flags="0x4"/>
    </TTGlyph>
    <TTGlyph name="Omacron" xMin="57" yMin="-17" xMax="567" yMax="901">
      <component glyphName="macron.cap" x="4" y="152" flags="0x204"/>
      <component glyphName="O" x="0" y="0" flags="0x4"/>
    </TTGlyph>
    <TTGlyph name="Omega" xMin="58" yMin="0" xMax="568" yMax="703">
      <contour>
        <pt x="259" y="0" on="1"/>
        <pt x="58" y="0" on="1"/>
        <pt x="58" y="74" on="1"/>
        <pt x="166" y="74" on="1"/>
        <pt x="125" y="171" on="0"/>
        <pt x="85" y="344" on="0"/>
        <pt x="85" y="417" on="1"/>
        <pt x="85" y="481" on="0"/>
        <pt x="116" y="587" on="0"/>
        <pt x="175" y="662" on="0"/>
        <pt x="261" y="703" on="0"/>
        <pt x="317" y="703" on="1"/>
        <pt x="372" y="703" on="0"/>
        <pt x="455" y="662" on="0"/>
        <pt x="512" y="587" on="0"/>
        <pt x="541" y="483" on="0"/>
        <pt x="541" y="419" on="1"/>
        <pt x="541" y="345" on="0"/>
        <pt x="500" y="172" on="0"/>
        <pt x="458" y="74" on="1"/>
        <pt x="568" y="74" on="1"/>
        <pt x="568" y="0" on="1"/>
        <pt x="366" y="0" on="1"/>
        <pt x="365" y="6" on="1"/>
        <pt x="410" y="127" on="0"/>
        <pt x="452" y="325" on="0"/>
        <pt x="452" y="402" on="1"/>
        <pt x="452" y="506" on="0"/>
        <pt x="381" y="620" on="0"/>
        <pt x="313" y="620" on="1"/>
        <pt x="244" y="620" on="0"/>
        <pt x="172" y="507" on="0"/>
        <pt x="172" y="404" on="1"/>
        <pt x="172" y="327" on="0"/>
        <pt x="216" y="128" on="0"/>
        <pt x="261" y="6" on="1"/>
      </contour>
    </TTGlyph>
    <TTGlyph name="Oslash" xMin="57" yMin="-40" xMax="567" yMax="728">
      <contour>
        <pt x="152" y="349" on="1"/>
        <pt x="152" y="233" on="0"/>
        <pt x="181" y="161" on="1"/>
        <pt x="411" y="582" on="1"/>
        <pt x="372" y="628" on="0"/>
        <pt x="309" y="628" on="1"/>
        <pt x="231" y="628" on="0"/>
        <pt x="152" y="488" on="0"/>
      </contour>
      <contour>
        <pt x="315" y="60" on="1"/>
        <pt x="393" y="60" on="0"/>
        <pt x="473" y="200" on="0"/>
        <pt x="473" y="339" on="1"/>
        <pt x="473" y="456" on="0"/>
        <pt x="444" y="528" on="1"/>
        <pt x="212" y="106" on="1"/>
        <pt x="253" y="60" on="0"/>
      </contour>
      <contour>
        <pt x="300" y="-17" on="1"/>
        <pt x="227" y="-17" on="0"/>
        <pt x="172" y="21" on="1"/>
        <pt x="140" y="-40" on="1"/>
        <pt x="81" y="-9" on="1"/>
        <pt x="124" y="69" on="1"/>
        <pt x="92" y="114" on="0"/>
        <pt x="57" y="243" on="0"/>
        <pt x="57" y="329" on="1"/>
        <pt x="57" y="420" on="0"/>
        <pt x="95" y="560" on="0"/>
        <pt x="165" y="656" on="0"/>
        <pt x="264" y="705" on="0"/>
        <pt x="325" y="705" on="1"/>
        <pt x="401" y="705" on="0"/>
        <pt x="454" y="666" on="1"/>
        <pt x="486" y="728" on="1"/>
        <pt x="546" y="697" on="1"/>
        <pt x="502" y="617" on="1"/>
        <pt x="534" y="573" on="0"/>
        <pt x="567" y="445" on="0"/>
        <pt x="567" y="360" on="1"/>
        <pt x="567" y="269" on="0"/>
        <pt x="530" y="128" on="0"/>
        <pt x="460" y="32" on="0"/>
        <pt x="361" y="-17" on="0"/>
      </contour>
    </TTGlyph>
    <TTGlyph name="Oslashacute" xMin="57" yMin="-40" xMax="567" yMax="1009">
      <component glyphName="Oslash" x="0" y="0" flags="0x204"/>
      <component glyphName="acute.cap" x="9" y="152" flags="0x4"/>
    </TTGlyph>
    <TTGlyph name="Otilde" xMin="57" yMin="-17" xMax="567" yMax="967">
      <component glyphName="tilde.cap" x="11" y="152" flags="0x204"/>
      <component glyphName="O" x="0" y="0" flags="0x4"/>
    </TTGlyph>
    <TTGlyph name="P" xMin="116" yMin="0" xMax="564" yMax="698">
      <contour>
        <pt x="116" y="0" on="1"/>
        <pt x="116" y="687" on="1"/>
        <pt x="155" y="693" on="0"/>
        <pt x="227" y="698" on="0"/>
        <pt x="259" y="698" on="1"/>
        <pt x="411" y="698" on="0"/>
        <pt x="564" y="582" on="0"/>
        <pt x="564" y="477" on="1"/>
        <pt x="564" y="416" on="0"/>
        <pt x="513" y="325" on="0"/>
        <pt x="419" y="263" on="0"/>
        <pt x="288" y="228" on="0"/>
        <pt x="209" y="222" on="1"/>
        <pt x="209" y="0" on="1"/>
      </contour>
      <contour>
        <pt x="472" y="459" on="1"/>
        <pt x="472" y="535" on="0"/>
        <pt x="376" y="620" on="0"/>
        <pt x="277" y="620" on="1"/>
        <pt x="261" y="620" on="0"/>
        <pt x="228" y="617" on="0"/>
        <pt x="209" y="615" on="1"/>
        <pt x="209" y="304" on="1"/>
        <pt x="223" y="303" on="0"/>
        <pt x="250" y="302" on="0"/>
        <pt x="263" y="302" on="1"/>
        <pt x="365" y="302" on="0"/>
        <pt x="472" y="375" on="0"/>
      </contour>
    </TTGlyph>
    <TTGlyph name="Q" xMin="57" yMin="-150" xMax="567" yMax="705">
      <contour>
        <pt x="251" y="-61" on="1"/>
        <pt x="268" y="-15" on="1"/>
        <pt x="167" y="-2" on="0"/>
        <pt x="57" y="174" on="0"/>
        <pt x="57" y="329" on="1"/>
        <pt x="57" y="420" on="0"/>
        <pt x="95" y="560" on="0"/>
        <pt x="165" y="656" on="0"/>
        <pt x="264" y="705" on="0"/>
        <pt x="325" y="705" on="1"/>
        <pt x="441" y="705" on="0"/>
        <pt x="567" y="528" on="0"/>
        <pt x="567" y="360" on="1"/>
        <pt x="567" y="201" on="0"/>
        <pt x="458" y="13" on="0"/>
        <pt x="361" y="-10" on="1"/>
        <pt x="361" y="-11" on="1"/>
        <pt x="530" y="-73" on="1"/>
        <pt x="503" y="-150" on="1"/>
      </contour>
      <contour>
        <pt x="309" y="627" on="1"/>
        <pt x="231" y="627" on="0"/>
        <pt x="153" y="487" on="0"/>
        <pt x="153" y="349" on="1"/>
        <pt x="153" y="206" on="0"/>
        <pt x="234" y="61" on="0"/>
        <pt x="315" y="61" on="1"/>
        <pt x="393" y="61" on="0"/>
        <pt x="471" y="201" on="0"/>
        <pt x="471" y="339" on="1"/>
        <pt x="471" y="482" on="0"/>
        <pt x="390" y="627" on="0"/>
      </contour>
    </TTGlyph>
    <TTGlyph name="R" xMin="109" yMin="-11" xMax="581" yMax="699">
      <contour>
        <pt x="342" y="255" on="1"/>
        <pt x="202" y="251" on="1"/>
        <pt x="202" y="0" on="1"/>
        <pt x="109" y="0" on="1"/>
        <pt x="109" y="687" on="1"/>
        <pt x="193" y="699" on="0"/>
        <pt x="259" y="699" on="1"/>
        <pt x="335" y="699" on="0"/>
        <pt x="439" y="670" on="0"/>
        <pt x="504" y="617" on="0"/>
        <pt x="533" y="544" on="0"/>
        <pt x="533" y="501" on="1"/>
        <pt x="533" y="434" on="0"/>
        <pt x="467" y="337" on="0"/>
        <pt x="417" y="301" on="1"/>
        <pt x="581" y="4" on="1"/>
        <pt x="481" y="-11" on="1"/>
      </contour>
      <contour>
        <pt x="202" y="319" on="1"/>
        <pt x="352" y="323" on="1"/>
        <pt x="391" y="350" on="0"/>
        <pt x="441" y="428" on="0"/>
        <pt x="441" y="482" on="1"/>
        <pt x="441" y="545" on="0"/>
        <pt x="361" y="621" on="0"/>
        <pt x="273" y="621" on="1"/>
        <pt x="241" y="621" on="0"/>
        <pt x="202" y="615" on="1"/>
      </contour>
    </TTGlyph>
    <TTGlyph name="R_p" xMin="49" yMin="-191" xMax="593" yMax="697">
      <contour>
        <pt x="174" y="257" on="1"/>
        <pt x="124" y="254" on="1"/>
        <pt x="124" y="0" on="1"/>
        <pt x="49" y="0" on="1"/>
        <pt x="49" y="687" on="1"/>
        <pt x="93" y="697" on="0"/>
        <pt x="133" y="697" on="1"/>
        <pt x="178" y="697" on="0"/>
        <pt x="240" y="669" on="0"/>
        <pt x="277" y="618" on="0"/>
        <pt x="294" y="546" on="0"/>
        <pt x="294" y="502" on="1"/>
        <pt x="294" y="435" on="0"/>
        <pt x="263" y="336" on="0"/>
        <pt x="236" y="303" on="1"/>
        <pt x="315" y="7" on="1"/>
        <pt x="240" y="-4" on="1"/>
      </contour>
      <contour>
        <pt x="124" y="319" on="1"/>
        <pt x="185" y="321" on="1"/>
        <pt x="201" y="352" on="0"/>
        <pt x="220" y="436" on="0"/>
        <pt x="220" y="485" on="1"/>
        <pt x="220" y="554" on="0"/>
        <pt x="185" y="624" on="0"/>
        <pt x="146" y="624" on="1"/>
        <pt x="141" y="624" on="0"/>
        <pt x="130" y="624" on="0"/>
        <pt x="124" y="622" on="1"/>
      </contour>
      <contour>
        <pt x="457" y="62" on="1"/>
        <pt x="492" y="62" on="0"/>
        <pt x="520" y="161" on="0"/>
        <pt x="520" y="272" on="1"/>
        <pt x="520" y="382" on="0"/>
        <pt x="495" y="483" on="0"/>
        <pt x="466" y="483" on="1"/>
        <pt x="453" y="483" on="0"/>
        <pt x="429" y="469" on="0"/>
        <pt x="418" y="458" on="1"/>
        <pt x="418" y="423" on="0"/>
        <pt x="419" y="343" on="0"/>
        <pt x="420" y="248" on="0"/>
        <pt x="421" y="137" on="0"/>
        <pt x="421" y="71" on="1"/>
        <pt x="429" y="66" on="0"/>
        <pt x="447" y="62" on="0"/>
      </contour>
      <contour>
        <pt x="346" y="-191" on="1"/>
        <pt x="346" y="-2" on="1"/>
        <pt x="346" y="193" on="0"/>
        <pt x="344" y="455" on="0"/>
        <pt x="342" y="540" on="1"/>
        <pt x="411" y="545" on="1"/>
        <pt x="414" y="508" on="1"/>
        <pt x="429" y="527" on="0"/>
        <pt x="472" y="556" on="0"/>
        <pt x="498" y="556" on="1"/>
        <pt x="548" y="556" on="0"/>
        <pt x="593" y="421" on="0"/>
        <pt x="593" y="301" on="1"/>
        <pt x="593" y="137" on="0"/>
        <pt x="517" y="-13" on="0"/>
        <pt x="447" y="-13" on="1"/>
        <pt x="434" y="-13" on="0"/>
        <pt x="421" y="-10" on="1"/>
        <pt x="421" y="-182" on="1"/>
      </contour>
    </TTGlyph>
    <TTGlyph name="Racute" xMin="109" yMin="-11" xMax="581" yMax="1010">
      <component glyphName="R" x="0" y="0" flags="0x204"/>
      <component glyphName="acute.cap" x="-3" y="153" flags="0x4"/>
    </TTGlyph>
    <TTGlyph name="Rcaron" xMin="109" yMin="-11" xMax="581" yMax="982">
      <component glyphName="caron.cap" x="-5" y="153" flags="0x204"/>
      <component glyphName="R" x="0" y="0" flags="0x4"/>
    </TTGlyph>
    <TTGlyph name="Rcommaaccent" xMin="109" yMin="-318" xMax="581" yMax="699">
      <component glyphName="R" x="0" y="0" flags="0x204"/>
      <component glyphName="commaaccent.cap" x="32" y="-11" flags="0x4"/>
    </TTGlyph>
    <TTGlyph name="S" xMin="101" yMin="-9" xMax="539" yMax="695">
      <contour>
        <pt x="102" y="79" on="1"/>
        <pt x="130" y="77" on="0"/>
        <pt x="179" y="75" on="0"/>
        <pt x="202" y="75" on="1"/>
        <pt x="268" y="75" on="0"/>
        <pt x="359" y="92" on="0"/>
        <pt x="417" y="121" on="0"/>
        <pt x="443" y="159" on="0"/>
        <pt x="443" y="180" on="1"/>
        <pt x="443" y="212" on="0"/>
        <pt x="392" y="263" on="0"/>
        <pt x="316" y="309" on="0"/>
        <pt x="228" y="355" on="0"/>
        <pt x="152" y="407" on="0"/>
        <pt x="101" y="469" on="0"/>
        <pt x="101" y="509" on="1"/>
        <pt x="101" y="543" on="0"/>
        <pt x="138" y="610" on="0"/>
        <pt x="219" y="663" on="0"/>
        <pt x="346" y="695" on="0"/>
        <pt x="436" y="695" on="1"/>
        <pt x="450" y="695" on="0"/>
        <pt x="479" y="694" on="0"/>
        <pt x="494" y="693" on="1"/>
        <pt x="500" y="608" on="1"/>
        <pt x="449" y="611" on="0"/>
        <pt x="409" y="611" on="1"/>
        <pt x="347" y="611" on="0"/>
        <pt x="265" y="597" on="0"/>
        <pt x="217" y="573" on="0"/>
        <pt x="197" y="541" on="0"/>
        <pt x="197" y="523" on="1"/>
        <pt x="197" y="494" on="0"/>
        <pt x="248" y="445" on="0"/>
        <pt x="324" y="399" on="0"/>
        <pt x="412" y="352" on="0"/>
        <pt x="488" y="299" on="0"/>
        <pt x="539" y="234" on="0"/>
        <pt x="539" y="193" on="1"/>
        <pt x="539" y="156" on="0"/>
        <pt x="498" y="84" on="0"/>
        <pt x="409" y="27" on="0"/>
        <pt x="266" y="-9" on="0"/>
        <pt x="164" y="-9" on="1"/>
        <pt x="149" y="-9" on="0"/>
        <pt x="118" y="-8" on="0"/>
        <pt x="101" y="-7" on="1"/>
        <pt x="102" y="79" on="1"/>
      </contour>
    </TTGlyph>
    <TTGlyph name="Sacute" xMin="101" yMin="-9" xMax="539" yMax="1005">
      <component glyphName="S" x="0" y="0" flags="0x204"/>
      <component glyphName="acute.cap" x="29" y="148" flags="0x4"/>
    </TTGlyph>
    <TTGlyph name="Scaron" xMin="101" yMin="-9" xMax="539" yMax="977">
      <component glyphName="S" x="0" y="0" flags="0x204"/>
      <component glyphName="caron.cap" x="26" y="148" flags="0x4"/>
    </TTGlyph>
    <TTGlyph name="Scedilla" xMin="101" yMin="-249" xMax="539" yMax="695">
      <contour>
        <pt x="196" y="-178" on="1"/>
        <pt x="266" y="-167" on="0"/>
        <pt x="326" y="-143" on="0"/>
        <pt x="326" y="-125" on="1"/>
        <pt x="326" y="-107" on="0"/>
        <pt x="277" y="-58" on="0"/>
        <pt x="222" y="-26" on="1"/>
        <pt x="232" y="-6" on="1"/>
        <pt x="197" y="-9" on="0"/>
        <pt x="159" y="-9" on="1"/>
        <pt x="145" y="-9" on="0"/>
        <pt x="116" y="-8" on="0"/>
        <pt x="101" y="-7" on="1"/>
        <pt x="102" y="79" on="1"/>
        <pt x="130" y="77" on="0"/>
        <pt x="179" y="75" on="0"/>
        <pt x="202" y="75" on="1"/>
        <pt x="268" y="75" on="0"/>
        <pt x="359" y="92" on="0"/>
        <pt x="417" y="121" on="0"/>
        <pt x="443" y="159" on="0"/>
        <pt x="443" y="180" on="1"/>
        <pt x="443" y="212" on="0"/>
        <pt x="392" y="263" on="0"/>
        <pt x="316" y="309" on="0"/>
        <pt x="228" y="355" on="0"/>
        <pt x="152" y="407" on="0"/>
        <pt x="101" y="469" on="0"/>
        <pt x="101" y="509" on="1"/>
        <pt x="101" y="543" on="0"/>
        <pt x="138" y="610" on="0"/>
        <pt x="219" y="663" on="0"/>
        <pt x="346" y="695" on="0"/>
        <pt x="436" y="695" on="1"/>
        <pt x="450" y="695" on="0"/>
        <pt x="479" y="694" on="0"/>
        <pt x="494" y="693" on="1"/>
        <pt x="500" y="608" on="1"/>
        <pt x="449" y="611" on="0"/>
        <pt x="409" y="611" on="1"/>
        <pt x="347" y="611" on="0"/>
        <pt x="265" y="597" on="0"/>
        <pt x="217" y="573" on="0"/>
        <pt x="197" y="541" on="0"/>
        <pt x="197" y="523" on="1"/>
        <pt x="197" y="494" on="0"/>
        <pt x="248" y="445" on="0"/>
        <pt x="324" y="399" on="0"/>
        <pt x="412" y="352" on="0"/>
        <pt x="488" y="299" on="0"/>
        <pt x="539" y="234" on="0"/>
        <pt x="539" y="193" on="1"/>
        <pt x="539" y="163" on="0"/>
        <pt x="511" y="102" on="0"/>
        <pt x="450" y="50" on="0"/>
        <pt x="354" y="10" on="0"/>
        <pt x="287" y="0" on="1"/>
        <pt x="350" y="-36" on="0"/>
        <pt x="407" y="-103" on="0"/>
        <pt x="407" y="-134" on="1"/>
        <pt x="407" y="-176" on="0"/>
        <pt x="306" y="-237" on="0"/>
        <pt x="203" y="-249" on="1"/>
      </contour>
    </TTGlyph>
    <TTGlyph name="Scommaaccent" xMin="101" yMin="-319" xMax="539" yMax="695">
      <component glyphName="S" x="0" y="0" flags="0x204"/>
      <component glyphName="commaaccent.cap" x="3" y="-12" flags="0x4"/>
    </TTGlyph>
    <TTGlyph name="T" xMin="51" yMin="0" xMax="572" yMax="688">
      <contour>
        <pt x="360" y="0" on="1"/>
        <pt x="266" y="0" on="1"/>
        <pt x="266" y="609" on="1"/>
        <pt x="51" y="609" on="1"/>
        <pt x="58" y="688" on="1"/>
        <pt x="572" y="688" on="1"/>
        <pt x="572" y="609" on="1"/>
        <pt x="360" y="609" on="1"/>
      </contour>
    </TTGlyph>
    <TTGlyph name="Tcaron" xMin="51" yMin="0" xMax="572" yMax="973">
      <component glyphName="caron.cap" x="4" y="144" flags="0x204"/>
      <component glyphName="T" x="0" y="0" flags="0x4"/>
    </TTGlyph>
    <TTGlyph name="Tcommaaccent" xMin="51" yMin="-307" xMax="572" yMax="688">
      <component glyphName="T" x="0" y="0" flags="0x204"/>
      <component glyphName="commaaccent.cap" x="3" y="0" flags="0x4"/>
    </TTGlyph>
    <TTGlyph name="Thorn" xMin="116" yMin="0" xMax="567" yMax="688">
      <contour>
        <pt x="116" y="0" on="1"/>
        <pt x="116" y="688" on="1"/>
        <pt x="210" y="688" on="1"/>
        <pt x="210" y="579" on="1"/>
        <pt x="226" y="581" on="0"/>
        <pt x="257" y="581" on="0"/>
        <pt x="272" y="581" on="1"/>
        <pt x="418" y="581" on="0"/>
        <pt x="567" y="469" on="0"/>
        <pt x="567" y="366" on="1"/>
        <pt x="567" y="306" on="0"/>
        <pt x="515" y="216" on="0"/>
        <pt x="421" y="155" on="0"/>
        <pt x="290" y="121" on="0"/>
        <pt x="210" y="115" on="1"/>
        <pt x="210" y="0" on="1"/>
      </contour>
      <contour>
        <pt x="474" y="348" on="1"/>
        <pt x="474" y="422" on="0"/>
        <pt x="375" y="503" on="0"/>
        <pt x="275" y="503" on="1"/>
        <pt x="260" y="503" on="0"/>
        <pt x="227" y="501" on="0"/>
        <pt x="210" y="499" on="1"/>
        <pt x="210" y="198" on="1"/>
        <pt x="223" y="197" on="0"/>
        <pt x="248" y="196" on="0"/>
        <pt x="260" y="196" on="1"/>
        <pt x="364" y="196" on="0"/>
        <pt x="474" y="267" on="0"/>
      </contour>
    </TTGlyph>
    <TTGlyph name="U" xMin="90" yMin="-17" xMax="534" yMax="688">
      <contour>
        <pt x="307" y="-17" on="1"/>
        <pt x="205" y="-17" on="0"/>
        <pt x="90" y="106" on="0"/>
        <pt x="90" y="222" on="1"/>
        <pt x="90" y="688" on="1"/>
        <pt x="184" y="688" on="1"/>
        <pt x="184" y="229" on="1"/>
        <pt x="184" y="144" on="0"/>
        <pt x="254" y="64" on="0"/>
        <pt x="315" y="64" on="1"/>
        <pt x="379" y="64" on="0"/>
        <pt x="440" y="134" on="0"/>
        <pt x="440" y="212" on="1"/>
        <pt x="440" y="688" on="1"/>
        <pt x="534" y="688" on="1"/>
        <pt x="534" y="227" on="1"/>
        <pt x="534" y="110" on="0"/>
        <pt x="413" y="-17" on="0"/>
      </contour>
    </TTGlyph>
    <TTGlyph name="Uacute" xMin="90" yMin="-17" xMax="534" yMax="1001">
      <component glyphName="acute.cap" x="9" y="144" flags="0x204"/>
      <component glyphName="U" x="0" y="0" flags="0x4"/>
    </TTGlyph>
    <TTGlyph name="Ubreve" xMin="90" yMin="-17" xMax="534" yMax="968">
      <component glyphName="breve.cap" x="2" y="144" flags="0x204"/>
      <component glyphName="U" x="0" y="0" flags="0x4"/>
    </TTGlyph>
    <TTGlyph name="Ucircumflex" xMin="90" yMin="-17" xMax="534" yMax="980">
      <component glyphName="U" x="0" y="0" flags="0x204"/>
      <component glyphName="circumflex.cap" x="0" y="144" flags="0x4"/>
    </TTGlyph>
    <TTGlyph name="Udieresis" xMin="90" yMin="-17" xMax="534" yMax="927">
      <component glyphName="dieresis.cap" x="0" y="144" flags="0x204"/>
      <component glyphName="U" x="0" y="0" flags="0x4"/>
    </TTGlyph>
    <TTGlyph name="Ugrave" xMin="90" yMin="-17" xMax="534" yMax="997">
      <component glyphName="grave.cap" x="-21" y="144" flags="0x204"/>
      <component glyphName="U" x="0" y="0" flags="0x4"/>
    </TTGlyph>
    <TTGlyph name="Uhungarumlaut" xMin="90" yMin="-17" xMax="587" yMax="1015">
      <component glyphName="U" x="0" y="0" flags="0x204"/>
      <component glyphName="hungarumlaut.cap" x="-1" y="144" flags="0x4"/>
    </TTGlyph>
    <TTGlyph name="Umacron" xMin="90" yMin="-17" xMax="534" yMax="893">
      <component glyphName="macron.cap" x="0" y="144" flags="0x204"/>
      <component glyphName="U" x="0" y="0" flags="0x4"/>
    </TTGlyph>
    <TTGlyph name="Uogonek" xMin="90" yMin="-240" xMax="534" yMax="688">
      <contour>
        <pt x="413" y="-240" on="1"/>
        <pt x="357" y="-236" on="0"/>
        <pt x="278" y="-217" on="0"/>
        <pt x="229" y="-190" on="0"/>
        <pt x="207" y="-156" on="0"/>
        <pt x="207" y="-136" on="1"/>
        <pt x="207" y="-107" on="0"/>
        <pt x="247" y="-50" on="0"/>
        <pt x="299" y="-18" on="1"/>
        <pt x="198" y="-13" on="0"/>
        <pt x="90" y="110" on="0"/>
        <pt x="90" y="222" on="1"/>
        <pt x="90" y="688" on="1"/>
        <pt x="184" y="688" on="1"/>
        <pt x="184" y="229" on="1"/>
        <pt x="184" y="144" on="0"/>
        <pt x="254" y="64" on="0"/>
        <pt x="315" y="64" on="1"/>
        <pt x="379" y="64" on="0"/>
        <pt x="440" y="134" on="0"/>
        <pt x="440" y="212" on="1"/>
        <pt x="440" y="688" on="1"/>
        <pt x="534" y="688" on="1"/>
        <pt x="534" y="227" on="1"/>
        <pt x="534" y="148" on="0"/>
        <pt x="482" y="48" on="0"/>
        <pt x="422" y="10" on="1"/>
        <pt x="386" y="-13" on="0"/>
        <pt x="337" y="-48" on="0"/>
        <pt x="306" y="-76" on="0"/>
        <pt x="292" y="-99" on="0"/>
        <pt x="292" y="-111" on="1"/>
        <pt x="292" y="-132" on="0"/>
        <pt x="350" y="-159" on="0"/>
        <pt x="422" y="-167" on="1"/>
        <pt x="413" y="-240" on="1"/>
      </contour>
    </TTGlyph>
    <TTGlyph name="Uring" xMin="90" yMin="-17" xMax="534" yMax="987">
      <component glyphName="U" x="0" y="0" flags="0x204"/>
      <component glyphName="ring.cap" x="-10" y="144" flags="0x4"/>
    </TTGlyph>
    <TTGlyph name="V" xMin="49" yMin="-1" xMax="575" yMax="692">
      <contour>
        <pt x="246" y="-1" on="1"/>
        <pt x="192" y="173" on="0"/>
        <pt x="95" y="511" on="0"/>
        <pt x="49" y="685" on="1"/>
        <pt x="144" y="692" on="1"/>
        <pt x="183" y="540" on="0"/>
        <pt x="265" y="235" on="0"/>
        <pt x="309" y="83" on="1"/>
        <pt x="319" y="83" on="1"/>
        <pt x="363" y="235" on="0"/>
        <pt x="445" y="536" on="0"/>
        <pt x="483" y="688" on="1"/>
        <pt x="575" y="688" on="1"/>
        <pt x="530" y="515" on="0"/>
        <pt x="433" y="173" on="0"/>
        <pt x="379" y="-1" on="1"/>
      </contour>
    </TTGlyph>
    <TTGlyph name="W" xMin="63" yMin="0" xMax="562" yMax="688">
      <contour>
        <pt x="311" y="363" on="1"/>
        <pt x="214" y="0" on="1"/>
        <pt x="117" y="0" on="1"/>
        <pt x="111" y="49" on="0"/>
        <pt x="96" y="193" on="0"/>
        <pt x="82" y="371" on="0"/>
        <pt x="69" y="577" on="0"/>
        <pt x="63" y="688" on="1"/>
        <pt x="155" y="688" on="1"/>
        <pt x="156" y="654" on="0"/>
        <pt x="161" y="553" on="0"/>
        <pt x="167" y="437" on="0"/>
        <pt x="174" y="318" on="0"/>
        <pt x="180" y="214" on="0"/>
        <pt x="185" y="136" on="0"/>
        <pt x="187" y="119" on="1"/>
        <pt x="192" y="119" on="1"/>
        <pt x="219" y="220" on="0"/>
        <pt x="263" y="394" on="0"/>
        <pt x="287" y="484" on="1"/>
        <pt x="342" y="484" on="1"/>
        <pt x="366" y="393" on="0"/>
        <pt x="416" y="211" on="0"/>
        <pt x="441" y="119" on="1"/>
        <pt x="445" y="119" on="1"/>
        <pt x="447" y="136" on="0"/>
        <pt x="452" y="214" on="0"/>
        <pt x="457" y="318" on="0"/>
        <pt x="463" y="437" on="0"/>
        <pt x="469" y="553" on="0"/>
        <pt x="473" y="654" on="0"/>
        <pt x="475" y="688" on="1"/>
        <pt x="562" y="688" on="1"/>
        <pt x="557" y="577" on="0"/>
        <pt x="543" y="371" on="0"/>
        <pt x="528" y="193" on="0"/>
        <pt x="514" y="49" on="0"/>
        <pt x="508" y="0" on="1"/>
        <pt x="411" y="0" on="1"/>
      </contour>
    </TTGlyph>
    <TTGlyph name="Wacute" xMin="63" yMin="0" xMax="562" yMax="1001">
      <component glyphName="acute.cap" x="13" y="144" flags="0x204"/>
      <component glyphName="W" x="0" y="0" flags="0x4"/>
    </TTGlyph>
    <TTGlyph name="Wcircumflex" xMin="63" yMin="0" xMax="562" yMax="980">
      <component glyphName="W" x="0" y="0" flags="0x204"/>
      <component glyphName="circumflex.cap" x="4" y="144" flags="0x4"/>
    </TTGlyph>
    <TTGlyph name="Wdieresis" xMin="63" yMin="0" xMax="562" yMax="927">
      <component glyphName="dieresis.cap" x="4" y="144" flags="0x204"/>
      <component glyphName="W" x="0" y="0" flags="0x4"/>
    </TTGlyph>
    <TTGlyph name="Wgrave" xMin="63" yMin="0" xMax="562" yMax="997">
      <component glyphName="grave.cap" x="-17" y="144" flags="0x204"/>
      <component glyphName="W" x="0" y="0" flags="0x4"/>
    </TTGlyph>
    <TTGlyph name="X" xMin="51" yMin="-3" xMax="577" yMax="692">
      <contour>
        <pt x="310" y="280" on="1"/>
        <pt x="151" y="0" on="1"/>
        <pt x="52" y="0" on="1"/>
        <pt x="255" y="344" on="1"/>
        <pt x="51" y="685" on="1"/>
        <pt x="153" y="692" on="1"/>
        <pt x="318" y="407" on="1"/>
        <pt x="476" y="688" on="1"/>
        <pt x="577" y="688" on="1"/>
        <pt x="372" y="344" on="1"/>
        <pt x="576" y="3" on="1"/>
        <pt x="474" y="-3" on="1"/>
      </contour>
    </TTGlyph>
    <TTGlyph name="Y" xMin="43" yMin="0" xMax="582" yMax="690">
      <contour>
        <pt x="266" y="0" on="1"/>
        <pt x="266" y="228" on="1"/>
        <pt x="43" y="686" on="1"/>
        <pt x="143" y="690" on="1"/>
        <pt x="316" y="317" on="1"/>
        <pt x="485" y="688" on="1"/>
        <pt x="582" y="688" on="1"/>
        <pt x="360" y="229" on="1"/>
        <pt x="360" y="0" on="1"/>
      </contour>
    </TTGlyph>
    <TTGlyph name="Yacute" xMin="43" yMin="0" xMax="582" yMax="1003">
      <component glyphName="Y" x="0" y="0" flags="0x204"/>
      <component glyphName="acute.cap" x="12" y="146" flags="0x4"/>
    </TTGlyph>
    <TTGlyph name="Ycircumflex" xMin="43" yMin="0" xMax="582" yMax="982">
      <component glyphName="Y" x="0" y="0" flags="0x204"/>
      <component glyphName="circumflex.cap" x="3" y="146" flags="0x4"/>
    </TTGlyph>
    <TTGlyph name="Ydieresis" xMin="43" yMin="0" xMax="582" yMax="929">
      <component glyphName="Y" x="0" y="0" flags="0x204"/>
      <component glyphName="dieresis.cap" x="3" y="146" flags="0x4"/>
    </TTGlyph>
    <TTGlyph name="Ygrave" xMin="43" yMin="0" xMax="582" yMax="999">
      <component glyphName="Y" x="0" y="0" flags="0x204"/>
      <component glyphName="grave.cap" x="-18" y="146" flags="0x4"/>
    </TTGlyph>
    <TTGlyph name="Z" xMin="81" yMin="0" xMax="548" yMax="688">
      <contour>
        <pt x="81" y="0" on="1"/>
        <pt x="81" y="80" on="1"/>
        <pt x="442" y="608" on="1"/>
        <pt x="85" y="606" on="1"/>
        <pt x="93" y="688" on="1"/>
        <pt x="541" y="688" on="1"/>
        <pt x="541" y="608" on="1"/>
        <pt x="183" y="80" on="1"/>
        <pt x="548" y="82" on="1"/>
        <pt x="541" y="0" on="1"/>
      </contour>
    </TTGlyph>
    <TTGlyph name="Zacute" xMin="81" yMin="0" xMax="548" yMax="1001">
      <component glyphName="Z" x="0" y="0" flags="0x204"/>
      <component glyphName="acute.cap" x="22" y="144" flags="0x4"/>
    </TTGlyph>
    <TTGlyph name="Zcaron" xMin="81" yMin="0" xMax="548" yMax="973">
      <component glyphName="caron.cap" x="20" y="144" flags="0x204"/>
      <component glyphName="Z" x="0" y="0" flags="0x4"/>
    </TTGlyph>
    <TTGlyph name="Zdotaccent" xMin="81" yMin="0" xMax="548" yMax="927">
      <component glyphName="dotaccent.cap" x="16" y="144" flags="0x204"/>
      <component glyphName="Z" x="0" y="0" flags="0x4"/>
    </TTGlyph>
    <TTGlyph name="a" xMin="81" yMin="-14" xMax="531" yMax="554">
      <contour>
        <pt x="282" y="59" on="1"/>
        <pt x="324" y="59" on="0"/>
        <pt x="404" y="92" on="0"/>
        <pt x="436" y="116" on="1"/>
        <pt x="434" y="143" on="0"/>
        <pt x="433" y="205" on="0"/>
        <pt x="433" y="245" on="1"/>
        <pt x="407" y="248" on="0"/>
        <pt x="363" y="250" on="0"/>
        <pt x="343" y="250" on="1"/>
        <pt x="247" y="250" on="0"/>
        <pt x="171" y="195" on="0"/>
        <pt x="171" y="149" on="1"/>
        <pt x="171" y="105" on="0"/>
        <pt x="231" y="59" on="0"/>
      </contour>
      <contour>
        <pt x="448" y="-3" on="1"/>
        <pt x="447" y="5" on="0"/>
        <pt x="442" y="48" on="0"/>
        <pt x="440" y="66" on="1"/>
        <pt x="408" y="35" on="0"/>
        <pt x="311" y="-14" on="0"/>
        <pt x="247" y="-14" on="1"/>
        <pt x="173" y="-14" on="0"/>
        <pt x="81" y="61" on="0"/>
        <pt x="81" y="127" on="1"/>
        <pt x="81" y="166" on="0"/>
        <pt x="117" y="234" on="0"/>
        <pt x="192" y="283" on="0"/>
        <pt x="305" y="312" on="0"/>
        <pt x="382" y="312" on="1"/>
        <pt x="394" y="312" on="0"/>
        <pt x="419" y="312" on="0"/>
        <pt x="432" y="311" on="1"/>
        <pt x="429" y="357" on="0"/>
        <pt x="398" y="418" on="0"/>
        <pt x="325" y="455" on="0"/>
        <pt x="205" y="473" on="0"/>
        <pt x="114" y="476" on="1"/>
        <pt x="123" y="554" on="1"/>
        <pt x="241" y="551" on="0"/>
        <pt x="396" y="520" on="0"/>
        <pt x="487" y="454" on="0"/>
        <pt x="523" y="348" on="0"/>
        <pt x="523" y="270" on="1"/>
        <pt x="523" y="185" on="0"/>
        <pt x="528" y="60" on="0"/>
        <pt x="531" y="2" on="1"/>
      </contour>
    </TTGlyph>
    <TTGlyph name="aacute" xMin="81" yMin="-14" xMax="531" yMax="861">
      <component glyphName="a" x="0" y="0" flags="0x204"/>
      <component glyphName="acute" x="7" y="4" flags="0x4"/>
    </TTGlyph>
    <TTGlyph name="abreve" xMin="81" yMin="-14" xMax="531" yMax="828">
      <component glyphName="a" x="0" y="0" flags="0x204"/>
      <component glyphName="breve" x="1" y="4" flags="0x4"/>
    </TTGlyph>
    <TTGlyph name="acircumflex" xMin="81" yMin="-14" xMax="531" yMax="840">
      <component glyphName="a" x="0" y="0" flags="0x204"/>
      <component glyphName="circumflex" x="-2" y="4" flags="0x4"/>
    </TTGlyph>
    <TTGlyph name="acute" xMin="187" yMin="619" xMax="473" yMax="857">
      <contour>
        <pt x="187" y="660" on="1"/>
        <pt x="211" y="676" on="0"/>
        <pt x="268" y="724" on="0"/>
        <pt x="327" y="778" on="0"/>
        <pt x="381" y="833" on="0"/>
        <pt x="401" y="857" on="1"/>
        <pt x="473" y="787" on="1"/>
        <pt x="448" y="765" on="0"/>
        <pt x="382" y="717" on="0"/>
        <pt x="311" y="672" on="0"/>
        <pt x="240" y="633" on="0"/>
        <pt x="212" y="619" on="1"/>
        <pt x="187" y="660" on="1"/>
      </contour>
    </TTGlyph>
    <TTGlyph name="acute.cap" xMin="187" yMin="619" xMax="473" yMax="857">
      <contour>
        <pt x="187" y="660" on="1"/>
        <pt x="211" y="676" on="0"/>
        <pt x="268" y="724" on="0"/>
        <pt x="327" y="778" on="0"/>
        <pt x="381" y="833" on="0"/>
        <pt x="401" y="857" on="1"/>
        <pt x="473" y="787" on="1"/>
        <pt x="448" y="765" on="0"/>
        <pt x="382" y="717" on="0"/>
        <pt x="311" y="672" on="0"/>
        <pt x="240" y="633" on="0"/>
        <pt x="212" y="619" on="1"/>
        <pt x="187" y="660" on="1"/>
      </contour>
    </TTGlyph>
    <TTGlyph name="adieresis" xMin="81" yMin="-14" xMax="531" yMax="787">
      <component glyphName="a" x="0" y="0" flags="0x204"/>
      <component glyphName="dieresis" x="-2" y="4" flags="0x4"/>
    </TTGlyph>
    <TTGlyph name="ae" xMin="45" yMin="-8" xMax="578" yMax="551">
      <contour>
        <pt x="424" y="475" on="1"/>
        <pt x="386" y="475" on="0"/>
        <pt x="346" y="394" on="0"/>
        <pt x="344" y="305" on="1"/>
        <pt x="493" y="308" on="1"/>
        <pt x="494" y="391" on="0"/>
        <pt x="462" y="475" on="0"/>
      </contour>
      <contour>
        <pt x="266" y="247" on="1"/>
        <pt x="196" y="248" on="0"/>
        <pt x="130" y="201" on="0"/>
        <pt x="130" y="150" on="1"/>
        <pt x="130" y="107" on="0"/>
        <pt x="166" y="66" on="0"/>
        <pt x="195" y="66" on="1"/>
        <pt x="222" y="66" on="0"/>
        <pt x="266" y="96" on="0"/>
        <pt x="282" y="122" on="1"/>
        <pt x="273" y="149" on="0"/>
        <pt x="266" y="212" on="0"/>
      </contour>
      <contour>
        <pt x="559" y="-7" on="1"/>
        <pt x="455" y="-6" on="0"/>
        <pt x="335" y="36" on="0"/>
        <pt x="306" y="77" on="1"/>
        <pt x="283" y="43" on="0"/>
        <pt x="211" y="-8" on="0"/>
        <pt x="163" y="-8" on="1"/>
        <pt x="110" y="-8" on="0"/>
        <pt x="45" y="63" on="0"/>
        <pt x="45" y="129" on="1"/>
        <pt x="45" y="212" on="0"/>
        <pt x="154" y="302" on="0"/>
        <pt x="266" y="306" on="1"/>
        <pt x="265" y="354" on="0"/>
        <pt x="248" y="415" on="0"/>
        <pt x="204" y="451" on="0"/>
        <pt x="127" y="468" on="0"/>
        <pt x="67" y="471" on="1"/>
        <pt x="75" y="549" on="1"/>
        <pt x="173" y="544" on="0"/>
        <pt x="280" y="504" on="0"/>
        <pt x="304" y="456" on="1"/>
        <pt x="325" y="502" on="0"/>
        <pt x="392" y="551" on="0"/>
        <pt x="437" y="551" on="1"/>
        <pt x="506" y="551" on="0"/>
        <pt x="578" y="425" on="0"/>
        <pt x="578" y="310" on="1"/>
        <pt x="578" y="296" on="0"/>
        <pt x="577" y="268" on="0"/>
        <pt x="576" y="254" on="1"/>
        <pt x="344" y="248" on="1"/>
        <pt x="344" y="201" on="0"/>
        <pt x="362" y="134" on="0"/>
        <pt x="411" y="91" on="0"/>
        <pt x="498" y="70" on="0"/>
        <pt x="567" y="69" on="1"/>
      </contour>
    </TTGlyph>
    <TTGlyph name="aeacute" xMin="45" yMin="-8" xMax="578" yMax="857">
      <component glyphName="acute" x="9" y="0" flags="0x204"/>
      <component glyphName="ae" x="0" y="0" flags="0x4"/>
    </TTGlyph>
    <TTGlyph name="agrave" xMin="81" yMin="-14" xMax="531" yMax="857">
      <component glyphName="a" x="0" y="0" flags="0x204"/>
      <component glyphName="grave" x="-22" y="4" flags="0x4"/>
    </TTGlyph>
    <TTGlyph name="amacron" xMin="81" yMin="-14" xMax="531" yMax="753">
      <component glyphName="a" x="0" y="0" flags="0x204"/>
      <component glyphName="macron" x="-2" y="4" flags="0x4"/>
    </TTGlyph>
    <TTGlyph name="ampersand" xMin="48" yMin="-15" xMax="581" yMax="701">
      <contour>
        <pt x="508" y="-15" on="1"/>
        <pt x="453" y="55" on="0"/>
        <pt x="408" y="109" on="1"/>
        <pt x="364" y="45" on="0"/>
        <pt x="262" y="-13" on="0"/>
        <pt x="209" y="-13" on="1"/>
        <pt x="170" y="-13" on="0"/>
        <pt x="109" y="11" on="0"/>
        <pt x="69" y="54" on="0"/>
        <pt x="48" y="111" on="0"/>
        <pt x="48" y="144" on="1"/>
        <pt x="48" y="266" on="0"/>
        <pt x="197" y="360" on="1"/>
        <pt x="164" y="404" on="0"/>
        <pt x="130" y="474" on="0"/>
        <pt x="130" y="509" on="1"/>
        <pt x="130" y="544" on="0"/>
        <pt x="159" y="613" on="0"/>
        <pt x="228" y="667" on="0"/>
        <pt x="342" y="701" on="0"/>
        <pt x="426" y="701" on="1"/>
        <pt x="440" y="701" on="1"/>
        <pt x="446" y="617" on="1"/>
        <pt x="436" y="618" on="0"/>
        <pt x="418" y="618" on="0"/>
        <pt x="410" y="618" on="1"/>
        <pt x="354" y="618" on="0"/>
        <pt x="280" y="602" on="0"/>
        <pt x="237" y="573" on="0"/>
        <pt x="220" y="536" on="0"/>
        <pt x="220" y="515" on="1"/>
        <pt x="220" y="493" on="0"/>
        <pt x="243" y="445" on="0"/>
        <pt x="290" y="382" on="0"/>
        <pt x="362" y="299" on="0"/>
        <pt x="412" y="242" on="1"/>
        <pt x="432" y="287" on="0"/>
        <pt x="464" y="392" on="0"/>
        <pt x="476" y="449" on="1"/>
        <pt x="555" y="440" on="1"/>
        <pt x="536" y="366" on="0"/>
        <pt x="486" y="237" on="0"/>
        <pt x="458" y="188" on="1"/>
        <pt x="486" y="156" on="0"/>
        <pt x="547" y="85" on="0"/>
        <pt x="581" y="43" on="1"/>
      </contour>
      <contour>
        <pt x="228" y="62" on="1"/>
        <pt x="263" y="62" on="0"/>
        <pt x="333" y="109" on="0"/>
        <pt x="365" y="160" on="1"/>
        <pt x="324" y="208" on="0"/>
        <pt x="258" y="284" on="0"/>
        <pt x="231" y="316" on="1"/>
        <pt x="183" y="281" on="0"/>
        <pt x="136" y="202" on="0"/>
        <pt x="136" y="163" on="1"/>
        <pt x="136" y="119" on="0"/>
        <pt x="182" y="62" on="0"/>
      </contour>
    </TTGlyph>
    <TTGlyph name="aogonek" xMin="81" yMin="-238" xMax="531" yMax="554">
      <contour>
        <pt x="506" y="-238" on="1"/>
        <pt x="450" y="-234" on="0"/>
        <pt x="371" y="-215" on="0"/>
        <pt x="322" y="-188" on="0"/>
        <pt x="300" y="-154" on="0"/>
        <pt x="300" y="-134" on="1"/>
        <pt x="300" y="-101" on="0"/>
        <pt x="367" y="-31" on="0"/>
        <pt x="447" y="11" on="1"/>
        <pt x="445" y="27" on="0"/>
        <pt x="440" y="76" on="0"/>
        <pt x="438" y="93" on="1"/>
        <pt x="421" y="72" on="0"/>
        <pt x="378" y="34" on="0"/>
        <pt x="328" y="4" on="0"/>
        <pt x="271" y="-14" on="0"/>
        <pt x="240" y="-14" on="1"/>
        <pt x="169" y="-14" on="0"/>
        <pt x="81" y="61" on="0"/>
        <pt x="81" y="127" on="1"/>
        <pt x="81" y="166" on="0"/>
        <pt x="117" y="234" on="0"/>
        <pt x="192" y="283" on="0"/>
        <pt x="305" y="312" on="0"/>
        <pt x="382" y="312" on="1"/>
        <pt x="394" y="312" on="0"/>
        <pt x="419" y="312" on="0"/>
        <pt x="432" y="311" on="1"/>
        <pt x="429" y="357" on="0"/>
        <pt x="398" y="418" on="0"/>
        <pt x="325" y="455" on="0"/>
        <pt x="205" y="473" on="0"/>
        <pt x="114" y="476" on="1"/>
        <pt x="123" y="554" on="1"/>
        <pt x="241" y="551" on="0"/>
        <pt x="396" y="520" on="0"/>
        <pt x="487" y="454" on="0"/>
        <pt x="523" y="348" on="0"/>
        <pt x="523" y="270" on="1"/>
        <pt x="523" y="185" on="0"/>
        <pt x="528" y="60" on="0"/>
        <pt x="531" y="2" on="1"/>
        <pt x="488" y="-18" on="0"/>
        <pt x="432" y="-51" on="0"/>
        <pt x="399" y="-78" on="0"/>
        <pt x="385" y="-101" on="0"/>
        <pt x="385" y="-111" on="1"/>
        <pt x="385" y="-131" on="0"/>
        <pt x="444" y="-157" on="0"/>
        <pt x="515" y="-165" on="1"/>
      </contour>
      <contour>
        <pt x="275" y="59" on="1"/>
        <pt x="318" y="59" on="0"/>
        <pt x="403" y="107" on="0"/>
        <pt x="435" y="143" on="1"/>
        <pt x="434" y="166" on="0"/>
        <pt x="433" y="212" on="0"/>
        <pt x="433" y="245" on="1"/>
        <pt x="407" y="248" on="0"/>
        <pt x="363" y="250" on="0"/>
        <pt x="343" y="250" on="1"/>
        <pt x="247" y="250" on="0"/>
        <pt x="171" y="195" on="0"/>
        <pt x="171" y="149" on="1"/>
        <pt x="171" y="105" on="0"/>
        <pt x="227" y="59" on="0"/>
      </contour>
    </TTGlyph>
    <TTGlyph name="approxequal" xMin="67" yMin="110" xMax="553" yMax="543">
      <contour>
        <pt x="409" y="348" on="1"/>
        <pt x="376" y="348" on="0"/>
        <pt x="322" y="385" on="0"/>
        <pt x="274" y="429" on="0"/>
        <pt x="232" y="466" on="0"/>
        <pt x="211" y="466" on="1"/>
        <pt x="187" y="466" on="0"/>
        <pt x="145" y="399" on="0"/>
        <pt x="122" y="348" on="1"/>
        <pt x="67" y="371" on="1"/>
        <pt x="99" y="456" on="0"/>
        <pt x="170" y="543" on="0"/>
        <pt x="219" y="543" on="1"/>
        <pt x="252" y="543" on="0"/>
        <pt x="305" y="506" on="0"/>
        <pt x="351" y="461" on="0"/>
        <pt x="391" y="424" on="0"/>
        <pt x="411" y="424" on="1"/>
        <pt x="435" y="424" on="0"/>
        <pt x="475" y="488" on="0"/>
        <pt x="496" y="537" on="1"/>
        <pt x="553" y="514" on="1"/>
        <pt x="521" y="430" on="0"/>
        <pt x="457" y="348" on="0"/>
      </contour>
      <contour>
        <pt x="409" y="110" on="1"/>
        <pt x="376" y="110" on="0"/>
        <pt x="322" y="147" on="0"/>
        <pt x="275" y="192" on="0"/>
        <pt x="233" y="230" on="0"/>
        <pt x="212" y="230" on="1"/>
        <pt x="187" y="230" on="0"/>
        <pt x="146" y="163" on="0"/>
        <pt x="123" y="112" on="1"/>
        <pt x="67" y="135" on="1"/>
        <pt x="99" y="220" on="0"/>
        <pt x="170" y="306" on="0"/>
        <pt x="219" y="306" on="1"/>
        <pt x="252" y="306" on="0"/>
        <pt x="305" y="269" on="0"/>
        <pt x="351" y="224" on="0"/>
        <pt x="391" y="187" on="0"/>
        <pt x="411" y="187" on="1"/>
        <pt x="436" y="187" on="0"/>
        <pt x="476" y="251" on="0"/>
        <pt x="497" y="301" on="1"/>
        <pt x="553" y="278" on="1"/>
        <pt x="521" y="193" on="0"/>
        <pt x="457" y="110" on="0"/>
      </contour>
    </TTGlyph>
    <TTGlyph name="aring" xMin="81" yMin="-14" xMax="531" yMax="847">
      <component glyphName="a" x="0" y="0" flags="0x204"/>
      <component glyphName="ring" x="-12" y="4" flags="0x4"/>
    </TTGlyph>
    <TTGlyph name="aringacute" xMin="81" yMin="-14" xMax="531" yMax="1133">
      <contour>
        <pt x="282" y="59" on="1"/>
        <pt x="324" y="59" on="0"/>
        <pt x="404" y="92" on="0"/>
        <pt x="436" y="116" on="1"/>
        <pt x="434" y="143" on="0"/>
        <pt x="433" y="205" on="0"/>
        <pt x="433" y="245" on="1"/>
        <pt x="407" y="248" on="0"/>
        <pt x="363" y="250" on="0"/>
        <pt x="343" y="250" on="1"/>
        <pt x="247" y="250" on="0"/>
        <pt x="171" y="195" on="0"/>
        <pt x="171" y="149" on="1"/>
        <pt x="171" y="105" on="0"/>
        <pt x="231" y="59" on="0"/>
      </contour>
      <contour>
        <pt x="448" y="-3" on="1"/>
        <pt x="447" y="5" on="0"/>
        <pt x="442" y="48" on="0"/>
        <pt x="440" y="66" on="1"/>
        <pt x="408" y="35" on="0"/>
        <pt x="311" y="-14" on="0"/>
        <pt x="247" y="-14" on="1"/>
        <pt x="173" y="-14" on="0"/>
        <pt x="81" y="61" on="0"/>
        <pt x="81" y="127" on="1"/>
        <pt x="81" y="166" on="0"/>
        <pt x="117" y="234" on="0"/>
        <pt x="192" y="283" on="0"/>
        <pt x="305" y="312" on="0"/>
        <pt x="382" y="312" on="1"/>
        <pt x="394" y="312" on="0"/>
        <pt x="419" y="312" on="0"/>
        <pt x="432" y="311" on="1"/>
        <pt x="429" y="357" on="0"/>
        <pt x="398" y="418" on="0"/>
        <pt x="325" y="455" on="0"/>
        <pt x="205" y="473" on="0"/>
        <pt x="114" y="476" on="1"/>
        <pt x="123" y="554" on="1"/>
        <pt x="241" y="551" on="0"/>
        <pt x="396" y="520" on="0"/>
        <pt x="487" y="454" on="0"/>
        <pt x="523" y="348" on="0"/>
        <pt x="523" y="270" on="1"/>
        <pt x="523" y="185" on="0"/>
        <pt x="528" y="60" on="0"/>
        <pt x="531" y="2" on="1"/>
      </contour>
      <contour>
        <pt x="194" y="936" on="1"/>
        <pt x="218" y="952" on="0"/>
        <pt x="275" y="1000" on="0"/>
        <pt x="334" y="1054" on="0"/>
        <pt x="388" y="1109" on="0"/>
        <pt x="408" y="1133" on="1"/>
        <pt x="480" y="1063" on="1"/>
        <pt x="455" y="1041" on="0"/>
        <pt x="389" y="993" on="0"/>
        <pt x="318" y="948" on="0"/>
        <pt x="247" y="909" on="0"/>
        <pt x="219" y="895" on="1"/>
        <pt x="194" y="936" on="1"/>
      </contour>
      <contour>
        <pt x="309" y="847" on="1"/>
        <pt x="342" y="847" on="0"/>
        <pt x="396" y="829" on="0"/>
        <pt x="435" y="797" on="0"/>
        <pt x="456" y="756" on="0"/>
        <pt x="456" y="732" on="1"/>
        <pt x="456" y="680" on="0"/>
        <pt x="376" y="612" on="0"/>
        <pt x="309" y="612" on="1"/>
        <pt x="277" y="612" on="0"/>
        <pt x="223" y="630" on="0"/>
        <pt x="184" y="661" on="0"/>
        <pt x="163" y="703" on="0"/>
        <pt x="163" y="727" on="1"/>
        <pt x="163" y="779" on="0"/>
        <pt x="242" y="847" on="0"/>
      </contour>
    </TTGlyph>
    <TTGlyph name="asciicircum" xMin="68" yMin="174" xMax="561" yMax="551">
      <contour>
        <pt x="309" y="430" on="1"/>
        <pt x="131" y="174" on="1"/>
        <pt x="68" y="221" on="1"/>
        <pt x="300" y="548" on="1"/>
        <pt x="318" y="551" on="1"/>
        <pt x="561" y="222" on="1"/>
        <pt x="493" y="174" on="1"/>
      </contour>
    </TTGlyph>
    <TTGlyph name="asciitilde" xMin="47" yMin="217" xMax="578" yMax="460">
      <contour>
        <pt x="422" y="217" on="1"/>
        <pt x="400" y="217" on="0"/>
        <pt x="357" y="241" on="0"/>
        <pt x="317" y="276" on="0"/>
        <pt x="280" y="317" on="0"/>
        <pt x="245" y="352" on="0"/>
        <pt x="213" y="376" on="0"/>
        <pt x="199" y="376" on="1"/>
        <pt x="186" y="376" on="0"/>
        <pt x="163" y="354" on="0"/>
        <pt x="140" y="314" on="0"/>
        <pt x="119" y="259" on="0"/>
        <pt x="108" y="227" on="1"/>
        <pt x="47" y="250" on="1"/>
        <pt x="78" y="350" on="0"/>
        <pt x="154" y="460" on="0"/>
        <pt x="205" y="460" on="1"/>
        <pt x="227" y="460" on="0"/>
        <pt x="270" y="436" on="0"/>
        <pt x="309" y="401" on="0"/>
        <pt x="345" y="360" on="0"/>
        <pt x="379" y="325" on="0"/>
        <pt x="410" y="301" on="0"/>
        <pt x="424" y="301" on="1"/>
        <pt x="450" y="301" on="0"/>
        <pt x="494" y="385" on="0"/>
        <pt x="517" y="450" on="1"/>
        <pt x="578" y="427" on="1"/>
        <pt x="546" y="325" on="0"/>
        <pt x="473" y="217" on="0"/>
      </contour>
    </TTGlyph>
    <TTGlyph name="asterisk" xMin="82" yMin="305" xMax="558" yMax="768">
      <contour>
        <pt x="308" y="439" on="1"/>
        <pt x="181" y="326" on="1"/>
        <pt x="136" y="365" on="1"/>
        <pt x="231" y="505" on="1"/>
        <pt x="82" y="592" on="1"/>
        <pt x="106" y="647" on="1"/>
        <pt x="269" y="599" on="1"/>
        <pt x="306" y="768" on="1"/>
        <pt x="367" y="763" on="1"/>
        <pt x="373" y="591" on="1"/>
        <pt x="544" y="608" on="1"/>
        <pt x="558" y="551" on="1"/>
        <pt x="395" y="492" on="1"/>
        <pt x="464" y="336" on="1"/>
        <pt x="413" y="305" on="1"/>
      </contour>
    </TTGlyph>
    <TTGlyph name="asterisk.alt" xMin="74" yMin="283" xMax="552" yMax="774">
      <contour>
        <pt x="305" y="617" on="1"/>
        <pt x="308" y="774" on="1"/>
        <pt x="393" y="759" on="1"/>
        <pt x="349" y="609" on="1"/>
      </contour>
      <contour>
        <pt x="232" y="565" on="1"/>
        <pt x="99" y="647" on="1"/>
        <pt x="154" y="713" on="1"/>
        <pt x="262" y="600" on="1"/>
      </contour>
      <contour>
        <pt x="385" y="580" on="1"/>
        <pt x="523" y="655" on="1"/>
        <pt x="552" y="574" on="1"/>
        <pt x="401" y="536" on="1"/>
      </contour>
      <contour>
        <pt x="241" y="477" on="1"/>
        <pt x="103" y="402" on="1"/>
        <pt x="74" y="482" on="1"/>
        <pt x="225" y="520" on="1"/>
      </contour>
      <contour>
        <pt x="395" y="492" on="1"/>
        <pt x="528" y="409" on="1"/>
        <pt x="473" y="344" on="1"/>
        <pt x="364" y="457" on="1"/>
      </contour>
      <contour>
        <pt x="321" y="440" on="1"/>
        <pt x="318" y="283" on="1"/>
        <pt x="232" y="298" on="1"/>
        <pt x="277" y="448" on="1"/>
      </contour>
    </TTGlyph>
    <TTGlyph name="at" xMin="62" yMin="-174" xMax="556" yMax="758">
      <contour>
        <pt x="505" y="-168" on="1"/>
        <pt x="457" y="-174" on="0"/>
        <pt x="415" y="-174" on="1"/>
        <pt x="314" y="-174" on="0"/>
        <pt x="179" y="-108" on="0"/>
        <pt x="97" y="10" on="0"/>
        <pt x="62" y="174" on="0"/>
        <pt x="62" y="272" on="1"/>
        <pt x="62" y="383" on="0"/>
        <pt x="107" y="563" on="0"/>
        <pt x="188" y="689" on="0"/>
        <pt x="299" y="758" on="0"/>
        <pt x="364" y="758" on="1"/>
        <pt x="461" y="758" on="0"/>
        <pt x="550" y="625" on="0"/>
        <pt x="550" y="499" on="1"/>
        <pt x="550" y="417" on="0"/>
        <pt x="551" y="295" on="0"/>
        <pt x="553" y="199" on="0"/>
        <pt x="555" y="120" on="0"/>
        <pt x="556" y="82" on="1"/>
        <pt x="480" y="73" on="1"/>
        <pt x="479" y="81" on="0"/>
        <pt x="477" y="108" on="0"/>
        <pt x="476" y="122" on="1"/>
        <pt x="453" y="95" on="0"/>
        <pt x="404" y="65" on="0"/>
        <pt x="371" y="65" on="1"/>
        <pt x="343" y="65" on="0"/>
        <pt x="296" y="94" on="0"/>
        <pt x="262" y="149" on="0"/>
        <pt x="243" y="226" on="0"/>
        <pt x="243" y="274" on="1"/>
        <pt x="243" y="338" on="0"/>
        <pt x="274" y="435" on="0"/>
        <pt x="330" y="499" on="0"/>
        <pt x="408" y="532" on="0"/>
        <pt x="456" y="532" on="1"/>
        <pt x="469" y="532" on="1"/>
        <pt x="464" y="607" on="0"/>
        <pt x="410" y="684" on="0"/>
        <pt x="355" y="684" on="1"/>
        <pt x="310" y="684" on="0"/>
        <pt x="231" y="634" on="0"/>
        <pt x="173" y="533" on="0"/>
        <pt x="139" y="383" on="0"/>
        <pt x="139" y="283" on="1"/>
        <pt x="139" y="194" on="0"/>
        <pt x="164" y="52" on="0"/>
        <pt x="229" y="-48" on="0"/>
        <pt x="341" y="-101" on="0"/>
        <pt x="427" y="-101" on="1"/>
        <pt x="445" y="-101" on="0"/>
        <pt x="484" y="-98" on="0"/>
        <pt x="505" y="-96" on="1"/>
      </contour>
      <contour>
        <pt x="400" y="137" on="1"/>
        <pt x="421" y="137" on="0"/>
        <pt x="455" y="157" on="0"/>
        <pt x="470" y="172" on="1"/>
        <pt x="470" y="452" on="1"/>
        <pt x="445" y="457" on="0"/>
        <pt x="429" y="457" on="1"/>
        <pt x="399" y="457" on="0"/>
        <pt x="359" y="433" on="0"/>
        <pt x="335" y="390" on="0"/>
        <pt x="325" y="328" on="0"/>
        <pt x="325" y="290" on="1"/>
        <pt x="325" y="215" on="0"/>
        <pt x="363" y="137" on="0"/>
      </contour>
    </TTGlyph>
    <TTGlyph name="atilde" xMin="81" yMin="-14" xMax="541" yMax="819">
      <component glyphName="a" x="0" y="0" flags="0x204"/>
      <component glyphName="tilde" x="5" y="4" flags="0x4"/>
    </TTGlyph>
    <TTGlyph name="b" xMin="107" yMin="-13" xMax="556" yMax="784">
      <contour>
        <pt x="266" y="-13" on="1"/>
        <pt x="224" y="-13" on="0"/>
        <pt x="144" y="1" on="0"/>
        <pt x="107" y="15" on="1"/>
        <pt x="107" y="776" on="1"/>
        <pt x="198" y="784" on="1"/>
        <pt x="198" y="495" on="1"/>
        <pt x="227" y="521" on="0"/>
        <pt x="305" y="557" on="0"/>
        <pt x="353" y="557" on="1"/>
        <pt x="397" y="557" on="0"/>
        <pt x="471" y="520" on="0"/>
        <pt x="525" y="453" on="0"/>
        <pt x="556" y="357" on="0"/>
        <pt x="556" y="297" on="1"/>
        <pt x="556" y="225" on="0"/>
        <pt x="508" y="110" on="0"/>
        <pt x="428" y="30" on="0"/>
        <pt x="323" y="-13" on="0"/>
      </contour>
      <contour>
        <pt x="298" y="65" on="1"/>
        <pt x="335" y="65" on="0"/>
        <pt x="396" y="91" on="0"/>
        <pt x="441" y="144" on="0"/>
        <pt x="466" y="222" on="0"/>
        <pt x="466" y="274" on="1"/>
        <pt x="466" y="376" on="0"/>
        <pt x="383" y="482" on="0"/>
        <pt x="318" y="482" on="1"/>
        <pt x="286" y="482" on="0"/>
        <pt x="224" y="459" on="0"/>
        <pt x="198" y="439" on="1"/>
        <pt x="198" y="83" on="1"/>
        <pt x="249" y="65" on="0"/>
      </contour>
    </TTGlyph>
    <TTGlyph name="backslash" xMin="11" yMin="-201" xMax="609" yMax="804">
      <contour>
        <pt x="609" y="-176" on="1"/>
        <pt x="525" y="-201" on="1"/>
        <pt x="11" y="770" on="1"/>
        <pt x="90" y="804" on="1"/>
      </contour>
    </TTGlyph>
    <TTGlyph name="bar" xMin="271" yMin="-202" xMax="356" yMax="789">
      <contour>
        <pt x="356" y="789" on="1"/>
        <pt x="356" y="-202" on="1"/>
        <pt x="271" y="-202" on="1"/>
        <pt x="271" y="781" on="1"/>
      </contour>
    </TTGlyph>
    <TTGlyph name="braceleft" xMin="102" yMin="-232" xMax="545" yMax="806">
      <contour>
        <pt x="512" y="-232" on="1"/>
        <pt x="417" y="-202" on="0"/>
        <pt x="288" y="-150" on="0"/>
        <pt x="209" y="-101" on="0"/>
        <pt x="174" y="-49" on="0"/>
        <pt x="174" y="-18" on="1"/>
        <pt x="174" y="15" on="0"/>
        <pt x="206" y="67" on="0"/>
        <pt x="245" y="112" on="0"/>
        <pt x="277" y="150" on="0"/>
        <pt x="277" y="170" on="1"/>
        <pt x="277" y="202" on="0"/>
        <pt x="193" y="248" on="0"/>
        <pt x="102" y="254" on="1"/>
        <pt x="105" y="320" on="1"/>
        <pt x="157" y="324" on="0"/>
        <pt x="225" y="338" on="0"/>
        <pt x="266" y="356" on="0"/>
        <pt x="283" y="378" on="0"/>
        <pt x="283" y="390" on="1"/>
        <pt x="283" y="409" on="0"/>
        <pt x="248" y="447" on="0"/>
        <pt x="206" y="490" on="0"/>
        <pt x="171" y="540" on="0"/>
        <pt x="171" y="571" on="1"/>
        <pt x="171" y="600" on="0"/>
        <pt x="207" y="658" on="0"/>
        <pt x="289" y="716" on="0"/>
        <pt x="420" y="776" on="0"/>
        <pt x="516" y="806" on="1"/>
        <pt x="545" y="731" on="1"/>
        <pt x="395" y="688" on="0"/>
        <pt x="258" y="617" on="0"/>
        <pt x="258" y="580" on="1"/>
        <pt x="258" y="559" on="0"/>
        <pt x="291" y="517" on="0"/>
        <pt x="332" y="474" on="0"/>
        <pt x="365" y="430" on="0"/>
        <pt x="365" y="406" on="1"/>
        <pt x="365" y="375" on="0"/>
        <pt x="307" y="314" on="0"/>
        <pt x="237" y="294" on="1"/>
        <pt x="305" y="276" on="0"/>
        <pt x="363" y="214" on="0"/>
        <pt x="363" y="183" on="1"/>
        <pt x="363" y="157" on="0"/>
        <pt x="332" y="112" on="0"/>
        <pt x="296" y="70" on="0"/>
        <pt x="265" y="27" on="0"/>
        <pt x="265" y="3" on="1"/>
        <pt x="265" y="-41" on="0"/>
        <pt x="398" y="-115" on="0"/>
        <pt x="543" y="-158" on="1"/>
        <pt x="512" y="-232" on="1"/>
      </contour>
    </TTGlyph>
    <TTGlyph name="braceleft.cap" xMin="102" yMin="-179" xMax="545" yMax="859">
      <component glyphName="braceleft" x="0" y="53" flags="0x204"/>
    </TTGlyph>
    <TTGlyph name="braceright" xMin="81" yMin="-231" xMax="524" yMax="807">
      <contour>
        <pt x="81" y="-155" on="1"/>
        <pt x="231" y="-113" on="0"/>
        <pt x="368" y="-42" on="0"/>
        <pt x="368" y="-5" on="1"/>
        <pt x="368" y="17" on="0"/>
        <pt x="335" y="59" on="0"/>
        <pt x="295" y="102" on="0"/>
        <pt x="262" y="146" on="0"/>
        <pt x="262" y="169" on="1"/>
        <pt x="262" y="200" on="0"/>
        <pt x="321" y="262" on="0"/>
        <pt x="391" y="282" on="1"/>
        <pt x="322" y="299" on="0"/>
        <pt x="263" y="360" on="0"/>
        <pt x="263" y="392" on="1"/>
        <pt x="263" y="418" on="0"/>
        <pt x="294" y="463" on="0"/>
        <pt x="331" y="505" on="0"/>
        <pt x="362" y="548" on="0"/>
        <pt x="362" y="572" on="1"/>
        <pt x="362" y="594" on="0"/>
        <pt x="329" y="634" on="0"/>
        <pt x="261" y="672" on="0"/>
        <pt x="156" y="711" on="0"/>
        <pt x="84" y="733" on="1"/>
        <pt x="115" y="807" on="1"/>
        <pt x="209" y="777" on="0"/>
        <pt x="338" y="726" on="0"/>
        <pt x="417" y="676" on="0"/>
        <pt x="452" y="624" on="0"/>
        <pt x="452" y="593" on="1"/>
        <pt x="452" y="560" on="0"/>
        <pt x="420" y="508" on="0"/>
        <pt x="381" y="464" on="0"/>
        <pt x="349" y="424" on="0"/>
        <pt x="349" y="405" on="1"/>
        <pt x="349" y="373" on="0"/>
        <pt x="433" y="327" on="0"/>
        <pt x="524" y="321" on="1"/>
        <pt x="521" y="256" on="1"/>
        <pt x="470" y="251" on="0"/>
        <pt x="401" y="237" on="0"/>
        <pt x="360" y="219" on="0"/>
        <pt x="343" y="197" on="0"/>
        <pt x="343" y="185" on="1"/>
        <pt x="343" y="166" on="0"/>
        <pt x="378" y="129" on="0"/>
        <pt x="420" y="86" on="0"/>
        <pt x="455" y="35" on="0"/>
        <pt x="455" y="4" on="1"/>
        <pt x="455" y="-25" on="0"/>
        <pt x="419" y="-83" on="0"/>
        <pt x="338" y="-141" on="0"/>
        <pt x="207" y="-201" on="0"/>
        <pt x="111" y="-231" on="1"/>
      </contour>
    </TTGlyph>
    <TTGlyph name="braceright.cap" xMin="81" yMin="-179" xMax="524" yMax="859">
      <component glyphName="braceright" x="0" y="52" flags="0x204"/>
    </TTGlyph>
    <TTGlyph name="bracketleft" xMin="159" yMin="-198" xMax="527" yMax="771">
      <contour>
        <pt x="159" y="771" on="1"/>
        <pt x="522" y="771" on="1"/>
        <pt x="522" y="697" on="1"/>
        <pt x="246" y="697" on="1"/>
        <pt x="246" y="-125" on="1"/>
        <pt x="527" y="-125" on="1"/>
        <pt x="519" y="-198" on="1"/>
        <pt x="159" y="-198" on="1"/>
      </contour>
    </TTGlyph>
    <TTGlyph name="bracketleft.cap" xMin="159" yMin="-145" xMax="527" yMax="824">
      <component glyphName="bracketleft" x="0" y="53" flags="0x204"/>
    </TTGlyph>
    <TTGlyph name="bracketright" xMin="102" yMin="-198" xMax="466" yMax="772">
      <contour>
        <pt x="380" y="-124" on="1"/>
        <pt x="380" y="697" on="1"/>
        <pt x="105" y="697" on="1"/>
        <pt x="105" y="772" on="1"/>
        <pt x="466" y="772" on="1"/>
        <pt x="466" y="-198" on="1"/>
        <pt x="102" y="-198" on="1"/>
        <pt x="106" y="-124" on="1"/>
      </contour>
    </TTGlyph>
    <TTGlyph name="bracketright.cap" xMin="102" yMin="-146" xMax="466" yMax="824">
      <component glyphName="bracketright" x="0" y="52" flags="0x204"/>
    </TTGlyph>
    <TTGlyph name="breve" xMin="103" yMin="627" xMax="523" yMax="824">
      <contour>
        <pt x="309" y="627" on="1"/>
        <pt x="194" y="627" on="0"/>
        <pt x="103" y="786" on="1"/>
        <pt x="167" y="824" on="1"/>
        <pt x="188" y="791" on="0"/>
        <pt x="224" y="744" on="0"/>
        <pt x="260" y="715" on="0"/>
        <pt x="296" y="701" on="0"/>
        <pt x="316" y="701" on="1"/>
        <pt x="360" y="701" on="0"/>
        <pt x="430" y="761" on="0"/>
        <pt x="470" y="820" on="1"/>
        <pt x="523" y="792" on="1"/>
        <pt x="476" y="714" on="0"/>
        <pt x="369" y="627" on="0"/>
      </contour>
    </TTGlyph>
    <TTGlyph name="breve.cap" xMin="103" yMin="627" xMax="523" yMax="824">
      <contour>
        <pt x="309" y="627" on="1"/>
        <pt x="194" y="627" on="0"/>
        <pt x="103" y="786" on="1"/>
        <pt x="167" y="824" on="1"/>
        <pt x="188" y="791" on="0"/>
        <pt x="224" y="744" on="0"/>
        <pt x="260" y="715" on="0"/>
        <pt x="296" y="701" on="0"/>
        <pt x="316" y="701" on="1"/>
        <pt x="360" y="701" on="0"/>
        <pt x="430" y="761" on="0"/>
        <pt x="470" y="820" on="1"/>
        <pt x="523" y="792" on="1"/>
        <pt x="476" y="714" on="0"/>
        <pt x="369" y="627" on="0"/>
      </contour>
    </TTGlyph>
    <TTGlyph name="bullet" xMin="168" yMin="190" xMax="456" yMax="471">
      <contour>
        <pt x="456" y="333" on="1"/>
        <pt x="456" y="300" on="0"/>
        <pt x="433" y="248" on="0"/>
        <pt x="394" y="210" on="0"/>
        <pt x="341" y="190" on="0"/>
        <pt x="311" y="190" on="1"/>
        <pt x="280" y="190" on="0"/>
        <pt x="228" y="211" on="0"/>
        <pt x="190" y="248" on="0"/>
        <pt x="168" y="299" on="0"/>
        <pt x="168" y="330" on="1"/>
        <pt x="168" y="362" on="0"/>
        <pt x="191" y="414" on="0"/>
        <pt x="230" y="451" on="0"/>
        <pt x="284" y="471" on="0"/>
        <pt x="314" y="471" on="1"/>
        <pt x="345" y="471" on="0"/>
        <pt x="397" y="451" on="0"/>
        <pt x="435" y="414" on="0"/>
        <pt x="456" y="363" on="0"/>
      </contour>
    </TTGlyph>
    <TTGlyph name="bullet.alt" xMin="192" yMin="210" xMax="432" yMax="451">
      <contour>
        <pt x="192" y="210" on="1"/>
        <pt x="194" y="451" on="1"/>
        <pt x="432" y="451" on="1"/>
        <pt x="429" y="210" on="1"/>
      </contour>
    </TTGlyph>
    <TTGlyph name="c" xMin="95" yMin="-7" xMax="528" yMax="552">
      <contour>
        <pt x="520" y="466" on="1"/>
        <pt x="415" y="466" on="0"/>
        <pt x="284" y="439" on="0"/>
        <pt x="211" y="390" on="0"/>
        <pt x="185" y="319" on="0"/>
        <pt x="185" y="276" on="1"/>
        <pt x="185" y="226" on="0"/>
        <pt x="212" y="150" on="0"/>
        <pt x="278" y="98" on="0"/>
        <pt x="388" y="71" on="0"/>
        <pt x="471" y="71" on="1"/>
        <pt x="485" y="71" on="0"/>
        <pt x="513" y="71" on="0"/>
        <pt x="528" y="72" on="1"/>
        <pt x="518" y="-4" on="1"/>
        <pt x="477" y="-7" on="0"/>
        <pt x="443" y="-7" on="1"/>
        <pt x="342" y="-7" on="0"/>
        <pt x="208" y="34" on="0"/>
        <pt x="128" y="107" on="0"/>
        <pt x="95" y="206" on="0"/>
        <pt x="95" y="263" on="1"/>
        <pt x="95" y="319" on="0"/>
        <pt x="137" y="422" on="0"/>
        <pt x="234" y="501" on="0"/>
        <pt x="395" y="550" on="0"/>
        <pt x="514" y="552" on="1"/>
        <pt x="520" y="466" on="1"/>
      </contour>
    </TTGlyph>
    <TTGlyph name="cacute" xMin="95" yMin="-7" xMax="528" yMax="857">
      <component glyphName="acute" x="38" y="0" flags="0x204"/>
      <component glyphName="c" x="0" y="0" flags="0x4"/>
    </TTGlyph>
    <TTGlyph name="caron" xMin="114" yMin="616" xMax="510" yMax="829">
      <contour>
        <pt x="310" y="616" on="1"/>
        <pt x="114" y="775" on="1"/>
        <pt x="171" y="829" on="1"/>
        <pt x="318" y="704" on="1"/>
        <pt x="465" y="829" on="1"/>
        <pt x="510" y="784" on="1"/>
        <pt x="315" y="616" on="1"/>
      </contour>
    </TTGlyph>
    <TTGlyph name="caron.alt" xMin="233" yMin="613" xMax="349" yMax="892">
      <contour>
        <pt x="233" y="627" on="1"/>
        <pt x="248" y="665" on="0"/>
        <pt x="261" y="735" on="0"/>
        <pt x="261" y="768" on="1"/>
        <pt x="261" y="800" on="0"/>
        <pt x="252" y="860" on="0"/>
        <pt x="244" y="890" on="1"/>
        <pt x="346" y="892" on="1"/>
        <pt x="349" y="866" on="0"/>
        <pt x="349" y="841" on="1"/>
        <pt x="349" y="784" on="0"/>
        <pt x="314" y="673" on="0"/>
        <pt x="273" y="613" on="1"/>
        <pt x="233" y="627" on="1"/>
      </contour>
    </TTGlyph>
    <TTGlyph name="caron.cap" xMin="114" yMin="616" xMax="510" yMax="829">
      <contour>
        <pt x="310" y="616" on="1"/>
        <pt x="114" y="775" on="1"/>
        <pt x="171" y="829" on="1"/>
        <pt x="318" y="704" on="1"/>
        <pt x="465" y="829" on="1"/>
        <pt x="510" y="784" on="1"/>
        <pt x="315" y="616" on="1"/>
      </contour>
    </TTGlyph>
    <TTGlyph name="ccaron" xMin="95" yMin="-7" xMax="545" yMax="829">
      <component glyphName="caron" x="35" y="0" flags="0x204"/>
      <component glyphName="c" x="0" y="0" flags="0x4"/>
    </TTGlyph>
    <TTGlyph name="ccedilla" xMin="95" yMin="-244" xMax="528" yMax="552">
      <contour>
        <pt x="520" y="466" on="1"/>
        <pt x="415" y="466" on="0"/>
        <pt x="284" y="439" on="0"/>
        <pt x="211" y="390" on="0"/>
        <pt x="185" y="319" on="0"/>
        <pt x="185" y="276" on="1"/>
        <pt x="185" y="226" on="0"/>
        <pt x="212" y="150" on="0"/>
        <pt x="278" y="98" on="0"/>
        <pt x="388" y="71" on="0"/>
        <pt x="471" y="71" on="1"/>
        <pt x="485" y="71" on="0"/>
        <pt x="513" y="71" on="0"/>
        <pt x="528" y="72" on="1"/>
        <pt x="518" y="-4" on="1"/>
        <pt x="479" y="-7" on="0"/>
        <pt x="445" y="-7" on="1"/>
        <pt x="416" y="-7" on="0"/>
        <pt x="365" y="-3" on="0"/>
        <pt x="342" y="0" on="1"/>
        <pt x="402" y="-35" on="0"/>
        <pt x="454" y="-100" on="0"/>
        <pt x="454" y="-129" on="1"/>
        <pt x="454" y="-171" on="0"/>
        <pt x="353" y="-232" on="0"/>
        <pt x="250" y="-244" on="1"/>
        <pt x="243" y="-173" on="1"/>
        <pt x="313" y="-162" on="0"/>
        <pt x="373" y="-138" on="0"/>
        <pt x="373" y="-120" on="1"/>
        <pt x="373" y="-102" on="0"/>
        <pt x="324" y="-53" on="0"/>
        <pt x="269" y="-21" on="1"/>
        <pt x="285" y="11" on="1"/>
        <pt x="231" y="25" on="0"/>
        <pt x="158" y="75" on="0"/>
        <pt x="114" y="140" on="0"/>
        <pt x="95" y="219" on="0"/>
        <pt x="95" y="263" on="1"/>
        <pt x="95" y="319" on="0"/>
        <pt x="137" y="422" on="0"/>
        <pt x="234" y="501" on="0"/>
        <pt x="395" y="550" on="0"/>
        <pt x="514" y="552" on="1"/>
        <pt x="520" y="466" on="1"/>
      </contour>
    </TTGlyph>
    <TTGlyph name="cdotaccent" xMin="95" yMin="-7" xMax="528" yMax="783">
      <component glyphName="c" x="0" y="0" flags="0x204"/>
      <component glyphName="dotaccent" x="32" y="0" flags="0x4"/>
    </TTGlyph>
    <TTGlyph name="cedilla" xMin="235" yMin="-237" xMax="446" yMax="33">
      <contour>
        <pt x="284" y="33" on="1"/>
        <pt x="371" y="-9" on="0"/>
        <pt x="446" y="-87" on="0"/>
        <pt x="446" y="-122" on="1"/>
        <pt x="446" y="-164" on="0"/>
        <pt x="345" y="-225" on="0"/>
        <pt x="242" y="-237" on="1"/>
        <pt x="235" y="-166" on="1"/>
        <pt x="305" y="-155" on="0"/>
        <pt x="365" y="-131" on="0"/>
        <pt x="365" y="-113" on="1"/>
        <pt x="365" y="-95" on="0"/>
        <pt x="316" y="-46" on="0"/>
        <pt x="261" y="-14" on="1"/>
      </contour>
    </TTGlyph>
    <TTGlyph name="cedilla.cap" xMin="235" yMin="-237" xMax="446" yMax="33">
      <contour>
        <pt x="284" y="33" on="1"/>
        <pt x="371" y="-9" on="0"/>
        <pt x="446" y="-87" on="0"/>
        <pt x="446" y="-122" on="1"/>
        <pt x="446" y="-164" on="0"/>
        <pt x="345" y="-225" on="0"/>
        <pt x="242" y="-237" on="1"/>
        <pt x="235" y="-166" on="1"/>
        <pt x="305" y="-155" on="0"/>
        <pt x="365" y="-131" on="0"/>
        <pt x="365" y="-113" on="1"/>
        <pt x="365" y="-95" on="0"/>
        <pt x="316" y="-46" on="0"/>
        <pt x="261" y="-14" on="1"/>
      </contour>
    </TTGlyph>
    <TTGlyph name="cent" xMin="91" yMin="-94" xMax="535" yMax="688">
      <contour>
        <pt x="177" y="301" on="1"/>
        <pt x="177" y="248" on="0"/>
        <pt x="235" y="170" on="0"/>
        <pt x="304" y="147" on="1"/>
        <pt x="344" y="450" on="1"/>
        <pt x="294" y="443" on="0"/>
        <pt x="230" y="414" on="0"/>
        <pt x="192" y="375" on="0"/>
        <pt x="177" y="327" on="0"/>
      </contour>
      <contour>
        <pt x="500" y="38" on="1"/>
        <pt x="461" y="40" on="0"/>
        <pt x="392" y="46" on="0"/>
        <pt x="361" y="51" on="1"/>
        <pt x="344" y="-94" on="1"/>
        <pt x="265" y="-94" on="1"/>
        <pt x="287" y="68" on="1"/>
        <pt x="233" y="84" on="0"/>
        <pt x="158" y="129" on="0"/>
        <pt x="111" y="186" on="0"/>
        <pt x="91" y="253" on="0"/>
        <pt x="91" y="290" on="1"/>
        <pt x="91" y="329" on="0"/>
        <pt x="115" y="404" on="0"/>
        <pt x="174" y="469" on="0"/>
        <pt x="271" y="517" on="0"/>
        <pt x="345" y="529" on="1"/>
        <pt x="364" y="688" on="1"/>
        <pt x="443" y="688" on="1"/>
        <pt x="423" y="537" on="1"/>
        <pt x="449" y="539" on="0"/>
        <pt x="504" y="540" on="0"/>
        <pt x="535" y="538" on="1"/>
        <pt x="524" y="453" on="1"/>
        <pt x="458" y="457" on="0"/>
        <pt x="407" y="456" on="1"/>
        <pt x="367" y="131" on="1"/>
        <pt x="397" y="125" on="0"/>
        <pt x="468" y="117" on="0"/>
        <pt x="510" y="115" on="1"/>
      </contour>
    </TTGlyph>
    <TTGlyph name="check.1" xMin="83" yMin="-27" xMax="573" yMax="759">
      <contour>
        <pt x="573" y="729" on="1"/>
        <pt x="499" y="556" on="0"/>
        <pt x="378" y="182" on="0"/>
        <pt x="329" y="-22" on="1"/>
        <pt x="249" y="-27" on="1"/>
        <pt x="83" y="360" on="1"/>
        <pt x="162" y="394" on="1"/>
        <pt x="284" y="96" on="1"/>
        <pt x="289" y="96" on="1"/>
        <pt x="327" y="279" on="0"/>
        <pt x="423" y="611" on="0"/>
        <pt x="480" y="759" on="1"/>
        <pt x="573" y="729" on="1"/>
      </contour>
    </TTGlyph>
    <TTGlyph name="check.2" xMin="103" yMin="-14" xMax="555" yMax="761">
      <contour>
        <pt x="196" y="562" on="1"/>
        <pt x="289" y="372" on="1"/>
        <pt x="465" y="761" on="1"/>
        <pt x="555" y="727" on="1"/>
        <pt x="336" y="303" on="1"/>
        <pt x="487" y="12" on="1"/>
        <pt x="400" y="-8" on="1"/>
        <pt x="285" y="226" on="1"/>
        <pt x="162" y="-14" on="1"/>
        <pt x="103" y="7" on="1"/>
        <pt x="240" y="292" on="1"/>
        <pt x="112" y="532" on="1"/>
      </contour>
    </TTGlyph>
    <TTGlyph name="circumflex" xMin="114" yMin="622" xMax="510" yMax="836">
      <contour>
        <pt x="306" y="747" on="1"/>
        <pt x="160" y="623" on="1"/>
        <pt x="114" y="667" on="1"/>
        <pt x="310" y="836" on="1"/>
        <pt x="314" y="836" on="1"/>
        <pt x="510" y="676" on="1"/>
        <pt x="453" y="622" on="1"/>
      </contour>
    </TTGlyph>
    <TTGlyph name="circumflex.cap" xMin="114" yMin="622" xMax="510" yMax="836">
      <contour>
        <pt x="306" y="747" on="1"/>
        <pt x="160" y="623" on="1"/>
        <pt x="114" y="667" on="1"/>
        <pt x="310" y="836" on="1"/>
        <pt x="314" y="836" on="1"/>
        <pt x="510" y="676" on="1"/>
        <pt x="453" y="622" on="1"/>
      </contour>
    </TTGlyph>
    <TTGlyph name="colon" xMin="240" yMin="0" xMax="385" yMax="495">
      <contour>
        <pt x="250" y="365" on="1"/>
        <pt x="252" y="495" on="1"/>
        <pt x="385" y="495" on="1"/>
        <pt x="383" y="365" on="1"/>
      </contour>
      <contour>
        <pt x="240" y="0" on="1"/>
        <pt x="245" y="129" on="1"/>
        <pt x="379" y="129" on="1"/>
        <pt x="373" y="0" on="1"/>
      </contour>
    </TTGlyph>
    <TTGlyph name="colon.alt" xMin="247" yMin="96" xMax="385" yMax="592">
      <contour>
        <pt x="250" y="462" on="1"/>
        <pt x="252" y="592" on="1"/>
        <pt x="385" y="592" on="1"/>
        <pt x="383" y="462" on="1"/>
      </contour>
      <contour>
        <pt x="247" y="96" on="1"/>
        <pt x="248" y="226" on="1"/>
        <pt x="381" y="226" on="1"/>
        <pt x="379" y="96" on="1"/>
      </contour>
    </TTGlyph>
    <TTGlyph name="colonmonetary" xMin="78" yMin="-82" xMax="564" yMax="769">
      <contour>
        <pt x="417" y="569" on="1"/>
        <pt x="368" y="561" on="0"/>
        <pt x="331" y="550" on="1"/>
        <pt x="296" y="148" on="1"/>
        <pt x="313" y="140" on="0"/>
        <pt x="354" y="129" on="0"/>
        <pt x="377" y="124" on="1"/>
      </contour>
      <contour>
        <pt x="160" y="346" on="1"/>
        <pt x="160" y="286" on="0"/>
        <pt x="199" y="202" on="0"/>
        <pt x="244" y="173" on="1"/>
        <pt x="276" y="530" on="1"/>
        <pt x="211" y="500" on="0"/>
        <pt x="160" y="408" on="0"/>
      </contour>
      <contour>
        <pt x="366" y="45" on="1"/>
        <pt x="345" y="50" on="0"/>
        <pt x="306" y="60" on="0"/>
        <pt x="288" y="65" on="1"/>
        <pt x="275" y="-82" on="1"/>
        <pt x="208" y="-82" on="1"/>
        <pt x="226" y="90" on="1"/>
        <pt x="148" y="127" on="0"/>
        <pt x="78" y="245" on="0"/>
        <pt x="78" y="332" on="1"/>
        <pt x="78" y="375" on="0"/>
        <pt x="98" y="456" on="0"/>
        <pt x="144" y="528" on="0"/>
        <pt x="218" y="587" on="0"/>
        <pt x="272" y="610" on="1"/>
        <pt x="285" y="769" on="1"/>
        <pt x="351" y="769" on="1"/>
        <pt x="339" y="633" on="1"/>
        <pt x="358" y="638" on="0"/>
        <pt x="398" y="647" on="0"/>
        <pt x="420" y="650" on="1"/>
        <pt x="430" y="769" on="1"/>
        <pt x="495" y="769" on="1"/>
        <pt x="484" y="659" on="1"/>
        <pt x="502" y="661" on="0"/>
        <pt x="540" y="663" on="0"/>
        <pt x="560" y="664" on="1"/>
        <pt x="564" y="581" on="1"/>
        <pt x="514" y="580" on="0"/>
        <pt x="470" y="575" on="1"/>
        <pt x="430" y="115" on="1"/>
        <pt x="480" y="107" on="0"/>
        <pt x="539" y="103" on="1"/>
        <pt x="523" y="25" on="1"/>
        <pt x="497" y="27" on="0"/>
        <pt x="451" y="32" on="0"/>
        <pt x="428" y="35" on="1"/>
        <pt x="419" y="-82" on="1"/>
        <pt x="354" y="-82" on="1"/>
      </contour>
    </TTGlyph>
    <TTGlyph name="comma" xMin="217" yMin="-205" xMax="380" yMax="137">
      <contour>
        <pt x="217" y="-190" on="1"/>
        <pt x="278" y="-117" on="0"/>
        <pt x="278" y="-24" on="1"/>
        <pt x="278" y="48" on="0"/>
        <pt x="240" y="130" on="1"/>
        <pt x="365" y="137" on="1"/>
        <pt x="373" y="113" on="0"/>
        <pt x="380" y="66" on="0"/>
        <pt x="380" y="43" on="1"/>
        <pt x="380" y="-27" on="0"/>
        <pt x="318" y="-154" on="0"/>
        <pt x="264" y="-205" on="1"/>
        <pt x="217" y="-190" on="1"/>
      </contour>
    </TTGlyph>
    <TTGlyph name="commaaccent" xMin="241" yMin="-307" xMax="362" yMax="-75">
      <contour>
        <pt x="241" y="-293" on="1"/>
        <pt x="255" y="-264" on="0"/>
        <pt x="267" y="-208" on="0"/>
        <pt x="267" y="-182" on="1"/>
        <pt x="267" y="-155" on="0"/>
        <pt x="257" y="-104" on="0"/>
        <pt x="248" y="-80" on="1"/>
        <pt x="249" y="-80" on="0"/>
        <pt x="283" y="-78" on="0"/>
        <pt x="323" y="-77" on="0"/>
        <pt x="358" y="-75" on="0"/>
        <pt x="360" y="-75" on="1"/>
        <pt x="361" y="-83" on="0"/>
        <pt x="362" y="-100" on="0"/>
        <pt x="362" y="-108" on="1"/>
        <pt x="362" y="-158" on="0"/>
        <pt x="326" y="-262" on="0"/>
        <pt x="287" y="-307" on="1"/>
        <pt x="241" y="-293" on="1"/>
      </contour>
    </TTGlyph>
    <TTGlyph name="commaaccent.cap" xMin="241" yMin="-307" xMax="362" yMax="-75">
      <contour>
        <pt x="241" y="-293" on="1"/>
        <pt x="255" y="-264" on="0"/>
        <pt x="267" y="-208" on="0"/>
        <pt x="267" y="-182" on="1"/>
        <pt x="267" y="-155" on="0"/>
        <pt x="257" y="-104" on="0"/>
        <pt x="248" y="-80" on="1"/>
        <pt x="249" y="-80" on="0"/>
        <pt x="283" y="-78" on="0"/>
        <pt x="323" y="-77" on="0"/>
        <pt x="358" y="-75" on="0"/>
        <pt x="360" y="-75" on="1"/>
        <pt x="361" y="-83" on="0"/>
        <pt x="362" y="-100" on="0"/>
        <pt x="362" y="-108" on="1"/>
        <pt x="362" y="-158" on="0"/>
        <pt x="326" y="-262" on="0"/>
        <pt x="287" y="-307" on="1"/>
        <pt x="241" y="-293" on="1"/>
      </contour>
    </TTGlyph>
    <TTGlyph name="commaaccent.rot" xMin="249" yMin="628" xMax="375" yMax="860">
      <contour>
        <pt x="375" y="846" on="1"/>
        <pt x="348" y="788" on="0"/>
        <pt x="351" y="681" on="0"/>
        <pt x="369" y="633" on="1"/>
        <pt x="257" y="628" on="1"/>
        <pt x="249" y="684" on="0"/>
        <pt x="284" y="807" on="0"/>
        <pt x="330" y="860" on="1"/>
        <pt x="375" y="846" on="1"/>
      </contour>
    </TTGlyph>
    <TTGlyph name="copyright" xMin="54" yMin="8" xMax="570" yMax="680">
      <contour>
        <pt x="570" y="349" on="1"/>
        <pt x="570" y="268" on="0"/>
        <pt x="531" y="141" on="0"/>
        <pt x="463" y="54" on="0"/>
        <pt x="370" y="8" on="0"/>
        <pt x="316" y="8" on="1"/>
        <pt x="260" y="8" on="0"/>
        <pt x="164" y="52" on="0"/>
        <pt x="94" y="137" on="0"/>
        <pt x="54" y="260" on="0"/>
        <pt x="54" y="340" on="1"/>
        <pt x="54" y="416" on="0"/>
        <pt x="96" y="542" on="0"/>
        <pt x="169" y="631" on="0"/>
        <pt x="267" y="680" on="0"/>
        <pt x="323" y="680" on="1"/>
        <pt x="377" y="680" on="0"/>
        <pt x="467" y="635" on="0"/>
        <pt x="533" y="549" on="0"/>
        <pt x="570" y="427" on="0"/>
      </contour>
      <contour>
        <pt x="109" y="343" on="1"/>
        <pt x="109" y="274" on="0"/>
        <pt x="141" y="168" on="0"/>
        <pt x="198" y="96" on="0"/>
        <pt x="275" y="59" on="0"/>
        <pt x="320" y="59" on="1"/>
        <pt x="363" y="59" on="0"/>
        <pt x="435" y="96" on="0"/>
        <pt x="487" y="169" on="0"/>
        <pt x="516" y="276" on="0"/>
        <pt x="516" y="345" on="1"/>
        <pt x="516" y="411" on="0"/>
        <pt x="487" y="517" on="0"/>
        <pt x="435" y="591" on="0"/>
        <pt x="363" y="630" on="0"/>
        <pt x="320" y="630" on="1"/>
        <pt x="275" y="630" on="0"/>
        <pt x="197" y="590" on="0"/>
        <pt x="141" y="516" on="0"/>
        <pt x="109" y="409" on="0"/>
      </contour>
      <contour>
        <pt x="391" y="159" on="1"/>
        <pt x="385" y="158" on="0"/>
        <pt x="374" y="158" on="0"/>
        <pt x="368" y="158" on="1"/>
        <pt x="321" y="158" on="0"/>
        <pt x="258" y="186" on="0"/>
        <pt x="220" y="235" on="0"/>
        <pt x="203" y="303" on="0"/>
        <pt x="203" y="343" on="1"/>
        <pt x="203" y="380" on="0"/>
        <pt x="222" y="447" on="0"/>
        <pt x="266" y="498" on="0"/>
        <pt x="337" y="531" on="0"/>
        <pt x="390" y="535" on="1"/>
        <pt x="395" y="469" on="1"/>
        <pt x="354" y="468" on="0"/>
        <pt x="304" y="451" on="0"/>
        <pt x="277" y="420" on="0"/>
        <pt x="268" y="376" on="0"/>
        <pt x="268" y="349" on="1"/>
        <pt x="268" y="285" on="0"/>
        <pt x="315" y="220" on="0"/>
        <pt x="383" y="220" on="1"/>
        <pt x="398" y="220" on="1"/>
      </contour>
    </TTGlyph>
    <TTGlyph name="d" xMin="69" yMin="-13" xMax="524" yMax="784">
      <contour>
        <pt x="308" y="62" on="1"/>
        <pt x="343" y="62" on="0"/>
        <pt x="403" y="88" on="0"/>
        <pt x="428" y="108" on="1"/>
        <pt x="426" y="179" on="0"/>
        <pt x="425" y="349" on="0"/>
        <pt x="425" y="463" on="1"/>
        <pt x="402" y="471" on="0"/>
        <pt x="357" y="479" on="0"/>
        <pt x="336" y="479" on="1"/>
        <pt x="298" y="479" on="0"/>
        <pt x="233" y="452" on="0"/>
        <pt x="186" y="398" on="0"/>
        <pt x="159" y="319" on="0"/>
        <pt x="159" y="267" on="1"/>
        <pt x="159" y="163" on="0"/>
        <pt x="243" y="62" on="0"/>
      </contour>
      <contour>
        <pt x="433" y="55" on="1"/>
        <pt x="404" y="27" on="0"/>
        <pt x="324" y="-13" on="0"/>
        <pt x="273" y="-13" on="1"/>
        <pt x="229" y="-13" on="0"/>
        <pt x="154" y="22" on="0"/>
        <pt x="100" y="88" on="0"/>
        <pt x="69" y="184" on="0"/>
        <pt x="69" y="244" on="1"/>
        <pt x="69" y="319" on="0"/>
        <pt x="119" y="435" on="0"/>
        <pt x="203" y="515" on="0"/>
        <pt x="314" y="557" on="0"/>
        <pt x="376" y="557" on="1"/>
        <pt x="401" y="557" on="0"/>
        <pt x="425" y="554" on="1"/>
        <pt x="425" y="776" on="1"/>
        <pt x="515" y="784" on="1"/>
        <pt x="515" y="542" on="1"/>
        <pt x="515" y="358" on="0"/>
        <pt x="519" y="96" on="0"/>
        <pt x="524" y="2" on="1"/>
        <pt x="438" y="-3" on="1"/>
      </contour>
    </TTGlyph>
    <TTGlyph name="dagger" xMin="81" yMin="112" xMax="551" yMax="773">
      <contour>
        <pt x="284" y="112" on="1"/>
        <pt x="270" y="120" on="1"/>
        <pt x="271" y="524" on="1"/>
        <pt x="81" y="527" on="1"/>
        <pt x="85" y="600" on="1"/>
        <pt x="271" y="597" on="1"/>
        <pt x="271" y="773" on="1"/>
        <pt x="359" y="772" on="1"/>
        <pt x="357" y="596" on="1"/>
        <pt x="551" y="593" on="1"/>
        <pt x="546" y="520" on="1"/>
        <pt x="356" y="523" on="1"/>
        <pt x="339" y="141" on="1"/>
      </contour>
    </TTGlyph>
    <TTGlyph name="daggerdbl" xMin="74" yMin="55" xMax="551" yMax="773">
      <contour>
        <pt x="284" y="55" on="1"/>
        <pt x="270" y="63" on="1"/>
        <pt x="270" y="304" on="1"/>
        <pt x="74" y="307" on="1"/>
        <pt x="78" y="377" on="1"/>
        <pt x="270" y="374" on="1"/>
        <pt x="271" y="527" on="1"/>
        <pt x="81" y="530" on="1"/>
        <pt x="85" y="600" on="1"/>
        <pt x="271" y="597" on="1"/>
        <pt x="271" y="773" on="1"/>
        <pt x="359" y="772" on="1"/>
        <pt x="357" y="596" on="1"/>
        <pt x="551" y="593" on="1"/>
        <pt x="546" y="523" on="1"/>
        <pt x="356" y="526" on="1"/>
        <pt x="350" y="372" on="1"/>
        <pt x="544" y="369" on="1"/>
        <pt x="539" y="299" on="1"/>
        <pt x="348" y="302" on="1"/>
        <pt x="340" y="84" on="1"/>
      </contour>
    </TTGlyph>
    <TTGlyph name="dcaron" xMin="69" yMin="-13" xMax="707" yMax="892">
      <component glyphName="caron.alt" x="358" y="0" flags="0x204"/>
      <component glyphName="d" x="0" y="0" flags="0x4"/>
    </TTGlyph>
    <TTGlyph name="dcroat" xMin="69" yMin="-13" xMax="592" yMax="781">
      <contour>
        <pt x="308" y="62" on="1"/>
        <pt x="342" y="62" on="0"/>
        <pt x="402" y="87" on="0"/>
        <pt x="428" y="107" on="1"/>
        <pt x="426" y="178" on="0"/>
        <pt x="425" y="349" on="0"/>
        <pt x="424" y="463" on="1"/>
        <pt x="401" y="470" on="0"/>
        <pt x="357" y="478" on="0"/>
        <pt x="336" y="478" on="1"/>
        <pt x="298" y="478" on="0"/>
        <pt x="233" y="451" on="0"/>
        <pt x="186" y="397" on="0"/>
        <pt x="159" y="318" on="0"/>
        <pt x="159" y="267" on="1"/>
        <pt x="159" y="163" on="0"/>
        <pt x="243" y="62" on="0"/>
      </contour>
      <contour>
        <pt x="432" y="54" on="1"/>
        <pt x="403" y="27" on="0"/>
        <pt x="323" y="-13" on="0"/>
        <pt x="273" y="-13" on="1"/>
        <pt x="229" y="-13" on="0"/>
        <pt x="154" y="22" on="0"/>
        <pt x="100" y="88" on="0"/>
        <pt x="69" y="184" on="0"/>
        <pt x="69" y="244" on="1"/>
        <pt x="69" y="318" on="0"/>
        <pt x="118" y="434" on="0"/>
        <pt x="202" y="513" on="0"/>
        <pt x="314" y="554" on="0"/>
        <pt x="376" y="554" on="1"/>
        <pt x="400" y="554" on="0"/>
        <pt x="424" y="551" on="1"/>
        <pt x="424" y="642" on="1"/>
        <pt x="278" y="642" on="1"/>
        <pt x="278" y="701" on="1"/>
        <pt x="424" y="701" on="1"/>
        <pt x="424" y="773" on="1"/>
        <pt x="515" y="781" on="1"/>
        <pt x="515" y="701" on="1"/>
        <pt x="592" y="701" on="1"/>
        <pt x="592" y="641" on="1"/>
        <pt x="515" y="641" on="1"/>
        <pt x="515" y="542" on="1"/>
        <pt x="515" y="358" on="0"/>
        <pt x="519" y="96" on="0"/>
        <pt x="524" y="2" on="1"/>
        <pt x="438" y="-3" on="1"/>
      </contour>
    </TTGlyph>
    <TTGlyph name="degree" xMin="117" yMin="347" xMax="507" yMax="750">
      <contour>
        <pt x="507" y="553" on="1"/>
        <pt x="507" y="506" on="0"/>
        <pt x="474" y="430" on="0"/>
        <pt x="418" y="376" on="0"/>
        <pt x="345" y="347" on="0"/>
        <pt x="305" y="347" on="1"/>
        <pt x="265" y="347" on="0"/>
        <pt x="197" y="375" on="0"/>
        <pt x="146" y="426" on="0"/>
        <pt x="117" y="499" on="0"/>
        <pt x="117" y="544" on="1"/>
        <pt x="117" y="591" on="0"/>
        <pt x="150" y="667" on="0"/>
        <pt x="206" y="721" on="0"/>
        <pt x="279" y="750" on="0"/>
        <pt x="319" y="750" on="1"/>
        <pt x="359" y="750" on="0"/>
        <pt x="428" y="722" on="0"/>
        <pt x="478" y="671" on="0"/>
        <pt x="507" y="598" on="0"/>
      </contour>
      <contour>
        <pt x="433" y="552" on="1"/>
        <pt x="433" y="579" on="0"/>
        <pt x="416" y="627" on="0"/>
        <pt x="384" y="661" on="0"/>
        <pt x="340" y="681" on="0"/>
        <pt x="313" y="681" on="1"/>
        <pt x="261" y="681" on="0"/>
        <pt x="192" y="609" on="0"/>
        <pt x="192" y="548" on="1"/>
        <pt x="192" y="519" on="0"/>
        <pt x="209" y="471" on="0"/>
        <pt x="241" y="435" on="0"/>
        <pt x="284" y="415" on="0"/>
        <pt x="311" y="415" on="1"/>
        <pt x="363" y="415" on="0"/>
        <pt x="433" y="489" on="0"/>
      </contour>
    </TTGlyph>
    <TTGlyph name="dieresis" xMin="146" yMin="632" xMax="484" yMax="783">
      <contour>
        <pt x="390" y="632" on="1"/>
        <pt x="390" y="783" on="1"/>
        <pt x="484" y="783" on="1"/>
        <pt x="481" y="632" on="1"/>
      </contour>
      <contour>
        <pt x="146" y="632" on="1"/>
        <pt x="146" y="783" on="1"/>
        <pt x="240" y="783" on="1"/>
        <pt x="237" y="632" on="1"/>
      </contour>
    </TTGlyph>
    <TTGlyph name="dieresis.cap" xMin="146" yMin="632" xMax="484" yMax="783">
      <contour>
        <pt x="390" y="632" on="1"/>
        <pt x="390" y="783" on="1"/>
        <pt x="484" y="783" on="1"/>
        <pt x="481" y="632" on="1"/>
      </contour>
      <contour>
        <pt x="146" y="632" on="1"/>
        <pt x="146" y="783" on="1"/>
        <pt x="240" y="783" on="1"/>
        <pt x="237" y="632" on="1"/>
      </contour>
    </TTGlyph>
    <TTGlyph name="divide" xMin="75" yMin="74" xMax="550" yMax="577">
      <contour>
        <pt x="261" y="472" on="1"/>
        <pt x="262" y="577" on="1"/>
        <pt x="364" y="577" on="1"/>
        <pt x="362" y="472" on="1"/>
      </contour>
      <contour>
        <pt x="549" y="287" on="1"/>
        <pt x="75" y="287" on="1"/>
        <pt x="75" y="364" on="1"/>
        <pt x="550" y="364" on="1"/>
      </contour>
      <contour>
        <pt x="260" y="74" on="1"/>
        <pt x="262" y="178" on="1"/>
        <pt x="363" y="178" on="1"/>
        <pt x="362" y="74" on="1"/>
      </contour>
    </TTGlyph>
    <TTGlyph name="dollar" xMin="85" yMin="-93" xMax="531" yMax="781">
      <contour>
        <pt x="202" y="515" on="1"/>
        <pt x="202" y="486" on="0"/>
        <pt x="261" y="435" on="0"/>
        <pt x="304" y="408" on="1"/>
        <pt x="335" y="580" on="1"/>
        <pt x="263" y="578" on="0"/>
        <pt x="202" y="543" on="0"/>
      </contour>
      <contour>
        <pt x="436" y="184" on="1"/>
        <pt x="436" y="213" on="0"/>
        <pt x="376" y="265" on="0"/>
        <pt x="334" y="292" on="1"/>
        <pt x="301" y="108" on="1"/>
        <pt x="372" y="112" on="0"/>
        <pt x="436" y="153" on="0"/>
      </contour>
      <contour>
        <pt x="195" y="-93" on="1"/>
        <pt x="219" y="28" on="1"/>
        <pt x="189" y="29" on="0"/>
        <pt x="122" y="33" on="0"/>
        <pt x="85" y="38" on="1"/>
        <pt x="102" y="124" on="1"/>
        <pt x="144" y="117" on="0"/>
        <pt x="214" y="109" on="0"/>
        <pt x="244" y="108" on="1"/>
        <pt x="283" y="323" on="1"/>
        <pt x="251" y="342" on="0"/>
        <pt x="187" y="383" on="0"/>
        <pt x="137" y="427" on="0"/>
        <pt x="106" y="477" on="0"/>
        <pt x="106" y="505" on="1"/>
        <pt x="106" y="532" on="0"/>
        <pt x="133" y="583" on="0"/>
        <pt x="189" y="624" on="0"/>
        <pt x="277" y="652" on="0"/>
        <pt x="339" y="656" on="1"/>
        <pt x="361" y="781" on="1"/>
        <pt x="442" y="780" on="1"/>
        <pt x="417" y="657" on="1"/>
        <pt x="467" y="656" on="0"/>
        <pt x="527" y="648" on="1"/>
        <pt x="517" y="563" on="1"/>
        <pt x="444" y="575" on="0"/>
        <pt x="392" y="578" on="1"/>
        <pt x="355" y="376" on="1"/>
        <pt x="387" y="356" on="0"/>
        <pt x="450" y="314" on="0"/>
        <pt x="500" y="269" on="0"/>
        <pt x="531" y="218" on="0"/>
        <pt x="531" y="189" on="1"/>
        <pt x="531" y="161" on="0"/>
        <pt x="505" y="109" on="0"/>
        <pt x="448" y="67" on="0"/>
        <pt x="359" y="37" on="0"/>
        <pt x="297" y="31" on="1"/>
        <pt x="277" y="-93" on="1"/>
      </contour>
    </TTGlyph>
    <TTGlyph name="dotaccent" xMin="263" yMin="632" xMax="361" yMax="783">
      <contour>
        <pt x="263" y="632" on="1"/>
        <pt x="266" y="783" on="1"/>
        <pt x="361" y="783" on="1"/>
        <pt x="356" y="632" on="1"/>
      </contour>
    </TTGlyph>
    <TTGlyph name="dotaccent.cap" xMin="263" yMin="632" xMax="361" yMax="783">
      <contour>
        <pt x="263" y="632" on="1"/>
        <pt x="266" y="783" on="1"/>
        <pt x="361" y="783" on="1"/>
        <pt x="356" y="632" on="1"/>
      </contour>
    </TTGlyph>
    <TTGlyph name="dotlessi" xMin="86" yMin="0" xMax="584" yMax="544">
      <contour>
        <pt x="86" y="0" on="1"/>
        <pt x="86" y="69" on="1"/>
        <pt x="290" y="69" on="1"/>
        <pt x="290" y="471" on="1"/>
        <pt x="87" y="480" on="1"/>
        <pt x="94" y="544" on="1"/>
        <pt x="381" y="544" on="1"/>
        <pt x="381" y="69" on="1"/>
        <pt x="584" y="69" on="1"/>
        <pt x="577" y="0" on="1"/>
      </contour>
    </TTGlyph>
    <TTGlyph name="e" xMin="80" yMin="-13" xMax="544" yMax="557">
      <contour>
        <pt x="513" y="-13" on="1"/>
        <pt x="385" y="-12" on="0"/>
        <pt x="218" y="25" on="0"/>
        <pt x="119" y="95" on="0"/>
        <pt x="80" y="198" on="0"/>
        <pt x="80" y="264" on="1"/>
        <pt x="80" y="326" on="0"/>
        <pt x="121" y="433" on="0"/>
        <pt x="191" y="512" on="0"/>
        <pt x="284" y="557" on="0"/>
        <pt x="337" y="557" on="1"/>
        <pt x="387" y="557" on="0"/>
        <pt x="464" y="522" on="0"/>
        <pt x="517" y="459" on="0"/>
        <pt x="544" y="368" on="0"/>
        <pt x="544" y="313" on="1"/>
        <pt x="544" y="286" on="0"/>
        <pt x="541" y="258" on="1"/>
        <pt x="170" y="248" on="1"/>
        <pt x="173" y="200" on="0"/>
        <pt x="211" y="133" on="0"/>
        <pt x="292" y="89" on="0"/>
        <pt x="425" y="68" on="0"/>
        <pt x="523" y="65" on="1"/>
      </contour>
      <contour>
        <pt x="321" y="482" on="1"/>
        <pt x="254" y="482" on="0"/>
        <pt x="175" y="393" on="0"/>
        <pt x="170" y="305" on="1"/>
        <pt x="456" y="313" on="1"/>
        <pt x="455" y="391" on="0"/>
        <pt x="390" y="482" on="0"/>
      </contour>
    </TTGlyph>
    <TTGlyph name="eacute" xMin="80" yMin="-13" xMax="544" yMax="865">
      <component glyphName="acute" x="20" y="8" flags="0x204"/>
      <component glyphName="e" x="0" y="0" flags="0x4"/>
    </TTGlyph>
    <TTGlyph name="ebreve" xMin="80" yMin="-13" xMax="544" yMax="832">
      <component glyphName="e" x="0" y="0" flags="0x204"/>
      <component glyphName="breve" x="13" y="8" flags="0x4"/>
    </TTGlyph>
    <TTGlyph name="ecaron" xMin="80" yMin="-13" xMax="544" yMax="837">
      <component glyphName="caron" x="18" y="8" flags="0x204"/>
      <component glyphName="e" x="0" y="0" flags="0x4"/>
    </TTGlyph>
    <TTGlyph name="ecircumflex" xMin="80" yMin="-13" xMax="544" yMax="844">
      <component glyphName="circumflex" x="11" y="8" flags="0x204"/>
      <component glyphName="e" x="0" y="0" flags="0x4"/>
    </TTGlyph>
    <TTGlyph name="edieresis" xMin="80" yMin="-13" xMax="544" yMax="791">
      <component glyphName="dieresis" x="11" y="8" flags="0x204"/>
      <component glyphName="e" x="0" y="0" flags="0x4"/>
    </TTGlyph>
    <TTGlyph name="edotaccent" xMin="80" yMin="-13" xMax="544" yMax="791">
      <component glyphName="e" x="0" y="0" flags="0x204"/>
      <component glyphName="dotaccent" x="14" y="8" flags="0x4"/>
    </TTGlyph>
    <TTGlyph name="egrave" xMin="80" yMin="-13" xMax="544" yMax="861">
      <component glyphName="e" x="0" y="0" flags="0x204"/>
      <component glyphName="grave" x="-10" y="8" flags="0x4"/>
    </TTGlyph>
    <TTGlyph name="eight" xMin="86" yMin="-13" xMax="540" yMax="702">
      <contour>
        <pt x="300" y="-13" on="1"/>
        <pt x="253" y="-13" on="0"/>
        <pt x="175" y="10" on="0"/>
        <pt x="118" y="53" on="0"/>
        <pt x="86" y="114" on="0"/>
        <pt x="86" y="152" on="1"/>
        <pt x="86" y="215" on="0"/>
        <pt x="168" y="311" on="0"/>
        <pt x="238" y="347" on="1"/>
        <pt x="210" y="363" on="0"/>
        <pt x="159" y="400" on="0"/>
        <pt x="120" y="444" on="0"/>
        <pt x="97" y="494" on="0"/>
        <pt x="97" y="524" on="1"/>
        <pt x="97" y="557" on="0"/>
        <pt x="126" y="621" on="0"/>
        <pt x="183" y="671" on="0"/>
        <pt x="267" y="702" on="0"/>
        <pt x="321" y="702" on="1"/>
        <pt x="364" y="702" on="0"/>
        <pt x="440" y="679" on="0"/>
        <pt x="495" y="637" on="0"/>
        <pt x="527" y="578" on="0"/>
        <pt x="527" y="542" on="1"/>
        <pt x="527" y="479" on="0"/>
        <pt x="449" y="391" on="0"/>
        <pt x="380" y="358" on="1"/>
        <pt x="411" y="341" on="0"/>
        <pt x="469" y="303" on="0"/>
        <pt x="513" y="258" on="0"/>
        <pt x="540" y="205" on="0"/>
        <pt x="540" y="172" on="1"/>
        <pt x="540" y="133" on="0"/>
        <pt x="506" y="65" on="0"/>
        <pt x="443" y="16" on="0"/>
        <pt x="355" y="-13" on="0"/>
      </contour>
      <contour>
        <pt x="185" y="535" on="1"/>
        <pt x="185" y="510" on="0"/>
        <pt x="209" y="469" on="0"/>
        <pt x="249" y="433" on="0"/>
        <pt x="301" y="401" on="0"/>
        <pt x="330" y="385" on="1"/>
        <pt x="382" y="411" on="0"/>
        <pt x="441" y="481" on="0"/>
        <pt x="441" y="525" on="1"/>
        <pt x="441" y="571" on="0"/>
        <pt x="376" y="630" on="0"/>
        <pt x="313" y="630" on="1"/>
        <pt x="249" y="630" on="0"/>
        <pt x="185" y="573" on="0"/>
      </contour>
      <contour>
        <pt x="312" y="58" on="1"/>
        <pt x="376" y="58" on="0"/>
        <pt x="451" y="115" on="0"/>
        <pt x="451" y="160" on="1"/>
        <pt x="451" y="185" on="0"/>
        <pt x="423" y="228" on="0"/>
        <pt x="378" y="266" on="0"/>
        <pt x="318" y="300" on="0"/>
        <pt x="287" y="318" on="1"/>
        <pt x="232" y="291" on="0"/>
        <pt x="173" y="216" on="0"/>
        <pt x="173" y="172" on="1"/>
        <pt x="173" y="121" on="0"/>
        <pt x="243" y="58" on="0"/>
      </contour>
    </TTGlyph>
    <TTGlyph name="eight.den" xMin="143" yMin="-244" xMax="482" yMax="215">
      <component glyphName="eight.num" x="0" y="-705" flags="0x204"/>
    </TTGlyph>
    <TTGlyph name="eight.inf" xMin="143" yMin="-178" xMax="482" yMax="281">
      <component glyphName="eight.num" x="0" y="-639" flags="0x204"/>
    </TTGlyph>
    <TTGlyph name="eight.num" xMin="143" yMin="461" xMax="482" yMax="920">
      <contour>
        <pt x="303" y="461" on="1"/>
        <pt x="229" y="461" on="0"/>
        <pt x="143" y="522" on="0"/>
        <pt x="143" y="570" on="1"/>
        <pt x="143" y="611" on="0"/>
        <pt x="200" y="670" on="0"/>
        <pt x="252" y="690" on="1"/>
        <pt x="211" y="712" on="0"/>
        <pt x="151" y="765" on="0"/>
        <pt x="151" y="803" on="1"/>
        <pt x="151" y="824" on="0"/>
        <pt x="173" y="866" on="0"/>
        <pt x="215" y="899" on="0"/>
        <pt x="277" y="920" on="0"/>
        <pt x="318" y="920" on="1"/>
        <pt x="351" y="920" on="0"/>
        <pt x="408" y="905" on="0"/>
        <pt x="450" y="877" on="0"/>
        <pt x="474" y="837" on="0"/>
        <pt x="474" y="813" on="1"/>
        <pt x="474" y="775" on="0"/>
        <pt x="419" y="719" on="0"/>
        <pt x="370" y="698" on="1"/>
        <pt x="392" y="687" on="0"/>
        <pt x="432" y="663" on="0"/>
        <pt x="463" y="635" on="0"/>
        <pt x="482" y="602" on="0"/>
        <pt x="482" y="582" on="1"/>
        <pt x="482" y="558" on="0"/>
        <pt x="457" y="514" on="0"/>
        <pt x="411" y="481" on="0"/>
        <pt x="345" y="461" on="0"/>
      </contour>
      <contour>
        <pt x="225" y="809" on="1"/>
        <pt x="225" y="795" on="0"/>
        <pt x="241" y="771" on="0"/>
        <pt x="269" y="749" on="0"/>
        <pt x="306" y="730" on="0"/>
        <pt x="326" y="720" on="1"/>
        <pt x="362" y="735" on="0"/>
        <pt x="404" y="776" on="0"/>
        <pt x="404" y="801" on="1"/>
        <pt x="404" y="829" on="0"/>
        <pt x="357" y="864" on="0"/>
        <pt x="313" y="864" on="1"/>
        <pt x="270" y="864" on="0"/>
        <pt x="225" y="831" on="0"/>
      </contour>
      <contour>
        <pt x="311" y="517" on="1"/>
        <pt x="356" y="517" on="0"/>
        <pt x="407" y="552" on="0"/>
        <pt x="407" y="577" on="1"/>
        <pt x="407" y="591" on="0"/>
        <pt x="389" y="615" on="0"/>
        <pt x="358" y="637" on="0"/>
        <pt x="318" y="657" on="0"/>
        <pt x="296" y="668" on="1"/>
        <pt x="258" y="653" on="0"/>
        <pt x="215" y="610" on="0"/>
        <pt x="215" y="584" on="1"/>
        <pt x="215" y="555" on="0"/>
        <pt x="264" y="517" on="0"/>
      </contour>
    </TTGlyph>
    <TTGlyph name="eight.sup" xMin="143" yMin="350" xMax="482" yMax="809">
      <component glyphName="eight.num" x="0" y="-111" flags="0x204"/>
    </TTGlyph>
    <TTGlyph name="ellipsis" xMin="51" yMin="0" xMax="572" yMax="133">
      <contour>
        <pt x="457" y="0" on="1"/>
        <pt x="463" y="133" on="1"/>
        <pt x="572" y="133" on="1"/>
        <pt x="567" y="0" on="1"/>
      </contour>
      <contour>
        <pt x="254" y="0" on="1"/>
        <pt x="259" y="133" on="1"/>
        <pt x="369" y="133" on="1"/>
        <pt x="364" y="0" on="1"/>
      </contour>
      <contour>
        <pt x="51" y="0" on="1"/>
        <pt x="56" y="133" on="1"/>
        <pt x="166" y="133" on="1"/>
        <pt x="161" y="0" on="1"/>
      </contour>
    </TTGlyph>
    <TTGlyph name="emacron" xMin="80" yMin="-13" xMax="544" yMax="757">
      <component glyphName="e" x="0" y="0" flags="0x204"/>
      <component glyphName="macron" x="11" y="8" flags="0x4"/>
    </TTGlyph>
    <TTGlyph name="emdash" xMin="68" yMin="291" xMax="561" yMax="360">
      <contour>
        <pt x="555" y="291" on="1"/>
        <pt x="68" y="291" on="1"/>
        <pt x="68" y="360" on="1"/>
        <pt x="561" y="360" on="1"/>
      </contour>
    </TTGlyph>
    <TTGlyph name="endash" xMin="89" yMin="291" xMax="541" yMax="360">
      <contour>
        <pt x="533" y="291" on="1"/>
        <pt x="89" y="291" on="1"/>
        <pt x="89" y="360" on="1"/>
        <pt x="541" y="360" on="1"/>
      </contour>
    </TTGlyph>
    <TTGlyph name="eogonek" xMin="80" yMin="-238" xMax="544" yMax="557">
      <contour>
        <pt x="321" y="482" on="1"/>
        <pt x="254" y="482" on="0"/>
        <pt x="175" y="393" on="0"/>
        <pt x="170" y="305" on="1"/>
        <pt x="456" y="313" on="1"/>
        <pt x="455" y="391" on="0"/>
        <pt x="390" y="482" on="0"/>
      </contour>
      <contour>
        <pt x="421" y="-2" on="1"/>
        <pt x="325" y="0" on="0"/>
        <pt x="195" y="37" on="0"/>
        <pt x="115" y="105" on="0"/>
        <pt x="80" y="202" on="0"/>
        <pt x="80" y="264" on="1"/>
        <pt x="80" y="326" on="0"/>
        <pt x="121" y="433" on="0"/>
        <pt x="191" y="512" on="0"/>
        <pt x="284" y="557" on="0"/>
        <pt x="337" y="557" on="1"/>
        <pt x="387" y="557" on="0"/>
        <pt x="464" y="522" on="0"/>
        <pt x="517" y="459" on="0"/>
        <pt x="544" y="368" on="0"/>
        <pt x="544" y="313" on="1"/>
        <pt x="544" y="286" on="0"/>
        <pt x="541" y="258" on="1"/>
        <pt x="170" y="248" on="1"/>
        <pt x="173" y="200" on="0"/>
        <pt x="211" y="133" on="0"/>
        <pt x="292" y="89" on="0"/>
        <pt x="425" y="68" on="0"/>
        <pt x="523" y="65" on="1"/>
        <pt x="513" y="-10" on="1"/>
        <pt x="470" y="-27" on="0"/>
        <pt x="413" y="-56" on="0"/>
        <pt x="380" y="-81" on="0"/>
        <pt x="366" y="-102" on="0"/>
        <pt x="366" y="-111" on="1"/>
        <pt x="366" y="-131" on="0"/>
        <pt x="424" y="-158" on="0"/>
        <pt x="495" y="-165" on="1"/>
        <pt x="487" y="-238" on="1"/>
        <pt x="430" y="-234" on="0"/>
        <pt x="352" y="-215" on="0"/>
        <pt x="303" y="-189" on="0"/>
        <pt x="281" y="-155" on="0"/>
        <pt x="281" y="-136" on="1"/>
        <pt x="281" y="-104" on="0"/>
        <pt x="345" y="-38" on="0"/>
      </contour>
    </TTGlyph>
    <TTGlyph name="equal" xMin="93" yMin="168" xMax="531" yMax="491">
      <contour>
        <pt x="530" y="414" on="1"/>
        <pt x="93" y="414" on="1"/>
        <pt x="93" y="491" on="1"/>
        <pt x="531" y="491" on="1"/>
      </contour>
      <contour>
        <pt x="530" y="168" on="1"/>
        <pt x="93" y="168" on="1"/>
        <pt x="93" y="245" on="1"/>
        <pt x="531" y="245" on="1"/>
      </contour>
    </TTGlyph>
    <TTGlyph name="eth" xMin="69" yMin="-14" xMax="552" yMax="786">
      <contour>
        <pt x="301" y="-14" on="1"/>
        <pt x="253" y="-14" on="0"/>
        <pt x="168" y="21" on="0"/>
        <pt x="105" y="87" on="0"/>
        <pt x="69" y="181" on="0"/>
        <pt x="69" y="241" on="1"/>
        <pt x="69" y="307" on="0"/>
        <pt x="116" y="408" on="0"/>
        <pt x="196" y="476" on="0"/>
        <pt x="299" y="511" on="0"/>
        <pt x="355" y="511" on="1"/>
        <pt x="366" y="511" on="0"/>
        <pt x="386" y="511" on="0"/>
        <pt x="397" y="509" on="1"/>
        <pt x="362" y="563" on="0"/>
        <pt x="310" y="614" on="1"/>
        <pt x="164" y="540" on="1"/>
        <pt x="141" y="593" on="1"/>
        <pt x="263" y="654" on="1"/>
        <pt x="239" y="674" on="0"/>
        <pt x="186" y="711" on="0"/>
        <pt x="156" y="729" on="1"/>
        <pt x="213" y="786" on="1"/>
        <pt x="249" y="763" on="0"/>
        <pt x="312" y="717" on="0"/>
        <pt x="341" y="694" on="1"/>
        <pt x="468" y="758" on="1"/>
        <pt x="489" y="704" on="1"/>
        <pt x="386" y="652" on="1"/>
        <pt x="471" y="568" on="0"/>
        <pt x="552" y="385" on="0"/>
        <pt x="552" y="279" on="1"/>
        <pt x="552" y="207" on="0"/>
        <pt x="511" y="97" on="0"/>
        <pt x="442" y="23" on="0"/>
        <pt x="351" y="-14" on="0"/>
      </contour>
      <contour>
        <pt x="312" y="61" on="1"/>
        <pt x="382" y="61" on="0"/>
        <pt x="465" y="168" on="0"/>
        <pt x="465" y="271" on="1"/>
        <pt x="465" y="346" on="0"/>
        <pt x="441" y="418" on="1"/>
        <pt x="378" y="439" on="0"/>
        <pt x="329" y="439" on="1"/>
        <pt x="287" y="439" on="0"/>
        <pt x="223" y="412" on="0"/>
        <pt x="180" y="362" on="0"/>
        <pt x="158" y="294" on="0"/>
        <pt x="158" y="252" on="1"/>
        <pt x="158" y="208" on="0"/>
        <pt x="181" y="137" on="0"/>
        <pt x="222" y="88" on="0"/>
        <pt x="279" y="61" on="0"/>
      </contour>
    </TTGlyph>
    <TTGlyph name="exclam" xMin="245" yMin="0" xMax="381" yMax="751">
      <contour>
        <pt x="286" y="260" on="1"/>
        <pt x="286" y="284" on="0"/>
        <pt x="283" y="361" on="0"/>
        <pt x="279" y="453" on="0"/>
        <pt x="274" y="553" on="0"/>
        <pt x="269" y="647" on="0"/>
        <pt x="265" y="726" on="0"/>
        <pt x="265" y="751" on="1"/>
        <pt x="381" y="751" on="1"/>
        <pt x="380" y="726" on="0"/>
        <pt x="374" y="647" on="0"/>
        <pt x="366" y="553" on="0"/>
        <pt x="358" y="453" on="0"/>
        <pt x="351" y="361" on="0"/>
        <pt x="346" y="284" on="0"/>
        <pt x="346" y="260" on="1"/>
      </contour>
      <contour>
        <pt x="245" y="0" on="1"/>
        <pt x="248" y="123" on="1"/>
        <pt x="375" y="123" on="1"/>
        <pt x="372" y="0" on="1"/>
      </contour>
    </TTGlyph>
    <TTGlyph name="exclamdown" xMin="244" yMin="-62" xMax="380" yMax="689">
      <contour>
        <pt x="380" y="689" on="1"/>
        <pt x="378" y="566" on="1"/>
        <pt x="251" y="566" on="1"/>
        <pt x="253" y="689" on="1"/>
      </contour>
      <contour>
        <pt x="338" y="429" on="1"/>
        <pt x="338" y="405" on="0"/>
        <pt x="341" y="327" on="0"/>
        <pt x="346" y="235" on="0"/>
        <pt x="351" y="135" on="0"/>
        <pt x="356" y="42" on="0"/>
        <pt x="359" y="-37" on="0"/>
        <pt x="360" y="-62" on="1"/>
        <pt x="244" y="-62" on="1"/>
        <pt x="245" y="-37" on="0"/>
        <pt x="251" y="42" on="0"/>
        <pt x="258" y="135" on="0"/>
        <pt x="266" y="235" on="0"/>
        <pt x="273" y="327" on="0"/>
        <pt x="278" y="405" on="0"/>
        <pt x="279" y="429" on="1"/>
      </contour>
    </TTGlyph>
    <TTGlyph name="f" xMin="90" yMin="0" xMax="577" yMax="786">
      <contour>
        <pt x="523" y="0" on="1"/>
        <pt x="96" y="0" on="1"/>
        <pt x="96" y="69" on="1"/>
        <pt x="245" y="69" on="1"/>
        <pt x="245" y="461" on="1"/>
        <pt x="90" y="461" on="1"/>
        <pt x="98" y="531" on="1"/>
        <pt x="245" y="531" on="1"/>
        <pt x="245" y="585" on="0"/>
        <pt x="277" y="675" on="0"/>
        <pt x="353" y="741" on="0"/>
        <pt x="478" y="781" on="0"/>
        <pt x="571" y="786" on="1"/>
        <pt x="577" y="698" on="1"/>
        <pt x="497" y="694" on="0"/>
        <pt x="402" y="678" on="0"/>
        <pt x="351" y="643" on="0"/>
        <pt x="336" y="587" on="0"/>
        <pt x="336" y="544" on="1"/>
        <pt x="336" y="531" on="1"/>
        <pt x="542" y="531" on="1"/>
        <pt x="542" y="461" on="1"/>
        <pt x="336" y="461" on="1"/>
        <pt x="336" y="69" on="1"/>
        <pt x="531" y="69" on="1"/>
      </contour>
    </TTGlyph>
    <TTGlyph name="five" xMin="106" yMin="-13" xMax="530" yMax="688">
      <contour>
        <pt x="530" y="228" on="1"/>
        <pt x="530" y="182" on="0"/>
        <pt x="481" y="101" on="0"/>
        <pt x="379" y="38" on="0"/>
        <pt x="221" y="-5" on="0"/>
        <pt x="112" y="-13" on="1"/>
        <pt x="106" y="71" on="1"/>
        <pt x="200" y="80" on="0"/>
        <pt x="330" y="107" on="0"/>
        <pt x="410" y="144" on="0"/>
        <pt x="445" y="193" on="0"/>
        <pt x="445" y="224" on="1"/>
        <pt x="445" y="248" on="0"/>
        <pt x="413" y="290" on="0"/>
        <pt x="338" y="325" on="0"/>
        <pt x="214" y="351" on="0"/>
        <pt x="123" y="358" on="1"/>
        <pt x="144" y="688" on="1"/>
        <pt x="509" y="688" on="1"/>
        <pt x="501" y="608" on="1"/>
        <pt x="221" y="609" on="1"/>
        <pt x="208" y="421" on="1"/>
        <pt x="300" y="411" on="0"/>
        <pt x="424" y="373" on="0"/>
        <pt x="499" y="323" on="0"/>
        <pt x="530" y="262" on="0"/>
      </contour>
    </TTGlyph>
    <TTGlyph name="five.den" xMin="159" yMin="-245" xMax="476" yMax="205">
      <component glyphName="five.num" x="0" y="-705" flags="0x204"/>
    </TTGlyph>
    <TTGlyph name="five.inf" xMin="159" yMin="-179" xMax="476" yMax="271">
      <component glyphName="five.num" x="0" y="-639" flags="0x204"/>
    </TTGlyph>
    <TTGlyph name="five.num" xMin="159" yMin="460" xMax="476" yMax="910">
      <contour>
        <pt x="476" y="615" on="1"/>
        <pt x="476" y="555" on="0"/>
        <pt x="325" y="471" on="0"/>
        <pt x="164" y="460" on="1"/>
        <pt x="159" y="528" on="1"/>
        <pt x="227" y="533" on="0"/>
        <pt x="322" y="548" on="0"/>
        <pt x="381" y="569" on="0"/>
        <pt x="407" y="597" on="0"/>
        <pt x="407" y="614" on="1"/>
        <pt x="407" y="628" on="0"/>
        <pt x="382" y="652" on="0"/>
        <pt x="327" y="671" on="0"/>
        <pt x="236" y="686" on="0"/>
        <pt x="170" y="690" on="1"/>
        <pt x="186" y="910" on="1"/>
        <pt x="462" y="910" on="1"/>
        <pt x="456" y="847" on="1"/>
        <pt x="247" y="847" on="1"/>
        <pt x="238" y="741" on="1"/>
        <pt x="306" y="735" on="0"/>
        <pt x="397" y="711" on="0"/>
        <pt x="453" y="678" on="0"/>
        <pt x="476" y="637" on="0"/>
      </contour>
    </TTGlyph>
    <TTGlyph name="five.sup" xMin="159" yMin="349" xMax="476" yMax="799">
      <component glyphName="five.num" x="0" y="-111" flags="0x204"/>
    </TTGlyph>
    <TTGlyph name="fiveeighths" xMin="75" yMin="-244" xMax="549" yMax="910">
      <component glyphName="eight.num" x="0" y="-705" flags="0x204"/>
      <component glyphName="fraction.afrc" x="0" y="0" flags="0x4"/>
      <component glyphName="five.num" x="0" y="0" flags="0x4"/>
    </TTGlyph>
    <TTGlyph name="fivesixths" xMin="75" yMin="-243" xMax="549" yMax="910">
      <component glyphName="six.num" x="0" y="-705" flags="0x204"/>
      <component glyphName="fraction.afrc" x="0" y="0" flags="0x4"/>
      <component glyphName="five.num" x="0" y="0" flags="0x4"/>
    </TTGlyph>
    <TTGlyph name="four" xMin="98" yMin="0" xMax="574" yMax="696">
      <contour>
        <pt x="490" y="142" on="1"/>
        <pt x="490" y="0" on="1"/>
        <pt x="405" y="0" on="1"/>
        <pt x="405" y="142" on="1"/>
        <pt x="98" y="142" on="1"/>
        <pt x="98" y="163" on="1"/>
        <pt x="98" y="213" on="0"/>
        <pt x="108" y="337" on="0"/>
        <pt x="126" y="476" on="0"/>
        <pt x="154" y="623" on="0"/>
        <pt x="172" y="696" on="1"/>
        <pt x="269" y="690" on="1"/>
        <pt x="263" y="665" on="0"/>
        <pt x="244" y="584" on="0"/>
        <pt x="223" y="490" on="0"/>
        <pt x="201" y="391" on="0"/>
        <pt x="183" y="304" on="0"/>
        <pt x="170" y="236" on="0"/>
        <pt x="169" y="221" on="1"/>
        <pt x="405" y="221" on="1"/>
        <pt x="405" y="462" on="1"/>
        <pt x="490" y="472" on="1"/>
        <pt x="490" y="221" on="1"/>
        <pt x="574" y="221" on="1"/>
        <pt x="566" y="142" on="1"/>
      </contour>
    </TTGlyph>
    <TTGlyph name="four.den" xMin="152" yMin="-233" xMax="506" yMax="213">
      <component glyphName="four.num" x="0" y="-705" flags="0x204"/>
    </TTGlyph>
    <TTGlyph name="four.inf" xMin="152" yMin="-167" xMax="506" yMax="279">
      <component glyphName="four.num" x="0" y="-639" flags="0x204"/>
    </TTGlyph>
    <TTGlyph name="four.num" xMin="152" yMin="472" xMax="506" yMax="918">
      <contour>
        <pt x="444" y="562" on="1"/>
        <pt x="445" y="472" on="1"/>
        <pt x="375" y="472" on="1"/>
        <pt x="376" y="562" on="1"/>
        <pt x="152" y="561" on="1"/>
        <pt x="152" y="579" on="1"/>
        <pt x="152" y="611" on="0"/>
        <pt x="159" y="691" on="0"/>
        <pt x="172" y="779" on="0"/>
        <pt x="192" y="872" on="0"/>
        <pt x="205" y="918" on="1"/>
        <pt x="284" y="912" on="1"/>
        <pt x="278" y="891" on="0"/>
        <pt x="255" y="805" on="0"/>
        <pt x="232" y="713" on="0"/>
        <pt x="215" y="635" on="0"/>
        <pt x="214" y="622" on="1"/>
        <pt x="377" y="622" on="1"/>
        <pt x="375" y="767" on="1"/>
        <pt x="445" y="773" on="1"/>
        <pt x="443" y="622" on="1"/>
        <pt x="506" y="622" on="1"/>
        <pt x="501" y="561" on="1"/>
      </contour>
    </TTGlyph>
    <TTGlyph name="four.sup" xMin="152" yMin="361" xMax="506" yMax="807">
      <component glyphName="four.num" x="0" y="-111" flags="0x204"/>
    </TTGlyph>
    <TTGlyph name="fourfifths" xMin="75" yMin="-245" xMax="549" yMax="918">
      <component glyphName="four.num" x="0" y="0" flags="0x204"/>
      <component glyphName="five.num" x="0" y="-705" flags="0x4"/>
      <component glyphName="fraction.afrc" x="0" y="0" flags="0x4"/>
    </TTGlyph>
    <TTGlyph name="fraction" xMin="45" yMin="-178" xMax="572" yMax="837">
      <contour>
        <pt x="45" y="-145" on="1"/>
        <pt x="495" y="837" on="1"/>
        <pt x="572" y="805" on="1"/>
        <pt x="121" y="-178" on="1"/>
      </contour>
    </TTGlyph>
    <TTGlyph name="fraction.afrc" xMin="75" yMin="308" xMax="549" yMax="369">
      <contour>
        <pt x="75" y="369" on="1"/>
        <pt x="549" y="369" on="1"/>
        <pt x="549" y="308" on="1"/>
        <pt x="75" y="308" on="1"/>
      </contour>
    </TTGlyph>
    <TTGlyph name="g" xMin="71" yMin="-192" xMax="522" yMax="556">
      <contour>
        <pt x="138" y="-109" on="1"/>
        <pt x="234" y="-102" on="0"/>
        <pt x="349" y="-79" on="0"/>
        <pt x="410" y="-35" on="0"/>
        <pt x="430" y="38" on="0"/>
        <pt x="431" y="95" on="1"/>
        <pt x="402" y="73" on="0"/>
        <pt x="324" y="42" on="0"/>
        <pt x="276" y="42" on="1"/>
        <pt x="232" y="42" on="0"/>
        <pt x="157" y="74" on="0"/>
        <pt x="102" y="133" on="0"/>
        <pt x="71" y="218" on="0"/>
        <pt x="71" y="272" on="1"/>
        <pt x="71" y="338" on="0"/>
        <pt x="118" y="443" on="0"/>
        <pt x="198" y="517" on="0"/>
        <pt x="303" y="556" on="0"/>
        <pt x="361" y="556" on="1"/>
        <pt x="401" y="556" on="0"/>
        <pt x="479" y="543" on="0"/>
        <pt x="520" y="531" on="1"/>
        <pt x="520" y="520" on="0"/>
        <pt x="521" y="461" on="0"/>
        <pt x="521" y="382" on="0"/>
        <pt x="522" y="292" on="0"/>
        <pt x="522" y="209" on="0"/>
        <pt x="522" y="143" on="0"/>
        <pt x="522" y="127" on="1"/>
        <pt x="522" y="56" on="0"/>
        <pt x="489" y="-57" on="0"/>
        <pt x="405" y="-138" on="0"/>
        <pt x="259" y="-186" on="0"/>
        <pt x="147" y="-192" on="1"/>
      </contour>
      <contour>
        <pt x="310" y="115" on="1"/>
        <pt x="342" y="115" on="0"/>
        <pt x="404" y="135" on="0"/>
        <pt x="431" y="151" on="1"/>
        <pt x="431" y="462" on="1"/>
        <pt x="405" y="470" on="0"/>
        <pt x="355" y="479" on="0"/>
        <pt x="329" y="479" on="1"/>
        <pt x="293" y="479" on="0"/>
        <pt x="232" y="455" on="0"/>
        <pt x="187" y="408" on="0"/>
        <pt x="161" y="339" on="0"/>
        <pt x="161" y="294" on="1"/>
        <pt x="161" y="204" on="0"/>
        <pt x="246" y="115" on="0"/>
      </contour>
    </TTGlyph>
    <TTGlyph name="gbreve" xMin="71" yMin="-192" xMax="539" yMax="831">
      <component glyphName="g" x="0" y="0" flags="0x204"/>
      <component glyphName="breve" x="16" y="7" flags="0x4"/>
    </TTGlyph>
    <TTGlyph name="gcommaaccent" xMin="71" yMin="-192" xMax="522" yMax="867">
      <component glyphName="commaaccent.rot" x="12" y="7" flags="0x204"/>
      <component glyphName="g" x="0" y="0" flags="0x4"/>
    </TTGlyph>
    <TTGlyph name="gdotaccent" xMin="71" yMin="-192" xMax="522" yMax="790">
      <component glyphName="g" x="0" y="0" flags="0x204"/>
      <component glyphName="dotaccent" x="17" y="7" flags="0x4"/>
    </TTGlyph>
    <TTGlyph name="germandbls" xMin="99" yMin="-8" xMax="580" yMax="785">
      <contour>
        <pt x="384" y="394" on="1"/>
        <pt x="384" y="375" on="0"/>
        <pt x="413" y="342" on="0"/>
        <pt x="457" y="309" on="0"/>
        <pt x="507" y="275" on="0"/>
        <pt x="551" y="234" on="0"/>
        <pt x="580" y="184" on="0"/>
        <pt x="580" y="152" on="1"/>
        <pt x="580" y="122" on="0"/>
        <pt x="555" y="65" on="0"/>
        <pt x="497" y="20" on="0"/>
        <pt x="404" y="-8" on="0"/>
        <pt x="335" y="-8" on="1"/>
        <pt x="325" y="-8" on="0"/>
        <pt x="306" y="-8" on="0"/>
        <pt x="296" y="-7" on="1"/>
        <pt x="300" y="75" on="1"/>
        <pt x="317" y="73" on="0"/>
        <pt x="345" y="71" on="0"/>
        <pt x="358" y="71" on="1"/>
        <pt x="429" y="71" on="0"/>
        <pt x="490" y="115" on="0"/>
        <pt x="490" y="146" on="1"/>
        <pt x="490" y="166" on="0"/>
        <pt x="461" y="201" on="0"/>
        <pt x="418" y="233" on="0"/>
        <pt x="368" y="266" on="0"/>
        <pt x="325" y="305" on="0"/>
        <pt x="296" y="352" on="0"/>
        <pt x="296" y="383" on="1"/>
        <pt x="296" y="415" on="0"/>
        <pt x="331" y="470" on="0"/>
        <pt x="373" y="524" on="0"/>
        <pt x="408" y="580" on="0"/>
        <pt x="408" y="613" on="1"/>
        <pt x="408" y="649" on="0"/>
        <pt x="360" y="707" on="0"/>
        <pt x="311" y="707" on="1"/>
        <pt x="189" y="707" on="0"/>
        <pt x="189" y="531" on="1"/>
        <pt x="189" y="0" on="1"/>
        <pt x="99" y="0" on="1"/>
        <pt x="99" y="511" on="1"/>
        <pt x="99" y="570" on="0"/>
        <pt x="129" y="671" on="0"/>
        <pt x="188" y="744" on="0"/>
        <pt x="275" y="785" on="0"/>
        <pt x="331" y="785" on="1"/>
        <pt x="375" y="785" on="0"/>
        <pt x="438" y="758" on="0"/>
        <pt x="479" y="714" on="0"/>
        <pt x="499" y="659" on="0"/>
        <pt x="499" y="631" on="1"/>
        <pt x="499" y="584" on="0"/>
        <pt x="463" y="516" on="0"/>
        <pt x="420" y="462" on="0"/>
        <pt x="384" y="417" on="0"/>
      </contour>
    </TTGlyph>
    <TTGlyph name="grave" xMin="159" yMin="613" xMax="445" yMax="853">
      <contour>
        <pt x="418" y="613" on="1"/>
        <pt x="390" y="628" on="0"/>
        <pt x="321" y="667" on="0"/>
        <pt x="251" y="712" on="0"/>
        <pt x="184" y="757" on="0"/>
        <pt x="159" y="778" on="1"/>
        <pt x="226" y="853" on="1"/>
        <pt x="247" y="830" on="0"/>
        <pt x="304" y="775" on="0"/>
        <pt x="364" y="720" on="0"/>
        <pt x="422" y="670" on="0"/>
        <pt x="445" y="653" on="1"/>
      </contour>
    </TTGlyph>
    <TTGlyph name="grave.cap" xMin="159" yMin="613" xMax="445" yMax="853">
      <contour>
        <pt x="418" y="613" on="1"/>
        <pt x="390" y="628" on="0"/>
        <pt x="321" y="667" on="0"/>
        <pt x="251" y="712" on="0"/>
        <pt x="184" y="757" on="0"/>
        <pt x="159" y="778" on="1"/>
        <pt x="226" y="853" on="1"/>
        <pt x="247" y="830" on="0"/>
        <pt x="304" y="775" on="0"/>
        <pt x="364" y="720" on="0"/>
        <pt x="422" y="670" on="0"/>
        <pt x="445" y="653" on="1"/>
      </contour>
    </TTGlyph>
    <TTGlyph name="greater" xMin="103" yMin="-25" xMax="524" yMax="669">
      <contour>
        <pt x="103" y="39" on="1"/>
        <pt x="440" y="319" on="1"/>
        <pt x="440" y="330" on="1"/>
        <pt x="108" y="604" on="1"/>
        <pt x="160" y="669" on="1"/>
        <pt x="524" y="363" on="1"/>
        <pt x="524" y="286" on="1"/>
        <pt x="154" y="-25" on="1"/>
      </contour>
    </TTGlyph>
    <TTGlyph name="greaterequal" xMin="91" yMin="16" xMax="534" yMax="660">
      <contour>
        <pt x="534" y="93" on="1"/>
        <pt x="534" y="16" on="1"/>
        <pt x="91" y="16" on="1"/>
        <pt x="91" y="93" on="1"/>
      </contour>
      <contour>
        <pt x="112" y="592" on="1"/>
        <pt x="149" y="660" on="1"/>
        <pt x="524" y="426" on="1"/>
        <pt x="526" y="353" on="1"/>
        <pt x="141" y="149" on="1"/>
        <pt x="111" y="220" on="1"/>
        <pt x="431" y="389" on="1"/>
        <pt x="431" y="397" on="1"/>
      </contour>
    </TTGlyph>
    <TTGlyph name="guillemotleft" xMin="54" yMin="-19" xMax="578" yMax="562">
      <contour>
        <pt x="54" y="227" on="1"/>
        <pt x="59" y="318" on="1"/>
        <pt x="247" y="562" on="1"/>
        <pt x="313" y="507" on="1"/>
        <pt x="123" y="276" on="1"/>
        <pt x="311" y="34" on="1"/>
        <pt x="243" y="-19" on="1"/>
      </contour>
      <contour>
        <pt x="319" y="227" on="1"/>
        <pt x="324" y="318" on="1"/>
        <pt x="512" y="562" on="1"/>
        <pt x="578" y="507" on="1"/>
        <pt x="387" y="275" on="1"/>
        <pt x="576" y="34" on="1"/>
        <pt x="508" y="-19" on="1"/>
      </contour>
    </TTGlyph>
    <TTGlyph name="guillemotleft.cap" xMin="54" yMin="52" xMax="578" yMax="633">
      <component glyphName="guillemotleft" x="0" y="71" flags="0x204"/>
    </TTGlyph>
    <TTGlyph name="guillemotright" xMin="47" yMin="-19" xMax="571" yMax="562">
      <contour>
        <pt x="312" y="36" on="1"/>
        <pt x="503" y="269" on="1"/>
        <pt x="315" y="510" on="1"/>
        <pt x="382" y="562" on="1"/>
        <pt x="571" y="316" on="1"/>
        <pt x="566" y="225" on="1"/>
        <pt x="378" y="-19" on="1"/>
      </contour>
      <contour>
        <pt x="47" y="36" on="1"/>
        <pt x="238" y="269" on="1"/>
        <pt x="50" y="510" on="1"/>
        <pt x="117" y="562" on="1"/>
        <pt x="306" y="316" on="1"/>
        <pt x="301" y="225" on="1"/>
        <pt x="113" y="-19" on="1"/>
      </contour>
    </TTGlyph>
    <TTGlyph name="guillemotright.cap" xMin="47" yMin="52" xMax="571" yMax="633">
      <component glyphName="guillemotright" x="0" y="71" flags="0x204"/>
    </TTGlyph>
    <TTGlyph name="guilsinglleft" xMin="147" yMin="-19" xMax="483" yMax="563">
      <contour>
        <pt x="147" y="227" on="1"/>
        <pt x="152" y="318" on="1"/>
        <pt x="423" y="563" on="1"/>
        <pt x="483" y="500" on="1"/>
        <pt x="220" y="273" on="1"/>
        <pt x="477" y="44" on="1"/>
        <pt x="416" y="-19" on="1"/>
      </contour>
    </TTGlyph>
    <TTGlyph name="guilsinglleft.cap" xMin="147" yMin="52" xMax="483" yMax="634">
      <component glyphName="guilsinglleft" x="0" y="71" flags="0x204"/>
    </TTGlyph>
    <TTGlyph name="guilsinglright" xMin="143" yMin="-19" xMax="479" yMax="563">
      <contour>
        <pt x="143" y="45" on="1"/>
        <pt x="406" y="271" on="1"/>
        <pt x="148" y="501" on="1"/>
        <pt x="209" y="563" on="1"/>
        <pt x="479" y="318" on="1"/>
        <pt x="473" y="227" on="1"/>
        <pt x="203" y="-19" on="1"/>
      </contour>
    </TTGlyph>
    <TTGlyph name="guilsinglright.cap" xMin="143" yMin="52" xMax="479" yMax="634">
      <component glyphName="guilsinglright" x="0" y="71" flags="0x204"/>
    </TTGlyph>
    <TTGlyph name="h" xMin="104" yMin="0" xMax="530" yMax="784">
      <contour>
        <pt x="330" y="479" on="1"/>
        <pt x="292" y="479" on="0"/>
        <pt x="226" y="454" on="0"/>
        <pt x="195" y="434" on="1"/>
        <pt x="195" y="0" on="1"/>
        <pt x="104" y="0" on="1"/>
        <pt x="104" y="776" on="1"/>
        <pt x="195" y="784" on="1"/>
        <pt x="195" y="491" on="1"/>
        <pt x="229" y="517" on="0"/>
        <pt x="314" y="557" on="0"/>
        <pt x="368" y="557" on="1"/>
        <pt x="442" y="557" on="0"/>
        <pt x="530" y="468" on="0"/>
        <pt x="530" y="368" on="1"/>
        <pt x="530" y="0" on="1"/>
        <pt x="439" y="0" on="1"/>
        <pt x="439" y="338" on="1"/>
        <pt x="439" y="417" on="0"/>
        <pt x="382" y="479" on="0"/>
      </contour>
    </TTGlyph>
    <TTGlyph name="hbar" xMin="27" yMin="0" xMax="530" yMax="784">
      <contour>
        <pt x="330" y="479" on="1"/>
        <pt x="292" y="479" on="0"/>
        <pt x="226" y="454" on="0"/>
        <pt x="195" y="434" on="1"/>
        <pt x="195" y="0" on="1"/>
        <pt x="104" y="0" on="1"/>
        <pt x="104" y="641" on="1"/>
        <pt x="27" y="641" on="1"/>
        <pt x="27" y="701" on="1"/>
        <pt x="104" y="701" on="1"/>
        <pt x="104" y="776" on="1"/>
        <pt x="195" y="784" on="1"/>
        <pt x="195" y="701" on="1"/>
        <pt x="341" y="701" on="1"/>
        <pt x="341" y="642" on="1"/>
        <pt x="195" y="642" on="1"/>
        <pt x="195" y="489" on="1"/>
        <pt x="229" y="515" on="0"/>
        <pt x="314" y="555" on="0"/>
        <pt x="368" y="555" on="1"/>
        <pt x="405" y="555" on="0"/>
        <pt x="465" y="534" on="0"/>
        <pt x="507" y="488" on="0"/>
        <pt x="530" y="417" on="0"/>
        <pt x="530" y="368" on="1"/>
        <pt x="530" y="0" on="1"/>
        <pt x="439" y="0" on="1"/>
        <pt x="439" y="338" on="1"/>
        <pt x="439" y="417" on="0"/>
        <pt x="382" y="479" on="0"/>
      </contour>
    </TTGlyph>
    <TTGlyph name="hcoslug" xMin="50" yMin="-100" xMax="644" yMax="700">
      <contour>
        <pt x="644" y="-100" on="1"/>
        <pt x="50" y="-100" on="1"/>
        <pt x="50" y="700" on="1"/>
        <pt x="644" y="700" on="1"/>
      </contour>
      <contour>
        <pt x="247" y="428" on="1"/>
        <pt x="247" y="441" on="0"/>
        <pt x="262" y="457" on="0"/>
        <pt x="274" y="457" on="1"/>
        <pt x="287" y="457" on="0"/>
        <pt x="303" y="436" on="0"/>
        <pt x="303" y="419" on="1"/>
        <pt x="303" y="406" on="0"/>
        <pt x="293" y="382" on="0"/>
        <pt x="285" y="369" on="1"/>
        <pt x="268" y="386" on="0"/>
        <pt x="247" y="411" on="0"/>
      </contour>
      <contour>
        <pt x="312" y="342" on="1"/>
        <pt x="342" y="362" on="0"/>
        <pt x="354" y="376" on="1"/>
        <pt x="369" y="361" on="0"/>
        <pt x="369" y="342" on="1"/>
        <pt x="369" y="325" on="0"/>
        <pt x="353" y="296" on="1"/>
        <pt x="343" y="307" on="0"/>
        <pt x="324" y="330" on="0"/>
      </contour>
      <contour>
        <pt x="261" y="219" on="1"/>
        <pt x="238" y="219" on="0"/>
        <pt x="209" y="250" on="0"/>
        <pt x="209" y="273" on="1"/>
        <pt x="209" y="297" on="0"/>
        <pt x="225" y="313" on="1"/>
        <pt x="239" y="300" on="0"/>
        <pt x="278" y="257" on="0"/>
        <pt x="299" y="231" on="1"/>
        <pt x="284" y="219" on="0"/>
      </contour>
      <contour>
        <pt x="382" y="264" on="1"/>
        <pt x="393" y="279" on="0"/>
        <pt x="417" y="299" on="0"/>
        <pt x="428" y="306" on="1"/>
        <pt x="435" y="295" on="0"/>
        <pt x="457" y="281" on="0"/>
        <pt x="471" y="281" on="1"/>
        <pt x="492" y="281" on="0"/>
        <pt x="521" y="312" on="0"/>
        <pt x="521" y="335" on="1"/>
        <pt x="521" y="358" on="0"/>
        <pt x="492" y="387" on="0"/>
        <pt x="471" y="387" on="1"/>
        <pt x="436" y="387" on="0"/>
        <pt x="411" y="349" on="1"/>
        <pt x="409" y="369" on="0"/>
        <pt x="385" y="386" on="0"/>
        <pt x="365" y="386" on="1"/>
        <pt x="362" y="386" on="1"/>
        <pt x="371" y="401" on="0"/>
        <pt x="371" y="420" on="1"/>
        <pt x="371" y="433" on="0"/>
        <pt x="359" y="460" on="0"/>
        <pt x="335" y="481" on="0"/>
        <pt x="299" y="494" on="0"/>
        <pt x="276" y="494" on="1"/>
        <pt x="251" y="494" on="0"/>
        <pt x="211" y="480" on="0"/>
        <pt x="182" y="456" on="0"/>
        <pt x="167" y="425" on="0"/>
        <pt x="167" y="409" on="1"/>
        <pt x="167" y="387" on="0"/>
        <pt x="182" y="357" on="0"/>
        <pt x="198" y="340" on="1"/>
        <pt x="116" y="312" on="0"/>
        <pt x="116" y="249" on="1"/>
        <pt x="116" y="229" on="0"/>
        <pt x="133" y="195" on="0"/>
        <pt x="163" y="170" on="0"/>
        <pt x="202" y="156" on="0"/>
        <pt x="225" y="156" on="1"/>
        <pt x="288" y="156" on="0"/>
        <pt x="329" y="201" on="1"/>
        <pt x="354" y="175" on="0"/>
        <pt x="391" y="156" on="0"/>
        <pt x="414" y="156" on="1"/>
        <pt x="446" y="156" on="0"/>
        <pt x="492" y="206" on="0"/>
        <pt x="494" y="250" on="1"/>
        <pt x="487" y="252" on="1"/>
        <pt x="479" y="239" on="0"/>
        <pt x="460" y="223" on="0"/>
        <pt x="444" y="223" on="1"/>
        <pt x="429" y="223" on="0"/>
        <pt x="401" y="242" on="0"/>
      </contour>
      <contour>
        <pt x="274" y="122" on="1"/>
        <pt x="274" y="113" on="1"/>
        <pt x="267" y="113" on="1"/>
        <pt x="267" y="106" on="1"/>
        <pt x="274" y="106" on="1"/>
        <pt x="274" y="86" on="1"/>
        <pt x="274" y="73" on="0"/>
        <pt x="286" y="73" on="1"/>
        <pt x="297" y="73" on="0"/>
        <pt x="300" y="86" on="1"/>
        <pt x="295" y="88" on="1"/>
        <pt x="294" y="81" on="0"/>
        <pt x="290" y="81" on="1"/>
        <pt x="286" y="81" on="0"/>
        <pt x="286" y="86" on="1"/>
        <pt x="286" y="106" on="1"/>
        <pt x="299" y="106" on="1"/>
        <pt x="299" y="113" on="1"/>
        <pt x="286" y="113" on="1"/>
        <pt x="286" y="124" on="1"/>
      </contour>
      <contour>
        <pt x="174" y="94" on="1"/>
        <pt x="174" y="84" on="0"/>
        <pt x="186" y="73" on="0"/>
        <pt x="195" y="73" on="1"/>
        <pt x="204" y="73" on="0"/>
        <pt x="216" y="85" on="0"/>
        <pt x="216" y="94" on="1"/>
        <pt x="216" y="103" on="0"/>
        <pt x="204" y="114" on="0"/>
        <pt x="195" y="114" on="1"/>
        <pt x="186" y="114" on="0"/>
        <pt x="174" y="103" on="0"/>
      </contour>
      <contour>
        <pt x="203" y="94" on="1"/>
        <pt x="203" y="78" on="0"/>
        <pt x="195" y="78" on="1"/>
        <pt x="187" y="78" on="0"/>
        <pt x="187" y="94" on="1"/>
        <pt x="187" y="109" on="0"/>
        <pt x="195" y="109" on="1"/>
        <pt x="203" y="109" on="0"/>
      </contour>
      <contour>
        <pt x="379" y="93" on="1"/>
        <pt x="379" y="80" on="0"/>
        <pt x="372" y="80" on="1"/>
        <pt x="364" y="80" on="0"/>
        <pt x="364" y="93" on="1"/>
        <pt x="364" y="106" on="0"/>
        <pt x="372" y="106" on="1"/>
        <pt x="379" y="106" on="0"/>
      </contour>
      <contour>
        <pt x="219" y="74" on="1"/>
        <pt x="241" y="74" on="1"/>
        <pt x="241" y="81" on="1"/>
        <pt x="237" y="81" on="1"/>
        <pt x="237" y="96" on="1"/>
        <pt x="237" y="106" on="0"/>
        <pt x="244" y="106" on="1"/>
        <pt x="250" y="106" on="0"/>
        <pt x="250" y="99" on="1"/>
        <pt x="250" y="81" on="1"/>
        <pt x="246" y="81" on="1"/>
        <pt x="246" y="74" on="1"/>
        <pt x="268" y="74" on="1"/>
        <pt x="268" y="81" on="1"/>
        <pt x="262" y="81" on="1"/>
        <pt x="262" y="100" on="1"/>
        <pt x="262" y="114" on="0"/>
        <pt x="250" y="114" on="1"/>
        <pt x="241" y="114" on="0"/>
        <pt x="236" y="103" on="1"/>
        <pt x="236" y="113" on="1"/>
        <pt x="219" y="113" on="1"/>
        <pt x="219" y="106" on="1"/>
        <pt x="225" y="106" on="1"/>
        <pt x="225" y="81" on="1"/>
        <pt x="219" y="81" on="1"/>
      </contour>
      <contour>
        <pt x="125" y="74" on="1"/>
        <pt x="155" y="74" on="1"/>
        <pt x="155" y="81" on="1"/>
        <pt x="145" y="81" on="1"/>
        <pt x="145" y="97" on="1"/>
        <pt x="149" y="97" on="1"/>
        <pt x="154" y="97" on="0"/>
        <pt x="155" y="89" on="1"/>
        <pt x="162" y="89" on="1"/>
        <pt x="162" y="112" on="1"/>
        <pt x="155" y="112" on="1"/>
        <pt x="154" y="104" on="0"/>
        <pt x="149" y="104" on="1"/>
        <pt x="145" y="104" on="1"/>
        <pt x="145" y="122" on="1"/>
        <pt x="157" y="122" on="1"/>
        <pt x="162" y="122" on="0"/>
        <pt x="166" y="117" on="0"/>
        <pt x="168" y="109" on="1"/>
        <pt x="176" y="109" on="1"/>
        <pt x="176" y="129" on="1"/>
        <pt x="125" y="129" on="1"/>
        <pt x="125" y="122" on="1"/>
        <pt x="132" y="122" on="1"/>
        <pt x="132" y="81" on="1"/>
        <pt x="125" y="81" on="1"/>
      </contour>
      <contour>
        <pt x="302" y="74" on="1"/>
        <pt x="309" y="74" on="1"/>
        <pt x="310" y="78" on="1"/>
        <pt x="312" y="76" on="0"/>
        <pt x="318" y="73" on="0"/>
        <pt x="323" y="73" on="1"/>
        <pt x="337" y="73" on="0"/>
        <pt x="337" y="86" on="1"/>
        <pt x="337" y="92" on="0"/>
        <pt x="329" y="97" on="0"/>
        <pt x="320" y="99" on="0"/>
        <pt x="313" y="101" on="0"/>
        <pt x="313" y="104" on="1"/>
        <pt x="313" y="108" on="0"/>
        <pt x="318" y="108" on="1"/>
        <pt x="323" y="108" on="0"/>
        <pt x="328" y="101" on="1"/>
        <pt x="335" y="101" on="1"/>
        <pt x="335" y="114" on="1"/>
        <pt x="329" y="114" on="1"/>
        <pt x="327" y="109" on="1"/>
        <pt x="324" y="114" on="0"/>
        <pt x="316" y="114" on="1"/>
        <pt x="309" y="114" on="0"/>
        <pt x="302" y="107" on="0"/>
        <pt x="302" y="102" on="1"/>
        <pt x="302" y="96" on="0"/>
        <pt x="309" y="91" on="0"/>
        <pt x="318" y="88" on="0"/>
        <pt x="326" y="86" on="0"/>
        <pt x="326" y="83" on="1"/>
        <pt x="326" y="79" on="0"/>
        <pt x="321" y="79" on="1"/>
        <pt x="315" y="79" on="0"/>
        <pt x="309" y="88" on="1"/>
        <pt x="302" y="88" on="1"/>
      </contour>
      <contour>
        <pt x="352" y="73" on="1"/>
        <pt x="358" y="73" on="1"/>
        <pt x="362" y="81" on="1"/>
        <pt x="367" y="73" on="0"/>
        <pt x="376" y="73" on="1"/>
        <pt x="385" y="73" on="0"/>
        <pt x="392" y="87" on="0"/>
        <pt x="392" y="94" on="1"/>
        <pt x="392" y="114" on="0"/>
        <pt x="377" y="114" on="1"/>
        <pt x="367" y="114" on="0"/>
        <pt x="364" y="105" on="1"/>
        <pt x="364" y="132" on="1"/>
        <pt x="346" y="132" on="1"/>
        <pt x="346" y="125" on="1"/>
        <pt x="352" y="125" on="1"/>
      </contour>
      <contour>
        <pt x="405" y="65" on="1"/>
        <pt x="407" y="67" on="0"/>
        <pt x="407" y="69" on="1"/>
        <pt x="407" y="75" on="0"/>
        <pt x="400" y="75" on="1"/>
        <pt x="393" y="75" on="0"/>
        <pt x="393" y="68" on="1"/>
        <pt x="393" y="59" on="0"/>
        <pt x="404" y="59" on="1"/>
        <pt x="416" y="59" on="0"/>
        <pt x="422" y="75" on="1"/>
        <pt x="435" y="106" on="1"/>
        <pt x="440" y="106" on="1"/>
        <pt x="440" y="113" on="1"/>
        <pt x="423" y="113" on="1"/>
        <pt x="423" y="106" on="1"/>
        <pt x="428" y="106" on="1"/>
        <pt x="420" y="86" on="1"/>
        <pt x="411" y="106" on="1"/>
        <pt x="417" y="106" on="1"/>
        <pt x="417" y="113" on="1"/>
        <pt x="392" y="113" on="1"/>
        <pt x="392" y="106" on="1"/>
        <pt x="397" y="106" on="1"/>
        <pt x="399" y="99" on="0"/>
        <pt x="403" y="93" on="1"/>
        <pt x="405" y="88" on="0"/>
        <pt x="411" y="77" on="0"/>
        <pt x="413" y="73" on="1"/>
        <pt x="411" y="65" on="0"/>
      </contour>
      <contour>
        <pt x="446" y="33" on="1"/>
        <pt x="446" y="26" on="1"/>
        <pt x="452" y="26" on="1"/>
        <pt x="450" y="21" on="0"/>
        <pt x="446" y="17" on="1"/>
        <pt x="443" y="20" on="0"/>
        <pt x="438" y="26" on="0"/>
        <pt x="434" y="30" on="1"/>
        <pt x="445" y="35" on="0"/>
        <pt x="445" y="42" on="1"/>
        <pt x="445" y="47" on="0"/>
        <pt x="438" y="54" on="0"/>
        <pt x="431" y="54" on="1"/>
        <pt x="423" y="54" on="0"/>
        <pt x="414" y="45" on="0"/>
        <pt x="414" y="40" on="1"/>
        <pt x="414" y="34" on="0"/>
        <pt x="420" y="28" on="1"/>
        <pt x="407" y="24" on="0"/>
        <pt x="407" y="13" on="1"/>
        <pt x="407" y="-1" on="0"/>
        <pt x="425" y="-1" on="1"/>
        <pt x="434" y="-1" on="0"/>
        <pt x="440" y="5" on="1"/>
        <pt x="445" y="-1" on="0"/>
        <pt x="452" y="-1" on="1"/>
        <pt x="462" y="-1" on="0"/>
        <pt x="465" y="11" on="1"/>
        <pt x="460" y="12" on="1"/>
        <pt x="459" y="7" on="0"/>
        <pt x="456" y="7" on="1"/>
        <pt x="453" y="7" on="0"/>
        <pt x="450" y="12" on="1"/>
        <pt x="452" y="15" on="0"/>
        <pt x="457" y="21" on="0"/>
        <pt x="459" y="26" on="1"/>
        <pt x="464" y="26" on="1"/>
        <pt x="464" y="33" on="1"/>
      </contour>
      <contour>
        <pt x="294" y="42" on="1"/>
        <pt x="294" y="50" on="0"/>
        <pt x="298" y="54" on="0"/>
        <pt x="300" y="54" on="1"/>
        <pt x="301" y="54" on="0"/>
        <pt x="301" y="53" on="0"/>
        <pt x="302" y="53" on="1"/>
        <pt x="303" y="53" on="1"/>
        <pt x="302" y="52" on="1"/>
        <pt x="302" y="50" on="1"/>
        <pt x="302" y="44" on="0"/>
        <pt x="308" y="44" on="1"/>
        <pt x="308" y="39" on="1"/>
        <pt x="294" y="39" on="1"/>
      </contour>
      <contour>
        <pt x="469" y="27" on="1"/>
        <pt x="469" y="-1" on="0"/>
        <pt x="498" y="-1" on="1"/>
        <pt x="520" y="-1" on="0"/>
        <pt x="522" y="22" on="1"/>
        <pt x="514" y="22" on="1"/>
        <pt x="512" y="6" on="0"/>
        <pt x="500" y="6" on="1"/>
        <pt x="484" y="6" on="0"/>
        <pt x="484" y="28" on="1"/>
        <pt x="484" y="50" on="0"/>
        <pt x="498" y="50" on="1"/>
        <pt x="508" y="50" on="0"/>
        <pt x="513" y="34" on="1"/>
        <pt x="521" y="34" on="1"/>
        <pt x="521" y="56" on="1"/>
        <pt x="513" y="56" on="1"/>
        <pt x="512" y="50" on="1"/>
        <pt x="505" y="57" on="0"/>
        <pt x="496" y="57" on="1"/>
        <pt x="485" y="57" on="0"/>
        <pt x="469" y="41" on="0"/>
      </contour>
      <contour>
        <pt x="431" y="33" on="1"/>
        <pt x="425" y="39" on="0"/>
        <pt x="425" y="43" on="1"/>
        <pt x="425" y="48" on="0"/>
        <pt x="430" y="48" on="1"/>
        <pt x="436" y="48" on="0"/>
        <pt x="436" y="42" on="1"/>
        <pt x="436" y="36" on="0"/>
      </contour>
      <contour>
        <pt x="273" y="18" on="1"/>
        <pt x="273" y="21" on="1"/>
        <pt x="273" y="40" on="0"/>
        <pt x="254" y="40" on="1"/>
        <pt x="246" y="40" on="0"/>
        <pt x="234" y="28" on="0"/>
        <pt x="234" y="19" on="1"/>
        <pt x="234" y="-1" on="0"/>
        <pt x="255" y="-1" on="1"/>
        <pt x="269" y="-1" on="0"/>
        <pt x="273" y="13" on="1"/>
        <pt x="266" y="13" on="1"/>
        <pt x="265" y="6" on="0"/>
        <pt x="257" y="6" on="1"/>
        <pt x="247" y="6" on="0"/>
        <pt x="247" y="18" on="1"/>
      </contour>
      <contour>
        <pt x="189" y="20" on="1"/>
        <pt x="189" y="10" on="0"/>
        <pt x="201" y="-1" on="0"/>
        <pt x="210" y="-1" on="1"/>
        <pt x="219" y="-1" on="0"/>
        <pt x="231" y="11" on="0"/>
        <pt x="231" y="20" on="1"/>
        <pt x="231" y="29" on="0"/>
        <pt x="219" y="40" on="0"/>
        <pt x="210" y="40" on="1"/>
        <pt x="201" y="40" on="0"/>
        <pt x="189" y="29" on="0"/>
      </contour>
      <contour>
        <pt x="525" y="20" on="1"/>
        <pt x="525" y="10" on="0"/>
        <pt x="537" y="-1" on="0"/>
        <pt x="546" y="-1" on="1"/>
        <pt x="555" y="-1" on="0"/>
        <pt x="567" y="11" on="0"/>
        <pt x="567" y="20" on="1"/>
        <pt x="567" y="29" on="0"/>
        <pt x="555" y="40" on="0"/>
        <pt x="546" y="40" on="1"/>
        <pt x="537" y="40" on="0"/>
        <pt x="525" y="29" on="0"/>
      </contour>
      <contour>
        <pt x="366" y="18" on="1"/>
        <pt x="366" y="21" on="1"/>
        <pt x="366" y="40" on="0"/>
        <pt x="347" y="40" on="1"/>
        <pt x="339" y="40" on="0"/>
        <pt x="327" y="28" on="0"/>
        <pt x="327" y="19" on="1"/>
        <pt x="327" y="-1" on="0"/>
        <pt x="348" y="-1" on="1"/>
        <pt x="362" y="-1" on="0"/>
        <pt x="366" y="13" on="1"/>
        <pt x="359" y="13" on="1"/>
        <pt x="358" y="6" on="0"/>
        <pt x="350" y="6" on="1"/>
        <pt x="340" y="6" on="0"/>
        <pt x="340" y="18" on="1"/>
      </contour>
      <contour>
        <pt x="247" y="23" on="1"/>
        <pt x="247" y="35" on="0"/>
        <pt x="254" y="35" on="1"/>
        <pt x="261" y="35" on="0"/>
        <pt x="261" y="23" on="1"/>
      </contour>
      <contour>
        <pt x="218" y="20" on="1"/>
        <pt x="218" y="4" on="0"/>
        <pt x="210" y="4" on="1"/>
        <pt x="202" y="4" on="0"/>
        <pt x="202" y="20" on="1"/>
        <pt x="202" y="35" on="0"/>
        <pt x="210" y="35" on="1"/>
        <pt x="218" y="35" on="0"/>
      </contour>
      <contour>
        <pt x="554" y="20" on="1"/>
        <pt x="554" y="4" on="0"/>
        <pt x="546" y="4" on="1"/>
        <pt x="538" y="4" on="0"/>
        <pt x="538" y="20" on="1"/>
        <pt x="538" y="35" on="0"/>
        <pt x="546" y="35" on="1"/>
        <pt x="554" y="35" on="0"/>
      </contour>
      <contour>
        <pt x="340" y="23" on="1"/>
        <pt x="340" y="35" on="0"/>
        <pt x="347" y="35" on="1"/>
        <pt x="354" y="35" on="0"/>
        <pt x="354" y="23" on="1"/>
      </contour>
      <contour>
        <pt x="276" y="0" on="1"/>
        <pt x="299" y="0" on="1"/>
        <pt x="299" y="7" on="1"/>
        <pt x="294" y="7" on="1"/>
        <pt x="294" y="32" on="1"/>
        <pt x="308" y="32" on="1"/>
        <pt x="308" y="7" on="1"/>
        <pt x="303" y="7" on="1"/>
        <pt x="303" y="0" on="1"/>
        <pt x="326" y="0" on="1"/>
        <pt x="326" y="7" on="1"/>
        <pt x="320" y="7" on="1"/>
        <pt x="320" y="59" on="1"/>
        <pt x="310" y="57" on="1"/>
        <pt x="306" y="59" on="0"/>
        <pt x="301" y="59" on="1"/>
        <pt x="293" y="59" on="0"/>
        <pt x="282" y="50" on="0"/>
        <pt x="282" y="40" on="1"/>
        <pt x="282" y="39" on="1"/>
        <pt x="275" y="39" on="1"/>
        <pt x="275" y="32" on="1"/>
        <pt x="282" y="32" on="1"/>
        <pt x="282" y="7" on="1"/>
        <pt x="276" y="7" on="1"/>
      </contour>
      <contour>
        <pt x="368" y="0" on="1"/>
        <pt x="394" y="0" on="1"/>
        <pt x="394" y="7" on="1"/>
        <pt x="386" y="7" on="1"/>
        <pt x="386" y="23" on="1"/>
        <pt x="390" y="32" on="0"/>
        <pt x="393" y="32" on="1"/>
        <pt x="393" y="31" on="1"/>
        <pt x="393" y="25" on="0"/>
        <pt x="399" y="25" on="1"/>
        <pt x="406" y="25" on="0"/>
        <pt x="406" y="32" on="1"/>
        <pt x="406" y="40" on="0"/>
        <pt x="398" y="40" on="1"/>
        <pt x="390" y="40" on="0"/>
        <pt x="386" y="29" on="1"/>
        <pt x="386" y="39" on="1"/>
        <pt x="368" y="39" on="1"/>
        <pt x="368" y="32" on="1"/>
        <pt x="374" y="32" on="1"/>
        <pt x="374" y="7" on="1"/>
        <pt x="368" y="7" on="1"/>
      </contour>
      <contour>
        <pt x="437" y="9" on="1"/>
        <pt x="432" y="6" on="0"/>
        <pt x="429" y="6" on="1"/>
        <pt x="419" y="6" on="0"/>
        <pt x="419" y="16" on="1"/>
        <pt x="419" y="21" on="0"/>
        <pt x="423" y="25" on="1"/>
        <pt x="427" y="21" on="0"/>
        <pt x="433" y="14" on="0"/>
      </contour>
      <contour>
        <pt x="124" y="0" on="1"/>
        <pt x="153" y="0" on="1"/>
        <pt x="153" y="7" on="1"/>
        <pt x="145" y="7" on="1"/>
        <pt x="145" y="25" on="1"/>
        <pt x="167" y="25" on="1"/>
        <pt x="167" y="7" on="1"/>
        <pt x="159" y="7" on="1"/>
        <pt x="159" y="0" on="1"/>
        <pt x="188" y="0" on="1"/>
        <pt x="188" y="7" on="1"/>
        <pt x="180" y="7" on="1"/>
        <pt x="180" y="48" on="1"/>
        <pt x="188" y="48" on="1"/>
        <pt x="188" y="55" on="1"/>
        <pt x="159" y="55" on="1"/>
        <pt x="159" y="48" on="1"/>
        <pt x="167" y="48" on="1"/>
        <pt x="167" y="32" on="1"/>
        <pt x="145" y="32" on="1"/>
        <pt x="145" y="48" on="1"/>
        <pt x="153" y="48" on="1"/>
        <pt x="153" y="55" on="1"/>
        <pt x="124" y="55" on="1"/>
        <pt x="124" y="48" on="1"/>
        <pt x="132" y="48" on="1"/>
        <pt x="132" y="7" on="1"/>
        <pt x="124" y="7" on="1"/>
      </contour>
      <contour>
        <pt x="583" y="6" on="1"/>
        <pt x="583" y="13" on="0"/>
        <pt x="576" y="13" on="1"/>
        <pt x="569" y="13" on="0"/>
        <pt x="569" y="6" on="1"/>
        <pt x="569" y="-1" on="0"/>
        <pt x="576" y="-1" on="1"/>
        <pt x="583" y="-1" on="0"/>
      </contour>
    </TTGlyph>
    <TTGlyph name="hungarumlaut" xMin="148" yMin="621" xMax="588" yMax="871">
      <contour>
        <pt x="148" y="650" on="1"/>
        <pt x="164" y="673" on="0"/>
        <pt x="197" y="730" on="0"/>
        <pt x="228" y="790" on="0"/>
        <pt x="256" y="847" on="0"/>
        <pt x="266" y="871" on="1"/>
        <pt x="356" y="828" on="1"/>
        <pt x="342" y="805" on="0"/>
        <pt x="303" y="751" on="0"/>
        <pt x="259" y="696" on="0"/>
        <pt x="213" y="644" on="0"/>
        <pt x="192" y="622" on="1"/>
      </contour>
      <contour>
        <pt x="379" y="649" on="1"/>
        <pt x="395" y="672" on="0"/>
        <pt x="427" y="727" on="0"/>
        <pt x="458" y="784" on="0"/>
        <pt x="484" y="841" on="0"/>
        <pt x="494" y="866" on="1"/>
        <pt x="588" y="827" on="1"/>
        <pt x="573" y="804" on="0"/>
        <pt x="534" y="750" on="0"/>
        <pt x="491" y="695" on="0"/>
        <pt x="444" y="643" on="0"/>
        <pt x="422" y="621" on="1"/>
      </contour>
    </TTGlyph>
    <TTGlyph name="hungarumlaut.cap" xMin="148" yMin="621" xMax="588" yMax="871">
      <contour>
        <pt x="148" y="650" on="1"/>
        <pt x="164" y="673" on="0"/>
        <pt x="197" y="730" on="0"/>
        <pt x="228" y="790" on="0"/>
        <pt x="256" y="847" on="0"/>
        <pt x="266" y="871" on="1"/>
        <pt x="356" y="828" on="1"/>
        <pt x="342" y="805" on="0"/>
        <pt x="303" y="751" on="0"/>
        <pt x="259" y="696" on="0"/>
        <pt x="213" y="644" on="0"/>
        <pt x="192" y="622" on="1"/>
      </contour>
      <contour>
        <pt x="379" y="649" on="1"/>
        <pt x="395" y="672" on="0"/>
        <pt x="427" y="727" on="0"/>
        <pt x="458" y="784" on="0"/>
        <pt x="484" y="841" on="0"/>
        <pt x="494" y="866" on="1"/>
        <pt x="588" y="827" on="1"/>
        <pt x="573" y="804" on="0"/>
        <pt x="534" y="750" on="0"/>
        <pt x="491" y="695" on="0"/>
        <pt x="444" y="643" on="0"/>
        <pt x="422" y="621" on="1"/>
      </contour>
    </TTGlyph>
    <TTGlyph name="hyphen" xMin="139" yMin="286" xMax="491" yMax="364">
      <contour>
        <pt x="485" y="286" on="1"/>
        <pt x="139" y="286" on="1"/>
        <pt x="139" y="364" on="1"/>
        <pt x="491" y="364" on="1"/>
      </contour>
    </TTGlyph>
    <TTGlyph name="i" xMin="86" yMin="0" xMax="584" yMax="783">
      <contour>
        <pt x="283" y="632" on="1"/>
        <pt x="290" y="783" on="1"/>
        <pt x="386" y="783" on="1"/>
        <pt x="376" y="632" on="1"/>
      </contour>
      <contour>
        <pt x="86" y="0" on="1"/>
        <pt x="86" y="69" on="1"/>
        <pt x="290" y="69" on="1"/>
        <pt x="290" y="471" on="1"/>
        <pt x="87" y="480" on="1"/>
        <pt x="94" y="544" on="1"/>
        <pt x="381" y="544" on="1"/>
        <pt x="381" y="69" on="1"/>
        <pt x="584" y="69" on="1"/>
        <pt x="577" y="0" on="1"/>
      </contour>
    </TTGlyph>
    <TTGlyph name="iacute" xMin="86" yMin="0" xMax="584" yMax="857">
      <component glyphName="acute" x="32" y="0" flags="0x204"/>
      <component glyphName="dotlessi" x="0" y="0" flags="0x4"/>
    </TTGlyph>
    <TTGlyph name="ibreve" xMin="86" yMin="0" xMax="584" yMax="824">
      <component glyphName="dotlessi" x="0" y="0" flags="0x204"/>
      <component glyphName="breve" x="26" y="0" flags="0x4"/>
    </TTGlyph>
    <TTGlyph name="icircumflex" xMin="86" yMin="0" xMax="584" yMax="836">
      <component glyphName="circumflex" x="23" y="0" flags="0x204"/>
      <component glyphName="dotlessi" x="0" y="0" flags="0x4"/>
    </TTGlyph>
    <TTGlyph name="idieresis" xMin="86" yMin="0" xMax="584" yMax="783">
      <component glyphName="dieresis" x="23" y="0" flags="0x204"/>
      <component glyphName="dotlessi" x="0" y="0" flags="0x4"/>
    </TTGlyph>
    <TTGlyph name="igrave" xMin="86" yMin="0" xMax="584" yMax="853">
      <component glyphName="dotlessi" x="0" y="0" flags="0x204"/>
      <component glyphName="grave" x="3" y="0" flags="0x4"/>
    </TTGlyph>
    <TTGlyph name="imacron" xMin="86" yMin="0" xMax="584" yMax="749">
      <component glyphName="dotlessi" x="0" y="0" flags="0x204"/>
      <component glyphName="macron" x="23" y="0" flags="0x4"/>
    </TTGlyph>
    <TTGlyph name="iogonek" xMin="86" yMin="-240" xMax="584" yMax="783">
      <contour>
        <pt x="283" y="632" on="1"/>
        <pt x="290" y="783" on="1"/>
        <pt x="386" y="783" on="1"/>
        <pt x="376" y="632" on="1"/>
      </contour>
      <contour>
        <pt x="403" y="-240" on="1"/>
        <pt x="290" y="-231" on="0"/>
        <pt x="197" y="-175" on="0"/>
        <pt x="197" y="-133" on="1"/>
        <pt x="197" y="-102" on="0"/>
        <pt x="242" y="-38" on="0"/>
        <pt x="295" y="0" on="1"/>
        <pt x="86" y="0" on="1"/>
        <pt x="86" y="69" on="1"/>
        <pt x="290" y="69" on="1"/>
        <pt x="290" y="471" on="1"/>
        <pt x="87" y="480" on="1"/>
        <pt x="94" y="544" on="1"/>
        <pt x="381" y="544" on="1"/>
        <pt x="381" y="69" on="1"/>
        <pt x="584" y="69" on="1"/>
        <pt x="577" y="0" on="1"/>
        <pt x="376" y="0" on="1"/>
        <pt x="322" y="-40" on="0"/>
        <pt x="282" y="-90" on="0"/>
        <pt x="282" y="-110" on="1"/>
        <pt x="282" y="-132" on="0"/>
        <pt x="340" y="-159" on="0"/>
        <pt x="411" y="-167" on="1"/>
      </contour>
    </TTGlyph>
    <TTGlyph name="j" xMin="59" yMin="-194" xMax="429" yMax="783">
      <contour>
        <pt x="330" y="632" on="1"/>
        <pt x="334" y="783" on="1"/>
        <pt x="429" y="783" on="1"/>
        <pt x="422" y="632" on="1"/>
      </contour>
      <contour>
        <pt x="429" y="544" on="1"/>
        <pt x="429" y="55" on="1"/>
        <pt x="429" y="-5" on="0"/>
        <pt x="393" y="-95" on="0"/>
        <pt x="307" y="-157" on="0"/>
        <pt x="165" y="-191" on="0"/>
        <pt x="59" y="-194" on="1"/>
        <pt x="62" y="-108" on="1"/>
        <pt x="153" y="-105" on="0"/>
        <pt x="262" y="-89" on="0"/>
        <pt x="320" y="-57" on="0"/>
        <pt x="338" y="-4" on="0"/>
        <pt x="338" y="37" on="1"/>
        <pt x="338" y="470" on="1"/>
        <pt x="100" y="480" on="1"/>
        <pt x="107" y="544" on="1"/>
      </contour>
    </TTGlyph>
    <TTGlyph name="k" xMin="118" yMin="-7" xMax="578" yMax="784">
      <contour>
        <pt x="290" y="244" on="1"/>
        <pt x="209" y="242" on="1"/>
        <pt x="209" y="0" on="1"/>
        <pt x="118" y="0" on="1"/>
        <pt x="118" y="776" on="1"/>
        <pt x="209" y="784" on="1"/>
        <pt x="209" y="309" on="1"/>
        <pt x="293" y="311" on="1"/>
        <pt x="341" y="368" on="0"/>
        <pt x="429" y="483" on="0"/>
        <pt x="473" y="547" on="1"/>
        <pt x="565" y="540" on="1"/>
        <pt x="518" y="473" on="0"/>
        <pt x="421" y="344" on="0"/>
        <pt x="369" y="283" on="1"/>
        <pt x="578" y="7" on="1"/>
        <pt x="481" y="-7" on="1"/>
      </contour>
    </TTGlyph>
    <TTGlyph name="kcommaaccent" xMin="118" yMin="-314" xMax="578" yMax="784">
      <component glyphName="commaaccent" x="26" y="-7" flags="0x204"/>
      <component glyphName="k" x="0" y="0" flags="0x4"/>
    </TTGlyph>
    <TTGlyph name="l" xMin="93" yMin="0" xMax="539" yMax="775">
      <contour>
        <pt x="93" y="0" on="1"/>
        <pt x="93" y="69" on="1"/>
        <pt x="270" y="69" on="1"/>
        <pt x="270" y="702" on="1"/>
        <pt x="102" y="710" on="1"/>
        <pt x="110" y="775" on="1"/>
        <pt x="361" y="775" on="1"/>
        <pt x="361" y="69" on="1"/>
        <pt x="539" y="69" on="1"/>
        <pt x="531" y="0" on="1"/>
      </contour>
    </TTGlyph>
    <TTGlyph name="lacute" xMin="93" yMin="0" xMax="539" yMax="1088">
      <component glyphName="acute" x="13" y="231" flags="0x204"/>
      <component glyphName="l" x="0" y="0" flags="0x4"/>
    </TTGlyph>
    <TTGlyph name="lcaron" xMin="93" yMin="0" xMax="606" yMax="892">
      <component glyphName="caron.alt" x="257" y="0" flags="0x204"/>
      <component glyphName="l" x="0" y="0" flags="0x4"/>
    </TTGlyph>
    <TTGlyph name="lcommaaccent" xMin="93" yMin="-307" xMax="539" yMax="775">
      <component glyphName="commaaccent" x="9" y="0" flags="0x204"/>
      <component glyphName="l" x="0" y="0" flags="0x4"/>
    </TTGlyph>
    <TTGlyph name="ldot" xMin="93" yMin="0" xMax="675" yMax="775">
      <contour>
        <pt x="93" y="0" on="1"/>
        <pt x="93" y="69" on="1"/>
        <pt x="270" y="69" on="1"/>
        <pt x="270" y="702" on="1"/>
        <pt x="102" y="710" on="1"/>
        <pt x="110" y="775" on="1"/>
        <pt x="361" y="775" on="1"/>
        <pt x="361" y="69" on="1"/>
        <pt x="539" y="69" on="1"/>
        <pt x="531" y="0" on="1"/>
      </contour>
      <contour>
        <pt x="566" y="294" on="1"/>
        <pt x="573" y="416" on="1"/>
        <pt x="675" y="416" on="1"/>
        <pt x="668" y="294" on="1"/>
      </contour>
    </TTGlyph>
    <TTGlyph name="less" xMin="102" yMin="-24" xMax="523" yMax="669">
      <contour>
        <pt x="518" y="605" on="1"/>
        <pt x="186" y="330" on="1"/>
        <pt x="186" y="319" on="1"/>
        <pt x="523" y="40" on="1"/>
        <pt x="471" y="-24" on="1"/>
        <pt x="102" y="286" on="1"/>
        <pt x="102" y="363" on="1"/>
        <pt x="468" y="669" on="1"/>
      </contour>
    </TTGlyph>
    <TTGlyph name="lessequal" xMin="91" yMin="16" xMax="534" yMax="660">
      <contour>
        <pt x="534" y="16" on="1"/>
        <pt x="91" y="16" on="1"/>
        <pt x="91" y="93" on="1"/>
        <pt x="534" y="93" on="1"/>
      </contour>
      <contour>
        <pt x="194" y="389" on="1"/>
        <pt x="514" y="220" on="1"/>
        <pt x="483" y="149" on="1"/>
        <pt x="99" y="353" on="1"/>
        <pt x="101" y="426" on="1"/>
        <pt x="476" y="660" on="1"/>
        <pt x="513" y="592" on="1"/>
        <pt x="194" y="397" on="1"/>
      </contour>
    </TTGlyph>
    <TTGlyph name="lslash" xMin="93" yMin="0" xMax="539" yMax="775">
      <contour>
        <pt x="93" y="0" on="1"/>
        <pt x="93" y="69" on="1"/>
        <pt x="270" y="69" on="1"/>
        <pt x="270" y="347" on="1"/>
        <pt x="142" y="281" on="1"/>
        <pt x="127" y="343" on="1"/>
        <pt x="270" y="417" on="1"/>
        <pt x="270" y="702" on="1"/>
        <pt x="102" y="710" on="1"/>
        <pt x="110" y="775" on="1"/>
        <pt x="361" y="775" on="1"/>
        <pt x="361" y="464" on="1"/>
        <pt x="482" y="527" on="1"/>
        <pt x="497" y="465" on="1"/>
        <pt x="361" y="395" on="1"/>
        <pt x="361" y="69" on="1"/>
        <pt x="539" y="69" on="1"/>
        <pt x="531" y="0" on="1"/>
      </contour>
    </TTGlyph>
    <TTGlyph name="m" xMin="64" yMin="0" xMax="562" yMax="557">
      <contour>
        <pt x="231" y="479" on="1"/>
        <pt x="213" y="479" on="0"/>
        <pt x="171" y="459" on="0"/>
        <pt x="151" y="439" on="1"/>
        <pt x="153" y="364" on="0"/>
        <pt x="155" y="145" on="0"/>
        <pt x="155" y="0" on="1"/>
        <pt x="70" y="0" on="1"/>
        <pt x="70" y="180" on="0"/>
        <pt x="67" y="446" on="0"/>
        <pt x="64" y="541" on="1"/>
        <pt x="143" y="546" on="1"/>
        <pt x="147" y="496" on="1"/>
        <pt x="170" y="522" on="0"/>
        <pt x="231" y="557" on="0"/>
        <pt x="265" y="557" on="1"/>
        <pt x="328" y="557" on="0"/>
        <pt x="347" y="498" on="1"/>
        <pt x="370" y="522" on="0"/>
        <pt x="431" y="557" on="0"/>
        <pt x="467" y="557" on="1"/>
        <pt x="513" y="557" on="0"/>
        <pt x="562" y="496" on="0"/>
        <pt x="562" y="435" on="1"/>
        <pt x="562" y="0" on="1"/>
        <pt x="476" y="0" on="1"/>
        <pt x="476" y="402" on="1"/>
        <pt x="476" y="444" on="0"/>
        <pt x="453" y="479" on="0"/>
        <pt x="424" y="479" on="1"/>
        <pt x="386" y="479" on="0"/>
        <pt x="352" y="446" on="1"/>
        <pt x="352" y="437" on="1"/>
        <pt x="352" y="0" on="1"/>
        <pt x="282" y="0" on="1"/>
        <pt x="282" y="403" on="1"/>
        <pt x="282" y="445" on="0"/>
        <pt x="259" y="479" on="0"/>
      </contour>
    </TTGlyph>
    <TTGlyph name="macron" xMin="127" yMin="670" xMax="498" yMax="749">
      <contour>
        <pt x="498" y="670" on="1"/>
        <pt x="127" y="670" on="1"/>
        <pt x="127" y="749" on="1"/>
        <pt x="498" y="749" on="1"/>
      </contour>
    </TTGlyph>
    <TTGlyph name="macron.cap" xMin="127" yMin="670" xMax="498" yMax="749">
      <contour>
        <pt x="498" y="670" on="1"/>
        <pt x="127" y="670" on="1"/>
        <pt x="127" y="749" on="1"/>
        <pt x="498" y="749" on="1"/>
      </contour>
    </TTGlyph>
    <TTGlyph name="minus" xMin="93" yMin="287" xMax="531" yMax="364">
      <contour>
        <pt x="530" y="287" on="1"/>
        <pt x="93" y="287" on="1"/>
        <pt x="93" y="364" on="1"/>
        <pt x="531" y="364" on="1"/>
      </contour>
    </TTGlyph>
    <TTGlyph name="mu" xMin="97" yMin="-191" xMax="528" yMax="547">
      <contour>
        <pt x="97" y="-191" on="1"/>
        <pt x="97" y="541" on="1"/>
        <pt x="188" y="547" on="1"/>
        <pt x="188" y="194" on="1"/>
        <pt x="188" y="122" on="0"/>
        <pt x="244" y="64" on="0"/>
        <pt x="295" y="64" on="1"/>
        <pt x="334" y="64" on="0"/>
        <pt x="401" y="89" on="0"/>
        <pt x="433" y="111" on="1"/>
        <pt x="431" y="186" on="0"/>
        <pt x="429" y="400" on="0"/>
        <pt x="429" y="544" on="1"/>
        <pt x="520" y="544" on="1"/>
        <pt x="520" y="364" on="0"/>
        <pt x="523" y="98" on="0"/>
        <pt x="528" y="3" on="1"/>
        <pt x="445" y="-2" on="1"/>
        <pt x="439" y="60" on="1"/>
        <pt x="409" y="31" on="0"/>
        <pt x="329" y="-13" on="0"/>
        <pt x="277" y="-13" on="1"/>
        <pt x="248" y="-13" on="0"/>
        <pt x="200" y="2" on="0"/>
        <pt x="183" y="19" on="1"/>
        <pt x="187" y="-182" on="1"/>
      </contour>
    </TTGlyph>
</ttFont>
